{"glyphs":{"0":{"ha":790,"x_min":54,"x_max":736,"o":"m 54 319 l 54 688 q 147 936 54 857 q 394 1015 240 1015 q 643 936 550 1015 q 736 688 736 857 l 736 319 q 643 71 736 150 q 394 -8 550 -8 q 147 71 240 -8 q 54 319 54 150 m 271 319 q 394 181 271 181 q 519 319 519 181 l 519 688 q 394 826 519 826 q 271 688 271 826 l 271 319 m 344 451 q 334 461 344 451 q 325 503 325 471 q 344 553 325 535 q 396 572 363 572 q 447 553 428 572 q 465 503 465 535 q 447 451 465 471 q 396 432 428 432 q 344 451 363 432 z "},"1":{"ha":428,"x_min":-3,"x_max":357,"o":"m -3 824 q 38 897 -3 874 l 221 1008 q 261 1018 236 1018 q 327 999 297 1018 q 357 950 357 979 l 357 67 q 325 17 357 35 q 249 0 293 0 q 172 17 204 0 q 140 67 140 35 l 140 774 l 100 749 q 65 738 83 738 q 17 764 36 738 q -3 824 -3 790 z "},"2":{"ha":718,"x_min":32,"x_max":686,"o":"m 32 67 l 32 201 q 77 321 32 261 q 186 428 122 381 l 314 522 q 424 621 379 569 q 469 721 469 672 q 443 790 469 760 q 364 819 417 819 q 289 794 318 819 q 260 715 260 769 q 228 660 260 683 q 146 636 197 636 q 49 749 49 636 q 142 942 49 869 q 363 1015 236 1015 q 589 938 492 1015 q 686 728 686 860 q 642 571 686 644 q 535 447 597 497 q 409 356 472 397 q 301 274 346 314 q 257 201 257 235 l 257 189 l 621 189 q 667 161 647 189 q 686 96 686 133 q 667 29 686 58 q 621 0 647 0 l 126 0 q 63 19 94 0 q 32 67 32 39 z "},"3":{"ha":742,"x_min":22,"x_max":704,"o":"m 22 254 q 44 317 22 300 q 125 333 67 333 q 213 317 190 333 q 236 261 236 301 q 360 181 236 181 q 459 209 431 181 q 488 306 488 238 l 488 332 q 453 420 488 397 q 354 443 419 443 q 292 526 292 443 q 354 610 292 610 q 394 613 378 610 q 427 627 410 617 q 453 663 444 638 q 463 729 463 689 q 360 829 463 829 q 282 813 307 829 q 257 758 257 797 q 235 699 257 719 q 156 679 213 679 q 63 697 83 679 q 43 767 43 714 q 120 940 43 864 q 360 1015 197 1015 q 669 764 669 1015 q 641 622 669 685 q 563 536 613 560 q 704 332 704 483 l 704 306 q 608 68 704 144 q 353 -8 511 -8 q 106 72 189 -8 q 22 254 22 153 z "},"4":{"ha":729,"x_min":-7,"x_max":733,"o":"m -7 289 q 4 331 -7 310 l 325 960 q 415 1015 354 1015 q 486 992 449 1015 q 524 933 524 968 q 517 907 524 924 l 271 414 l 390 414 l 390 511 q 422 560 390 543 q 499 576 454 576 q 575 560 543 576 q 607 511 607 543 l 607 414 l 667 414 q 716 384 699 414 q 733 314 733 354 q 713 245 733 276 q 667 214 692 214 l 607 214 l 607 67 q 575 17 607 35 q 499 0 543 0 q 422 17 454 0 q 390 67 390 35 l 390 214 l 65 214 q 13 234 33 214 q -7 289 -7 254 z "},"5":{"ha":724,"x_min":18,"x_max":699,"o":"m 18 250 q 45 325 18 304 q 126 346 72 346 q 213 325 192 346 q 235 265 235 304 q 269 203 235 225 q 356 181 303 181 q 482 311 482 181 l 482 338 q 449 440 482 406 q 358 474 417 474 l 147 474 q 83 495 101 474 q 64 558 64 517 q 67 599 64 568 l 104 949 q 143 1015 111 1015 l 586 1015 q 632 988 615 1015 q 649 921 649 960 q 632 854 649 882 q 586 826 615 826 l 282 826 l 268 640 l 358 640 q 606 568 514 640 q 699 338 699 496 l 699 311 q 606 69 699 147 q 361 -8 513 -8 q 110 68 201 -8 q 18 250 18 144 z "},"6":{"ha":781,"x_min":54,"x_max":736,"o":"m 54 319 l 54 688 q 151 936 54 857 q 408 1015 247 1015 q 653 935 569 1015 q 736 754 736 854 q 713 686 736 706 q 635 667 689 667 q 522 746 522 667 q 488 805 522 783 q 401 826 453 826 q 271 688 271 826 l 271 563 q 444 624 326 624 q 656 556 576 624 q 736 332 736 488 l 736 319 q 643 71 736 150 q 396 -8 550 -8 q 147 71 240 -8 q 54 319 54 150 m 271 304 q 396 167 271 167 q 519 304 519 167 l 519 317 q 394 457 519 457 q 271 329 271 457 l 271 304 z "},"7":{"ha":711,"x_min":17,"x_max":699,"o":"m 17 733 l 17 949 q 46 994 17 974 q 111 1015 75 1015 l 604 1015 q 667 994 636 1015 q 699 949 699 974 l 699 775 q 654 643 699 726 l 329 21 q 268 -8 314 -8 q 173 24 215 -8 q 131 101 131 56 q 140 138 131 119 l 482 729 l 482 826 l 233 826 l 233 733 q 200 686 233 706 q 124 667 167 667 q 48 686 79 667 q 17 733 17 706 z "},"8":{"ha":757,"x_min":38,"x_max":719,"o":"m 38 278 l 38 294 q 210 556 38 497 q 72 768 72 603 q 155 954 72 893 q 379 1015 238 1015 q 603 954 521 1015 q 686 768 686 893 q 549 556 686 603 q 719 294 719 497 l 719 278 q 626 61 719 131 q 379 -8 533 -8 q 131 61 225 -8 q 38 278 38 131 m 254 304 q 379 165 254 165 q 503 304 503 165 l 503 335 q 379 467 503 467 q 254 335 254 467 l 254 304 m 281 740 q 379 640 281 640 q 478 740 478 640 q 379 842 478 842 q 281 740 281 842 z "},"9":{"ha":782,"x_min":46,"x_max":728,"o":"m 46 253 q 69 321 46 301 q 147 340 93 340 q 260 261 260 340 q 294 202 260 224 q 381 181 329 181 q 511 319 511 181 l 511 444 q 338 383 456 383 q 126 451 206 383 q 46 675 46 519 l 46 688 q 139 936 46 857 q 386 1015 232 1015 q 635 936 542 1015 q 728 688 728 857 l 728 319 q 631 71 728 150 q 374 -8 535 -8 q 129 72 213 -8 q 46 253 46 153 m 263 690 q 388 550 263 550 q 511 678 511 550 l 511 703 q 386 840 511 840 q 263 703 263 840 l 263 690 z "},"\u0000":{"ha":0,"x_min":0,"x_max":0,"o":""},"\r":{"ha":0,"x_min":0,"x_max":0,"o":""}," ":{"ha":278,"x_min":0,"x_max":0,"o":""},"!":{"ha":318,"x_min":54,"x_max":267,"o":"m 54 99 q 85 174 54 143 q 161 206 115 206 q 235 174 204 206 q 267 99 267 142 q 235 24 267 56 q 161 -8 204 -8 q 85 24 117 -8 q 54 99 54 56 m 58 931 q 87 992 58 969 q 160 1015 115 1015 q 231 992 203 1015 q 260 931 260 969 q 250 646 260 847 q 240 363 240 444 q 215 317 240 333 q 160 301 189 301 q 78 363 78 301 q 68 646 78 444 q 58 931 58 847 z "},"\"":{"ha":438,"x_min":32,"x_max":406,"o":"m 32 1015 q 54 1052 32 1038 q 107 1067 76 1067 q 160 1052 138 1067 q 183 1015 183 1038 l 169 829 q 153 792 169 807 q 107 776 138 776 q 61 792 76 776 q 46 829 46 807 l 32 1015 m 254 1015 q 276 1052 254 1038 q 329 1067 299 1067 q 383 1052 360 1067 q 406 1015 406 1038 l 392 829 q 376 792 392 807 q 329 776 360 776 q 283 792 299 776 q 268 829 268 807 l 254 1015 z "},"#":{"ha":996,"x_min":29,"x_max":967,"o":"m 45 309 q 37 320 45 309 q 29 365 29 331 q 46 424 29 400 q 89 447 63 447 l 217 447 l 246 597 l 147 597 q 105 618 121 597 q 89 675 89 639 q 106 733 89 710 q 149 757 122 757 l 278 757 l 314 946 q 344 978 318 965 q 404 990 371 990 q 474 971 446 990 q 501 911 501 951 l 472 757 l 615 757 l 651 946 q 682 978 656 965 q 742 990 708 990 q 810 971 782 990 q 840 911 839 951 l 810 757 l 907 757 q 949 734 931 757 q 967 678 967 711 q 948 620 967 643 q 906 597 929 597 l 781 597 l 750 447 l 847 447 q 890 424 871 447 q 908 368 908 400 q 889 310 908 333 q 846 288 869 288 l 719 288 l 681 86 q 651 53 676 67 q 597 39 625 39 q 524 60 558 39 q 490 118 490 82 l 522 288 l 382 288 l 343 86 q 313 53 339 67 q 260 39 286 39 q 188 60 221 39 q 154 118 154 82 l 185 288 l 88 288 q 45 309 61 288 m 413 447 l 554 447 l 583 597 l 442 597 l 413 447 z "},"$":{"ha":751,"x_min":33,"x_max":715,"o":"m 33 181 q 62 258 33 219 q 128 297 90 297 q 218 252 154 297 q 336 197 282 207 l 336 422 q 257 454 286 442 q 185 492 228 467 q 118 545 142 518 q 76 615 94 572 q 58 708 58 657 q 137 903 58 832 q 336 990 215 974 l 336 1029 q 351 1056 336 1044 q 389 1067 367 1067 q 425 1055 408 1067 q 442 1029 442 1043 l 442 994 q 518 988 481 993 q 597 969 556 982 q 665 932 639 957 q 690 874 690 907 q 667 799 690 838 q 604 760 644 760 q 538 783 585 760 q 442 811 492 807 l 442 608 q 519 576 488 590 q 592 536 551 563 q 656 481 632 510 q 698 407 681 451 q 715 308 715 363 q 641 104 715 182 q 442 6 567 26 l 442 -35 q 425 -60 442 -49 q 389 -72 408 -72 q 351 -61 367 -72 q 336 -35 336 -50 l 336 0 q 123 58 213 4 q 33 181 33 113 m 261 729 q 350 642 261 679 l 350 807 q 261 729 261 789 m 428 199 q 513 286 513 218 q 428 385 513 344 l 428 199 z "},"%":{"ha":1121,"x_min":33,"x_max":1088,"o":"m 33 631 l 33 828 q 90 970 33 925 q 242 1015 146 1015 q 393 970 336 1015 q 450 828 450 925 l 450 631 q 393 488 450 533 q 242 443 336 443 q 90 488 146 443 q 33 631 33 533 m 174 631 q 242 564 174 564 q 311 631 311 564 l 311 828 q 242 894 311 894 q 174 828 174 894 l 174 631 m 246 10 q 253 36 246 22 l 740 1038 q 799 1072 757 1072 q 855 1051 829 1072 q 881 999 881 1031 q 875 972 881 983 l 386 -29 q 324 -64 369 -64 q 268 -41 290 -64 q 246 10 246 -18 m 671 183 l 671 381 q 727 523 671 478 q 879 568 783 568 q 1031 523 974 568 q 1088 381 1088 478 l 1088 183 q 1031 41 1088 86 q 879 -4 974 -4 q 727 41 783 -4 q 671 183 671 86 m 811 183 q 879 117 811 117 q 949 183 949 117 l 949 381 q 879 447 949 447 q 811 381 811 447 l 811 183 z "},"&":{"ha":910,"x_min":25,"x_max":899,"o":"m 25 296 q 73 460 25 383 q 192 581 121 538 q 101 782 101 681 q 189 969 101 900 q 408 1039 276 1039 q 616 983 532 1039 q 700 865 700 926 q 667 797 700 828 q 597 765 635 765 q 553 781 574 765 q 517 816 532 797 q 474 851 501 835 q 410 867 446 867 q 332 842 363 867 q 301 772 301 817 q 310 727 301 750 q 339 678 318 704 l 372 636 q 415 592 383 624 l 450 557 l 650 350 q 669 459 669 396 q 686 547 669 522 q 769 571 703 571 q 842 547 824 571 q 861 472 861 522 q 781 217 861 344 l 886 108 q 899 74 899 94 q 867 14 899 42 q 799 -14 836 -14 q 746 11 771 -14 l 671 88 q 386 -14 549 -14 q 126 77 226 -14 q 25 296 25 168 m 243 314 q 287 213 243 251 q 410 174 331 174 q 544 218 493 174 l 313 456 q 243 314 243 396 z "},"'":{"ha":215,"x_min":32,"x_max":183,"o":"m 32 1015 q 54 1052 32 1038 q 107 1067 76 1067 q 160 1052 138 1067 q 183 1015 183 1038 l 169 829 q 153 792 169 807 q 107 776 138 776 q 61 792 76 776 q 46 829 46 807 l 32 1015 z "},"(":{"ha":497,"x_min":60,"x_max":478,"o":"m 60 240 l 60 779 q 158 986 60 906 q 371 1067 256 1067 q 478 974 478 1067 q 460 905 478 931 q 413 879 442 879 q 313 849 350 879 q 276 779 276 818 l 276 240 q 413 160 276 160 q 478 64 478 160 q 456 -5 478 18 q 365 -28 433 -28 q 260 -12 311 -28 q 163 33 208 3 q 88 117 117 64 q 60 240 60 171 z "},")":{"ha":497,"x_min":19,"x_max":438,"o":"m 19 64 q 85 160 19 160 q 221 240 221 160 l 221 779 q 184 849 221 818 q 85 879 147 879 q 38 905 56 879 q 19 974 19 931 q 126 1067 19 1067 q 340 986 242 1067 q 438 779 438 906 l 438 240 q 409 117 438 171 q 335 33 381 64 q 238 -12 289 3 q 132 -28 186 -28 q 42 -5 64 -28 q 19 64 19 18 z "},"*":{"ha":682,"x_min":31,"x_max":650,"o":"m 31 782 q 53 835 31 811 q 107 858 75 858 q 128 854 118 858 l 274 807 l 267 949 q 289 998 268 981 q 342 1015 310 1015 q 393 999 372 1015 q 415 949 414 982 l 410 804 l 557 854 q 578 858 567 858 q 629 831 608 858 q 650 772 650 804 q 603 711 650 721 l 461 678 l 558 538 q 569 497 569 524 q 543 444 569 465 q 485 422 517 422 q 432 449 449 422 l 342 588 l 250 447 q 201 422 235 422 q 143 442 172 422 q 114 494 114 463 q 131 539 114 519 l 222 669 l 78 711 q 31 782 31 721 z "},"+":{"ha":632,"x_min":28,"x_max":604,"o":"m 28 333 q 46 397 28 371 q 93 422 64 422 l 228 422 l 228 556 q 254 602 228 582 q 317 622 281 622 q 379 602 354 622 q 404 556 404 582 l 404 422 l 538 422 q 584 396 564 422 q 604 333 604 369 q 584 271 604 296 q 538 246 564 246 l 404 246 l 404 111 q 380 64 404 82 q 317 46 356 46 q 253 64 279 46 q 228 111 228 82 l 228 246 l 93 246 q 46 270 64 246 q 28 333 28 294 z "},",":{"ha":276,"x_min":32,"x_max":244,"o":"m 32 99 q 63 174 32 143 q 138 206 94 206 q 213 174 181 206 q 244 100 244 143 q 158 -122 244 78 q 117 -147 147 -147 q 69 -132 92 -147 q 47 -93 47 -117 q 53 -71 47 -82 l 88 4 q 32 99 32 36 z "},"-":{"ha":578,"x_min":43,"x_max":536,"o":"m 43 333 q 61 397 43 371 q 108 422 79 422 l 469 422 q 516 396 496 422 q 536 333 536 369 q 516 271 536 296 q 469 246 496 246 l 108 246 q 61 270 79 246 q 43 333 43 294 z "},".":{"ha":276,"x_min":32,"x_max":244,"o":"m 32 99 q 63 174 32 143 q 139 206 93 206 q 213 174 182 206 q 244 99 244 142 q 213 24 244 56 q 139 -8 182 -8 q 63 24 94 -8 q 32 99 32 56 z "},"/":{"ha":682,"x_min":24,"x_max":658,"o":"m 24 10 q 31 36 24 22 l 518 1038 q 576 1072 535 1072 q 633 1051 607 1072 q 658 999 658 1031 q 653 972 658 983 l 164 -29 q 101 -64 147 -64 q 46 -41 68 -64 q 24 10 24 -18 z "},":":{"ha":313,"x_min":50,"x_max":263,"o":"m 50 99 q 81 174 50 143 q 157 206 111 206 q 231 174 200 206 q 263 99 263 142 q 231 24 263 56 q 157 -8 200 -8 q 81 24 113 -8 q 50 99 50 56 m 50 479 q 81 555 50 524 q 157 586 111 586 q 231 554 200 586 q 263 479 263 522 q 231 404 263 436 q 157 372 200 372 q 81 404 113 372 q 50 479 50 436 z "},";":{"ha":313,"x_min":46,"x_max":267,"o":"m 46 99 q 77 174 46 143 q 151 206 108 206 q 226 174 194 206 q 258 100 258 143 q 172 -122 258 78 q 131 -147 161 -147 q 83 -132 106 -147 q 61 -93 61 -117 q 67 -71 61 -82 l 101 4 q 46 99 46 36 m 54 479 q 85 555 54 524 q 161 586 115 586 q 235 554 204 586 q 267 479 267 522 q 235 404 267 436 q 161 372 204 372 q 85 404 117 372 q 54 479 54 436 z "},"<":{"ha":593,"x_min":26,"x_max":543,"o":"m 69 307 q 26 385 26 335 q 69 463 26 435 l 422 692 q 449 699 431 699 q 513 668 482 699 q 543 597 543 638 q 518 543 543 558 l 274 385 l 518 226 q 543 172 543 211 q 513 101 543 132 q 449 71 482 71 q 422 78 431 71 l 69 307 z "},"=":{"ha":622,"x_min":65,"x_max":558,"o":"m 65 188 q 83 251 65 225 q 131 276 101 276 l 492 276 q 538 250 518 276 q 558 188 558 224 q 538 125 558 150 q 492 100 518 100 l 131 100 q 83 124 101 100 q 65 188 65 149 m 65 469 q 83 533 65 507 q 131 558 101 558 l 492 558 q 538 532 518 558 q 558 469 558 506 q 538 407 558 432 q 492 382 518 382 l 131 382 q 83 406 101 382 q 65 469 65 431 z "},">":{"ha":593,"x_min":50,"x_max":567,"o":"m 50 172 q 75 226 50 211 l 319 385 l 75 543 q 50 597 50 558 q 81 668 50 638 q 144 699 111 699 q 171 692 163 699 l 524 463 q 567 385 567 435 q 524 307 567 335 l 171 78 q 144 71 163 71 q 81 101 111 71 q 50 172 50 132 z "},"?":{"ha":629,"x_min":28,"x_max":597,"o":"m 28 829 q 100 956 28 896 q 301 1015 172 1015 q 515 950 433 1015 q 597 786 597 885 q 442 532 597 653 q 388 474 406 503 q 367 424 371 446 q 364 358 364 403 q 282 301 364 301 q 222 321 239 301 q 206 394 206 340 q 299 606 206 525 q 335 635 303 610 q 379 672 367 660 q 407 710 392 685 q 422 763 422 736 q 388 833 422 808 q 297 857 353 857 q 219 840 250 857 q 179 803 189 824 q 153 767 169 783 q 111 750 136 750 q 53 771 79 750 q 28 829 28 792 m 178 99 q 209 174 178 143 q 283 206 240 206 q 359 174 328 206 q 390 99 390 142 q 359 24 390 56 q 283 -8 328 -8 q 208 24 239 -8 q 178 99 178 56 z "},"@":{"ha":1046,"x_min":49,"x_max":1014,"o":"m 49 286 q 174 656 49 514 q 539 799 300 799 q 888 673 761 799 q 1014 333 1014 547 q 957 98 1014 190 q 793 6 900 6 q 692 35 732 6 q 643 111 651 64 q 468 10 568 10 q 347 52 400 10 q 294 174 294 94 q 576 350 294 350 l 614 350 l 614 368 q 511 457 614 457 q 421 438 463 457 q 374 418 379 418 q 340 446 354 418 q 325 497 325 474 q 390 569 325 539 q 532 600 454 600 q 697 550 628 600 q 767 411 767 500 l 767 174 q 781 122 772 136 q 806 108 790 108 q 881 299 881 108 q 540 682 881 682 q 183 288 183 682 q 499 -82 183 -82 q 617 -65 563 -82 q 678 -49 671 -49 q 715 -69 701 -49 q 729 -110 729 -90 q 643 -176 729 -154 q 472 -199 557 -199 q 172 -72 296 -199 q 49 286 49 54 m 464 176 q 511 119 464 119 q 586 155 550 119 q 622 233 622 190 l 622 264 l 597 264 q 464 176 464 264 z "},"A":{"ha":818,"x_min":6,"x_max":813,"o":"m 6 89 q 8 104 6 93 l 267 951 q 317 1005 278 986 q 408 1024 357 1024 q 499 1005 460 1024 q 550 951 539 986 l 810 104 q 813 89 813 93 q 767 26 813 53 q 674 0 722 0 q 603 40 614 0 l 556 214 l 263 214 l 215 40 q 144 0 204 0 q 51 26 96 0 q 6 89 6 53 m 307 381 l 510 381 l 408 753 l 307 381 z "},"B":{"ha":794,"x_min":75,"x_max":757,"o":"m 75 65 l 75 949 q 103 998 75 981 q 169 1015 131 1015 l 454 1015 q 732 768 732 1015 q 614 550 732 601 q 721 474 685 524 q 757 328 757 425 l 757 299 q 681 72 757 143 q 478 0 606 0 l 169 0 q 101 19 126 0 q 75 65 75 39 m 290 189 l 429 189 q 540 317 540 189 l 540 339 q 429 467 540 467 l 290 467 l 290 189 m 290 633 l 436 633 q 494 662 474 633 q 515 729 515 690 q 494 797 515 768 q 436 826 474 826 l 290 826 l 290 633 z "},"C":{"ha":781,"x_min":64,"x_max":746,"o":"m 64 319 l 64 688 q 156 936 64 857 q 397 1015 249 1015 q 648 942 550 1015 q 746 739 746 868 q 721 658 746 679 q 638 636 696 636 q 529 701 533 636 q 406 826 525 826 q 281 688 281 826 l 281 319 q 407 181 281 181 q 472 193 446 181 q 508 231 497 206 q 523 274 519 257 q 529 319 526 290 q 636 385 535 385 q 721 363 696 385 q 746 282 746 342 q 648 69 746 147 q 397 -8 550 -8 q 156 71 249 -8 q 64 319 64 150 z "},"D":{"ha":819,"x_min":75,"x_max":757,"o":"m 75 65 l 75 950 q 101 996 75 976 q 169 1015 128 1015 l 415 1015 q 664 936 571 1015 q 757 688 757 857 l 757 328 q 664 79 757 158 q 415 0 571 0 l 169 0 q 101 19 128 0 q 75 65 75 39 m 292 189 l 415 189 q 540 328 540 189 l 540 688 q 415 826 540 826 l 292 826 l 292 189 z "},"E":{"ha":749,"x_min":75,"x_max":729,"o":"m 75 67 l 75 949 q 103 998 75 981 q 169 1015 131 1015 l 664 1015 q 713 988 696 1015 q 729 922 729 960 q 712 854 729 882 q 664 826 694 826 l 292 826 l 292 592 l 500 592 q 548 567 531 592 q 565 507 565 542 q 549 450 565 475 q 500 425 532 425 l 292 425 l 292 189 l 664 189 q 712 161 694 189 q 729 93 729 133 q 713 28 729 56 q 664 0 696 0 l 169 0 q 103 17 131 0 q 75 67 75 35 z "},"F":{"ha":715,"x_min":75,"x_max":717,"o":"m 75 67 l 75 949 q 103 998 75 981 q 169 1015 131 1015 l 651 1015 q 700 988 683 1015 q 717 922 717 960 q 699 854 717 882 q 651 826 682 826 l 292 826 l 292 592 l 501 592 q 549 567 532 592 q 567 507 567 542 q 550 450 567 475 q 501 425 533 425 l 292 425 l 292 67 q 260 17 292 35 q 183 0 228 0 q 107 17 139 0 q 75 67 75 35 z "},"G":{"ha":796,"x_min":64,"x_max":746,"o":"m 64 319 l 64 688 q 156 936 64 857 q 397 1015 249 1015 q 648 942 550 1015 q 746 739 746 868 q 721 658 746 679 q 638 636 696 636 q 529 701 531 636 q 528 734 529 721 q 519 767 526 747 q 500 797 513 786 q 463 817 488 808 q 406 826 439 826 q 281 688 281 826 l 281 319 q 404 181 281 181 q 529 319 529 181 l 529 367 l 447 367 q 399 391 417 367 q 382 450 382 415 q 400 508 382 482 q 447 533 418 533 l 681 533 q 728 513 711 533 q 746 465 746 493 l 746 319 q 653 71 746 150 q 404 -8 560 -8 q 157 71 250 -8 q 64 319 64 150 z "},"H":{"ha":860,"x_min":75,"x_max":785,"o":"m 75 67 l 75 950 q 107 999 75 982 q 183 1015 139 1015 q 260 999 228 1015 q 292 950 292 982 l 292 610 l 568 610 l 568 950 q 600 999 568 982 q 676 1015 632 1015 q 753 999 721 1015 q 785 950 785 982 l 785 67 q 753 17 785 35 q 676 0 721 0 q 600 17 632 0 q 568 67 568 35 l 568 443 l 292 443 l 292 67 q 260 17 292 35 q 183 0 228 0 q 107 17 139 0 q 75 67 75 35 z "},"I":{"ha":367,"x_min":75,"x_max":292,"o":"m 75 67 l 75 950 q 107 999 75 982 q 183 1015 139 1015 q 260 999 228 1015 q 292 950 292 982 l 292 67 q 260 17 292 35 q 183 0 228 0 q 107 17 139 0 q 75 67 75 35 z "},"J":{"ha":761,"x_min":8,"x_max":690,"o":"m 8 282 q 33 363 8 342 q 118 385 58 385 q 225 319 219 385 q 231 274 228 290 q 246 231 235 257 q 283 193 257 206 q 347 181 308 181 q 474 319 474 181 l 474 826 l 353 826 q 305 854 322 826 q 288 922 288 882 q 304 988 288 960 q 353 1015 321 1015 l 596 1015 q 663 998 635 1015 q 690 949 690 981 l 690 319 q 598 71 690 150 q 357 -8 506 -8 q 106 69 204 -8 q 8 282 8 147 z "},"K":{"ha":786,"x_min":75,"x_max":793,"o":"m 75 67 l 75 950 q 107 999 75 982 q 183 1015 139 1015 q 260 999 228 1015 q 292 950 292 982 l 292 617 l 551 985 q 608 1015 572 1015 q 694 980 651 1015 q 736 904 736 944 q 722 863 736 882 l 494 576 l 782 136 q 793 100 793 118 q 751 26 793 60 q 663 -8 710 -8 q 588 32 613 -8 l 350 393 l 292 318 l 292 67 q 260 17 292 35 q 183 0 228 0 q 107 17 139 0 q 75 67 75 35 z "},"L":{"ha":683,"x_min":75,"x_max":671,"o":"m 75 67 l 75 950 q 107 999 75 982 q 183 1015 139 1015 q 260 999 228 1015 q 292 950 292 982 l 292 189 l 608 189 q 654 161 638 189 q 671 94 671 133 q 654 28 671 56 q 608 0 638 0 l 169 0 q 103 17 131 0 q 75 67 75 35 z "},"M":{"ha":989,"x_min":75,"x_max":914,"o":"m 75 67 l 75 907 q 106 989 75 963 q 183 1015 138 1015 q 278 997 246 1015 q 351 907 311 978 l 494 657 l 638 907 q 710 997 678 978 q 806 1015 743 1015 q 883 989 851 1015 q 914 907 914 963 l 914 67 q 882 17 914 35 q 806 0 850 0 q 729 17 761 0 q 697 67 697 35 l 697 588 l 564 360 q 492 319 540 319 q 424 360 444 319 l 292 601 l 292 67 q 260 17 292 35 q 183 0 228 0 q 107 17 139 0 q 75 67 75 35 z "},"N":{"ha":860,"x_min":75,"x_max":785,"o":"m 75 67 l 75 949 q 107 998 75 981 q 183 1015 139 1015 q 276 997 246 1015 q 343 907 306 979 l 568 478 l 568 950 q 600 999 568 982 q 676 1015 632 1015 q 753 999 721 1015 q 785 950 785 982 l 785 67 q 753 17 785 35 q 676 0 721 0 q 556 58 588 0 l 292 539 l 292 67 q 260 17 292 35 q 183 0 228 0 q 107 17 139 0 q 75 67 75 35 z "},"O":{"ha":810,"x_min":64,"x_max":746,"o":"m 64 319 l 64 688 q 157 936 64 857 q 404 1015 250 1015 q 653 936 560 1015 q 746 688 746 857 l 746 319 q 653 71 746 150 q 404 -8 560 -8 q 157 71 250 -8 q 64 319 64 150 m 281 319 q 404 181 281 181 q 529 319 529 181 l 529 688 q 404 826 529 826 q 281 688 281 826 l 281 319 z "},"P":{"ha":790,"x_min":75,"x_max":771,"o":"m 75 67 l 75 950 q 97 996 75 976 q 156 1015 119 1015 l 443 1015 q 681 938 592 1015 q 771 696 771 861 l 771 689 q 677 445 771 524 q 429 367 583 367 l 292 367 l 292 67 q 260 17 292 35 q 183 0 228 0 q 107 17 139 0 q 75 67 75 35 m 292 533 l 429 533 q 554 672 554 533 l 554 688 q 429 826 554 826 l 292 826 l 292 533 z "},"Q":{"ha":810,"x_min":64,"x_max":746,"o":"m 64 319 l 64 688 q 156 937 64 858 q 404 1015 249 1015 q 653 937 560 1015 q 746 688 746 858 l 746 319 q 672 90 746 169 q 471 -4 597 11 l 471 -85 q 451 -134 471 -117 q 404 -151 431 -151 q 358 -134 378 -151 q 338 -85 338 -117 l 338 -4 q 138 90 211 11 q 64 319 64 168 m 281 319 q 338 194 281 226 l 338 256 q 357 304 338 288 q 404 321 376 321 q 451 304 432 321 q 471 256 471 288 l 471 194 q 529 319 529 228 l 529 688 q 404 826 529 826 q 281 688 281 826 l 281 319 z "},"R":{"ha":811,"x_min":75,"x_max":779,"o":"m 75 67 l 75 950 q 94 996 75 976 q 142 1015 113 1015 l 429 1015 q 771 718 771 1015 q 603 436 771 501 l 772 129 q 779 104 779 119 q 735 28 779 64 q 643 -8 692 -8 q 574 32 594 -8 l 383 401 l 292 401 l 292 67 q 260 17 292 35 q 183 0 228 0 q 107 17 139 0 q 75 67 75 35 m 292 568 l 429 568 q 522 598 490 568 q 554 697 554 628 q 522 797 554 767 q 429 826 490 826 l 292 826 l 292 568 z "},"S":{"ha":740,"x_min":26,"x_max":708,"o":"m 26 167 q 55 244 26 206 q 121 283 83 283 q 167 267 142 283 q 215 232 193 251 q 275 197 236 213 q 357 181 314 181 q 451 203 411 181 q 492 272 492 226 q 447 353 492 318 q 337 416 401 388 q 207 480 272 444 q 97 581 142 515 q 51 736 51 646 q 156 952 51 881 q 407 1024 260 1024 q 483 1019 443 1024 q 572 1003 522 1015 q 652 965 621 992 q 683 901 683 939 q 660 826 683 865 q 597 788 638 788 q 526 814 581 788 q 407 840 472 840 q 303 816 338 840 q 268 757 268 792 q 301 699 268 725 q 382 653 333 672 q 488 605 431 635 q 594 540 546 575 q 676 440 643 504 q 708 294 708 376 q 613 67 708 149 q 361 -14 517 -14 q 126 42 226 -14 q 26 167 26 97 z "},"T":{"ha":753,"x_min":11,"x_max":742,"o":"m 11 919 q 28 987 11 958 q 76 1015 44 1015 l 676 1015 q 725 987 708 1015 q 742 919 742 958 q 724 849 742 878 q 676 821 707 821 l 485 821 l 485 67 q 453 17 485 35 q 376 0 421 0 q 300 17 332 0 q 268 67 268 35 l 268 821 l 76 821 q 28 849 46 821 q 11 919 11 878 z "},"U":{"ha":842,"x_min":71,"x_max":771,"o":"m 71 319 l 71 950 q 102 999 71 982 q 179 1015 133 1015 q 256 999 224 1015 q 288 950 288 982 l 288 319 q 421 181 288 181 q 554 319 554 181 l 554 950 q 585 999 554 982 q 663 1015 617 1015 q 739 999 707 1015 q 771 950 771 982 l 771 319 q 675 71 771 150 q 421 -8 579 -8 q 166 71 261 -8 q 71 319 71 150 z "},"V":{"ha":818,"x_min":6,"x_max":813,"o":"m 6 926 q 51 989 6 963 q 144 1015 96 1015 q 215 975 204 1015 l 410 263 l 603 975 q 674 1015 614 1015 q 767 989 722 1015 q 813 926 813 963 q 810 911 813 922 l 551 64 q 501 10 540 29 q 410 -8 461 -8 q 319 10 358 -8 q 268 64 279 29 l 8 911 q 6 926 6 922 z "},"W":{"ha":1278,"x_min":4,"x_max":1274,"o":"m 4 929 q 49 989 4 963 q 144 1015 94 1015 q 214 975 203 1015 l 425 263 l 535 732 q 571 774 540 758 q 639 789 601 789 q 707 774 676 789 q 743 732 738 758 l 853 263 l 1064 975 q 1133 1015 1075 1015 q 1228 989 1183 1015 q 1274 929 1274 963 q 1271 911 1274 919 l 994 64 q 942 10 982 29 q 851 -8 903 -8 q 760 10 800 -8 q 711 64 719 29 l 639 393 l 567 64 q 518 10 558 29 q 426 -8 478 -8 q 335 10 375 -8 q 283 64 294 29 l 7 911 q 4 929 4 919 z "},"X":{"ha":819,"x_min":11,"x_max":808,"o":"m 11 99 q 24 138 11 117 l 264 508 l 33 878 q 19 921 19 900 q 65 993 19 963 q 160 1024 111 1024 q 225 988 206 1024 l 410 665 l 594 988 q 660 1024 614 1024 q 754 993 708 1024 q 800 921 800 963 q 786 878 800 900 l 556 508 l 796 138 q 808 99 808 117 q 760 24 808 57 q 664 -8 713 -8 q 613 14 625 -8 l 410 358 l 207 14 q 156 -8 193 -8 q 59 24 107 -8 q 11 99 11 57 z "},"Y":{"ha":819,"x_min":6,"x_max":813,"o":"m 6 926 q 55 989 6 963 q 153 1015 104 1015 q 190 1006 178 1015 q 215 975 203 997 l 410 618 l 603 975 q 665 1015 624 1015 q 763 989 714 1015 q 813 926 813 963 q 810 911 813 917 l 524 435 q 518 415 518 426 l 518 67 q 486 17 518 35 q 410 0 454 0 q 333 17 365 0 q 301 67 301 35 l 301 415 q 296 435 301 426 l 8 911 q 6 926 6 917 z "},"Z":{"ha":744,"x_min":13,"x_max":732,"o":"m 13 57 q 36 133 13 93 l 428 826 l 106 826 q 58 854 75 826 q 40 921 40 882 q 57 988 40 960 q 106 1015 74 1015 l 642 1015 q 704 958 704 1015 q 681 882 704 925 l 289 189 l 667 189 q 714 160 696 189 q 732 94 732 131 q 714 29 732 58 q 667 0 696 0 l 75 0 q 13 57 13 0 z "},"[":{"ha":493,"x_min":69,"x_max":474,"o":"m 69 38 l 69 1000 q 97 1049 69 1032 q 164 1067 125 1067 l 408 1067 q 457 1039 440 1067 q 474 974 474 1011 q 456 906 474 933 q 408 878 439 878 l 286 878 l 286 160 l 408 160 q 456 132 439 160 q 474 64 474 104 q 457 -1 474 26 q 408 -29 440 -29 l 164 -29 q 97 -12 125 -29 q 69 38 69 6 z "},"\\":{"ha":531,"x_min":25,"x_max":504,"o":"m 25 978 q 49 1027 25 1006 q 106 1049 72 1049 q 168 1007 153 1049 l 501 93 q 504 74 504 86 q 481 22 504 44 q 426 -1 457 -1 q 363 43 379 -1 l 29 957 q 25 978 25 967 z "},"]":{"ha":493,"x_min":19,"x_max":424,"o":"m 19 64 q 37 132 19 104 q 85 160 54 160 l 207 160 l 207 878 l 85 878 q 37 906 54 878 q 19 974 19 933 q 36 1039 19 1011 q 85 1067 53 1067 l 329 1067 q 396 1049 368 1067 q 424 1000 424 1032 l 424 38 q 396 -12 424 6 q 329 -29 368 -29 l 85 -29 q 36 -1 53 -29 q 19 64 19 26 z "},"^":{"ha":406,"x_min":0,"x_max":406,"o":"m 0 854 q 35 915 0 896 l 179 993 q 203 1000 193 1000 q 226 993 213 1000 l 371 915 q 406 854 406 896 q 393 810 406 829 q 363 790 381 790 q 347 794 356 790 l 203 872 l 58 794 q 43 790 50 790 q 13 810 25 790 q 0 854 0 829 z "},"_":{"ha":425,"x_min":-75,"x_max":501,"o":"m -75 -89 q -57 -26 -75 -51 q -10 0 -39 0 l 435 0 q 481 -26 461 0 q 501 -89 501 -53 q 481 -151 501 -126 q 435 -176 461 -176 l -10 -176 q -57 -152 -39 -176 q -75 -89 -75 -128 z "},"`":{"ha":307,"x_min":0,"x_max":307,"o":"m 0 919 q 19 974 0 949 q 65 1000 39 1000 q 85 996 75 1000 l 279 906 q 307 857 307 892 q 288 802 307 828 q 243 776 269 776 q 222 782 236 776 l 28 872 q 0 919 0 886 z "},"a":{"ha":672,"x_min":25,"x_max":615,"o":"m 25 171 q 109 333 25 286 q 350 381 193 381 l 400 381 l 400 394 q 375 467 400 436 q 296 497 350 497 q 186 474 229 497 q 133 451 143 451 q 81 484 100 451 q 61 558 61 517 q 138 637 61 604 q 299 669 215 669 q 537 592 458 669 q 615 397 615 514 l 615 67 q 585 19 615 39 q 510 0 556 0 q 442 19 469 0 q 414 67 414 39 l 414 97 q 203 -14 318 -14 q 76 33 126 -14 q 25 171 25 81 m 242 201 q 296 143 242 143 q 365 182 331 143 q 400 271 400 221 l 400 276 l 394 276 q 319 272 349 276 q 265 251 289 268 q 242 201 242 233 z "},"b":{"ha":740,"x_min":64,"x_max":701,"o":"m 64 67 l 64 974 q 94 1021 64 1003 q 169 1039 124 1039 q 248 1021 217 1039 q 279 974 279 1003 l 279 564 q 349 639 303 608 q 456 669 396 669 q 629 583 557 669 q 701 378 701 497 l 701 281 q 628 75 701 164 q 460 -14 556 -14 q 342 19 396 -14 q 265 97 288 51 l 265 67 q 237 21 265 42 q 169 0 208 0 q 94 20 125 0 q 64 67 64 40 m 279 263 q 313 207 279 240 q 386 174 346 174 q 456 206 426 174 q 486 281 486 239 l 486 378 q 456 450 486 418 q 385 482 426 482 q 312 453 344 482 q 279 378 279 424 l 279 263 z "},"c":{"ha":614,"x_min":39,"x_max":594,"o":"m 39 281 l 39 375 q 117 588 39 507 q 351 669 196 669 q 519 635 451 669 q 586 554 586 601 q 562 484 586 519 q 503 449 538 449 q 452 465 492 449 q 369 482 413 482 q 254 375 254 482 l 254 281 q 371 174 254 174 q 451 192 413 174 q 503 211 489 211 q 569 178 543 211 q 594 108 594 144 q 524 23 594 60 q 354 -14 453 -14 q 117 67 196 -14 q 39 281 39 147 z "},"d":{"ha":740,"x_min":39,"x_max":676,"o":"m 39 281 l 39 378 q 111 583 39 497 q 285 669 183 669 q 391 639 344 669 q 461 564 438 608 l 461 974 q 492 1021 461 1003 q 571 1039 524 1039 q 647 1021 617 1039 q 676 974 676 1003 l 676 67 q 646 20 676 40 q 571 0 615 0 q 503 21 532 0 q 475 67 475 42 l 475 97 q 399 19 453 51 q 281 -14 344 -14 q 112 75 185 -14 q 39 281 39 164 m 254 281 q 284 206 254 239 q 354 174 314 174 q 428 207 394 174 q 461 263 461 240 l 461 378 q 428 453 461 424 q 356 482 396 482 q 284 450 314 482 q 254 378 254 418 l 254 281 z "},"e":{"ha":689,"x_min":38,"x_max":656,"o":"m 38 281 l 38 382 q 131 585 38 500 q 357 669 225 669 q 568 595 481 669 q 656 406 656 521 q 644 333 656 361 q 611 294 633 306 q 570 280 589 283 q 521 276 551 276 l 253 276 l 253 268 q 292 185 253 217 q 394 154 331 154 q 497 180 443 154 q 568 206 550 206 q 625 173 603 206 q 647 111 647 140 q 573 27 647 68 q 389 -14 499 -14 q 135 67 233 -14 q 38 281 38 149 m 253 397 l 425 397 q 454 431 454 397 q 424 492 454 469 q 353 514 394 514 q 283 492 313 514 q 253 431 253 469 l 253 397 z "},"f":{"ha":492,"x_min":64,"x_max":489,"o":"m 64 65 l 64 760 q 135 959 64 879 q 308 1039 207 1039 l 408 1039 q 468 1012 447 1039 q 489 949 489 985 q 468 885 489 911 q 408 858 447 858 l 356 858 q 279 783 279 858 l 279 661 l 436 661 q 475 638 461 661 q 489 585 489 615 q 475 531 489 553 q 436 508 461 508 l 279 508 l 279 65 q 247 19 279 38 q 169 0 214 0 q 94 18 124 0 q 64 65 64 36 z "},"g":{"ha":664,"x_min":17,"x_max":647,"o":"m 17 -100 q 110 44 17 -8 q 60 131 60 74 q 131 243 60 192 q 40 419 40 310 l 40 440 q 119 606 40 542 q 325 669 197 669 q 482 636 413 669 q 524 713 506 693 q 561 733 542 733 q 620 712 597 733 q 643 669 643 690 q 621 628 643 647 l 593 606 q 561 578 572 589 q 614 440 614 521 l 614 419 q 533 253 614 319 q 325 188 451 188 q 242 196 279 188 q 236 178 236 186 q 278 149 236 158 q 381 131 321 139 q 502 106 442 122 q 605 44 563 90 q 647 -75 647 -1 q 556 -245 647 -189 q 333 -301 464 -301 q 110 -247 203 -301 q 17 -100 17 -193 m 219 -78 q 252 -142 219 -118 q 329 -165 285 -165 q 406 -142 374 -165 q 439 -81 439 -118 q 426 -42 439 -57 q 388 -17 414 -26 q 338 -3 363 -8 q 275 6 314 1 q 219 -78 219 -24 m 249 421 q 269 343 249 374 q 328 313 290 313 q 385 342 364 313 q 406 419 406 372 l 406 440 q 385 515 406 485 q 326 544 364 544 q 269 515 290 544 q 249 440 249 485 l 249 421 z "},"h":{"ha":743,"x_min":64,"x_max":688,"o":"m 64 67 l 64 974 q 94 1021 64 1003 q 171 1039 124 1039 q 247 1021 215 1039 q 279 974 279 1003 l 279 564 q 345 639 300 608 q 451 669 390 669 q 617 583 547 669 q 688 378 688 497 l 688 67 q 656 17 688 35 q 579 0 624 0 q 505 18 538 0 q 472 67 472 36 l 472 378 q 442 450 472 418 q 372 482 413 482 q 308 453 336 482 q 279 378 279 425 l 279 67 q 247 21 279 42 q 171 0 214 0 q 94 20 125 0 q 64 67 64 40 z "},"i":{"ha":339,"x_min":56,"x_max":282,"o":"m 89 819 q 72 834 89 819 q 56 889 56 849 q 89 958 56 929 q 169 988 122 988 q 249 958 215 988 q 282 889 282 929 q 249 819 282 849 q 169 789 215 789 q 89 819 122 789 m 63 67 l 63 596 q 92 643 63 625 q 169 661 122 661 q 247 643 215 661 q 278 596 278 625 l 278 67 q 246 21 278 42 q 169 0 214 0 q 93 20 124 0 q 63 67 63 40 z "},"j":{"ha":340,"x_min":-56,"x_max":282,"o":"m -56 -214 q -33 -147 -56 -172 q 25 -121 -10 -121 q 56 -101 49 -121 q 63 -39 63 -81 l 63 596 q 92 643 63 625 q 168 661 122 661 q 247 643 215 661 q 278 596 278 625 l 278 -39 q 219 -229 278 -157 q 57 -301 161 -301 q -56 -214 -56 -301 m 89 819 q 72 834 89 819 q 56 889 56 849 q 89 958 56 929 q 169 988 122 988 q 249 958 215 988 q 282 889 282 929 q 249 819 282 849 q 169 789 215 789 q 89 819 122 789 z "},"k":{"ha":707,"x_min":64,"x_max":693,"o":"m 64 67 l 64 974 q 94 1021 64 1003 q 169 1039 124 1039 q 248 1021 217 1039 q 279 974 279 1003 l 279 429 l 510 653 q 551 669 526 669 q 621 635 586 669 q 656 567 656 601 q 639 529 656 546 l 492 393 l 682 126 q 693 93 693 108 q 651 22 693 57 q 569 -14 610 -14 q 518 13 536 -14 l 350 261 l 279 196 l 279 67 q 247 21 279 42 q 169 0 214 0 q 94 20 125 0 q 64 67 64 40 z "},"l":{"ha":365,"x_min":75,"x_max":290,"o":"m 75 67 l 75 974 q 105 1021 75 1003 q 182 1039 135 1039 q 259 1021 228 1039 q 290 974 290 1003 l 290 67 q 258 21 290 42 q 182 0 226 0 q 106 20 136 0 q 75 67 75 40 z "},"m":{"ha":1129,"x_min":63,"x_max":1072,"o":"m 63 67 l 63 596 q 92 643 63 625 q 169 661 122 661 q 236 643 208 661 q 264 596 264 625 l 264 564 q 447 669 324 669 q 547 631 503 669 q 611 531 590 593 q 701 634 646 599 q 819 669 757 669 q 998 590 924 669 q 1072 378 1072 511 l 1072 67 q 1040 21 1072 42 q 964 0 1008 0 q 890 21 922 0 q 857 67 857 42 l 857 378 q 829 456 857 428 q 764 483 801 483 q 701 456 728 483 q 675 378 675 428 l 675 65 q 643 17 675 33 q 567 0 611 0 q 492 17 525 0 q 460 65 460 33 l 460 376 q 431 453 460 425 q 365 482 403 482 q 303 455 329 482 q 278 378 278 428 l 278 67 q 245 21 278 42 q 169 0 213 0 q 93 20 124 0 q 63 67 63 40 z "},"n":{"ha":742,"x_min":63,"x_max":686,"o":"m 63 67 l 63 596 q 92 643 63 625 q 169 661 122 661 q 236 643 208 661 q 264 596 264 625 l 264 564 q 335 639 286 608 q 450 669 385 669 q 616 583 546 669 q 686 378 686 497 l 686 67 q 654 17 686 35 q 578 0 622 0 q 503 18 536 0 q 471 67 471 36 l 471 378 q 441 450 471 418 q 371 482 411 482 q 306 453 335 482 q 278 378 278 425 l 278 67 q 245 21 278 42 q 169 0 213 0 q 93 20 124 0 q 63 67 63 40 z "},"o":{"ha":707,"x_min":38,"x_max":669,"o":"m 38 281 l 38 378 q 131 583 38 496 q 353 669 224 669 q 575 583 481 669 q 669 378 669 497 l 669 281 q 574 75 669 164 q 353 -14 479 -14 q 132 75 226 -14 q 38 281 38 164 m 253 281 q 282 206 253 239 q 353 174 311 174 q 424 206 394 174 q 454 281 454 239 l 454 378 q 424 450 454 418 q 353 482 393 482 q 283 450 313 482 q 253 378 253 418 l 253 281 z "},"p":{"ha":740,"x_min":64,"x_max":701,"o":"m 64 -235 l 64 596 q 94 643 64 625 q 167 661 124 661 q 238 643 210 661 q 265 596 265 625 l 265 564 q 342 639 292 608 q 453 669 392 669 q 629 584 557 669 q 701 378 701 499 l 701 281 q 628 75 701 164 q 460 -14 556 -14 q 351 19 401 -14 q 279 97 300 51 l 279 -235 q 247 -281 279 -260 q 169 -301 214 -301 q 94 -281 125 -301 q 64 -235 64 -261 m 279 263 q 310 207 279 240 q 383 174 342 174 q 455 206 424 174 q 486 281 486 239 l 486 378 q 455 450 486 418 q 381 482 424 482 q 310 453 340 482 q 279 378 279 425 l 279 263 z "},"q":{"ha":740,"x_min":39,"x_max":676,"o":"m 39 281 l 39 378 q 111 584 39 499 q 288 669 183 669 q 399 639 349 669 q 475 564 449 608 l 475 596 q 503 643 475 625 q 574 661 531 661 q 647 643 617 661 q 676 596 676 625 l 676 -235 q 646 -281 676 -261 q 571 -301 615 -301 q 494 -281 526 -301 q 461 -235 461 -260 l 461 97 q 390 19 440 51 q 281 -14 339 -14 q 112 75 185 -14 q 39 281 39 164 m 254 281 q 285 206 254 239 q 357 174 317 174 q 430 207 399 174 q 461 263 461 240 l 461 378 q 431 453 461 425 q 360 482 400 482 q 285 450 317 482 q 254 378 254 418 l 254 281 z "},"r":{"ha":547,"x_min":63,"x_max":546,"o":"m 63 67 l 63 596 q 92 643 63 625 q 168 661 122 661 q 236 643 208 661 q 264 596 264 625 l 264 544 q 333 632 286 594 q 429 669 379 669 l 469 669 q 523 642 500 669 q 546 576 546 614 q 523 510 546 538 q 469 482 500 482 l 429 482 q 324 424 369 482 q 278 275 278 367 l 278 67 q 245 21 278 42 q 168 0 213 0 q 93 20 124 0 q 63 67 63 40 z "},"s":{"ha":596,"x_min":29,"x_max":561,"o":"m 29 114 q 50 176 29 143 q 100 208 71 208 q 141 193 117 208 q 202 162 165 178 q 288 146 239 146 q 374 192 374 146 q 340 233 374 217 q 259 260 307 249 q 163 289 211 271 q 82 349 115 307 q 49 456 49 390 q 111 607 49 544 q 310 669 174 669 q 474 641 403 669 q 546 569 546 613 q 524 505 546 542 q 468 468 501 468 q 404 489 454 468 q 313 510 354 510 q 253 497 274 510 q 233 465 233 483 q 267 432 233 444 q 349 408 301 419 q 445 377 397 396 q 527 313 493 358 q 561 200 561 268 q 491 43 561 100 q 293 -14 421 -14 q 107 24 185 -14 q 29 114 29 63 z "},"t":{"ha":506,"x_min":60,"x_max":485,"o":"m 60 235 l 60 883 q 93 930 60 911 q 167 949 126 949 q 242 930 210 949 q 275 883 275 911 l 275 661 l 432 661 q 471 638 457 661 q 485 585 485 615 q 471 531 485 553 q 432 508 457 508 l 275 508 l 275 235 q 288 192 275 204 q 332 181 300 181 l 392 181 q 460 153 436 181 q 483 90 483 126 q 460 26 483 53 q 392 0 436 0 l 332 0 q 60 235 60 0 z "},"u":{"ha":743,"x_min":56,"x_max":688,"o":"m 56 278 l 56 594 q 88 640 56 619 q 164 661 119 661 q 238 640 206 661 q 271 594 271 619 l 271 278 q 301 206 271 238 q 372 174 332 174 q 442 206 413 174 q 472 278 472 238 l 472 596 q 505 642 472 622 q 581 661 538 661 q 657 642 626 661 q 688 596 688 622 l 688 278 q 594 74 688 161 q 372 -14 500 -14 q 149 74 243 -14 q 56 278 56 161 z "},"v":{"ha":699,"x_min":1,"x_max":697,"o":"m 1 581 q 51 643 1 615 q 147 671 101 671 q 207 636 193 671 l 350 274 l 493 636 q 551 671 507 671 q 644 642 590 671 q 697 579 697 614 q 692 554 697 567 l 447 19 q 350 -18 431 -18 q 253 19 269 -18 l 8 554 q 1 581 1 565 z "},"w":{"ha":975,"x_min":3,"x_max":971,"o":"m 3 583 q 51 644 3 618 q 144 669 99 669 q 204 636 193 669 l 328 283 l 417 582 q 488 624 429 624 q 558 582 546 624 l 647 283 l 771 636 q 829 669 782 669 q 923 643 875 669 q 971 581 971 617 q 965 554 971 565 l 751 19 q 668 -18 736 -18 q 579 19 593 -18 l 488 261 l 396 19 q 306 -18 382 -18 q 224 19 239 -18 l 10 554 q 3 583 3 572 z "},"x":{"ha":685,"x_min":25,"x_max":660,"o":"m 25 93 q 38 129 25 111 l 194 338 l 53 526 q 39 561 39 544 q 90 633 39 596 q 185 669 142 669 q 231 647 217 669 l 342 465 l 454 646 q 503 669 468 669 q 594 633 543 669 q 646 561 646 596 q 632 526 646 546 l 489 336 l 647 129 q 660 93 660 114 q 610 23 660 60 q 518 -14 561 -14 q 469 8 485 -14 l 342 200 l 215 8 q 164 -14 199 -14 q 76 22 128 -14 q 25 93 25 58 z "},"y":{"ha":689,"x_min":1,"x_max":683,"o":"m 1 -210 q 54 -121 1 -121 q 251 57 251 -121 l 8 540 q 1 568 1 554 q 51 639 1 607 q 147 671 101 671 q 207 636 193 671 l 364 260 l 479 636 q 535 671 493 671 q 631 638 578 671 q 683 564 683 606 q 678 540 683 550 l 481 49 q 456 -17 474 29 l 431 -81 q 405 -138 424 -101 q 370 -193 386 -175 q 326 -236 354 -211 q 268 -272 299 -261 q 194 -292 238 -283 q 100 -301 151 -301 q 26 -283 51 -301 q 1 -210 1 -265 z "},"z":{"ha":622,"x_min":25,"x_max":603,"o":"m 25 75 q 63 164 25 115 l 308 488 l 96 488 q 53 513 71 488 q 35 575 35 539 q 51 636 35 611 q 96 661 68 661 l 511 661 q 558 643 539 661 q 578 590 578 625 q 543 497 578 543 l 296 174 l 542 174 q 585 148 567 174 q 603 86 603 122 q 586 25 603 50 q 542 0 569 0 l 96 0 q 42 22 60 0 q 25 75 25 44 z "},"{":{"ha":528,"x_min":24,"x_max":511,"o":"m 37 485 q 30 495 37 485 q 24 538 24 504 q 37 588 24 571 q 65 610 50 606 q 94 624 81 614 q 107 651 107 633 q 97 731 107 664 q 86 824 86 799 q 182 992 86 917 q 390 1067 278 1067 q 483 1040 456 1067 q 511 972 511 1013 q 494 912 511 939 q 446 885 476 885 q 351 864 399 885 q 303 794 303 843 q 313 709 303 778 q 324 624 324 640 q 306 566 324 594 q 274 533 288 538 q 307 502 290 529 q 324 444 324 475 q 313 333 324 426 q 303 228 303 240 q 349 172 303 189 q 446 154 396 154 q 496 126 481 154 q 511 64 511 97 q 388 -28 511 -28 q 179 38 272 -28 q 86 200 86 104 q 97 316 86 226 q 107 418 107 406 q 94 448 107 438 q 65 463 81 458 q 37 485 50 467 z "},"|":{"ha":354,"x_min":69,"x_max":285,"o":"m 69 38 l 69 1001 q 99 1049 69 1031 q 176 1067 129 1067 q 253 1049 222 1067 q 285 1001 285 1031 l 285 38 q 253 -8 285 13 q 176 -29 221 -29 q 100 -9 131 -29 q 69 38 69 11 z "},"}":{"ha":528,"x_min":17,"x_max":504,"o":"m 17 64 q 32 126 17 97 q 82 154 47 154 q 178 172 132 154 q 225 228 225 189 q 215 333 225 240 q 204 444 204 426 q 221 502 204 475 q 254 533 238 529 q 222 566 240 538 q 204 624 204 594 q 215 709 204 640 q 225 794 225 778 q 177 864 225 843 q 82 885 129 885 q 34 912 51 885 q 17 972 17 939 q 44 1040 17 1013 q 138 1067 72 1067 q 346 992 250 1067 q 442 824 442 917 q 431 731 442 799 q 421 651 421 664 q 434 624 421 633 q 463 610 447 614 q 491 588 478 606 q 504 538 504 571 q 491 485 504 504 q 463 463 478 467 q 434 448 447 458 q 421 418 421 438 q 431 316 421 406 q 442 200 442 226 q 349 38 442 104 q 140 -28 256 -28 q 17 64 17 -28 z "},"~":{"ha":571,"x_min":39,"x_max":532,"o":"m 39 343 q 157 444 39 444 q 261 426 200 444 q 360 407 322 407 q 429 422 392 407 q 479 436 467 436 q 519 412 507 436 q 532 368 532 388 q 414 267 532 267 q 301 285 361 267 q 211 304 240 304 q 142 290 179 304 q 92 275 104 275 q 51 299 64 275 q 39 343 39 324 z "}," ":{"ha":278,"x_min":0,"x_max":0,"o":""},"¡":{"ha":318,"x_min":51,"x_max":264,"o":"m 83 833 q 67 849 83 833 q 51 908 51 865 q 83 983 51 951 q 157 1015 114 1015 q 233 983 201 1015 q 264 908 264 951 q 233 833 264 864 q 157 801 203 801 q 83 833 114 801 m 58 76 q 68 360 58 158 q 78 644 78 561 q 103 690 78 674 q 158 706 129 706 q 240 644 240 706 q 250 360 240 561 q 260 76 260 158 q 231 15 260 38 q 158 -8 203 -8 q 87 15 115 -8 q 58 76 58 38 z "},"¢":{"ha":622,"x_min":32,"x_max":588,"o":"m 32 503 l 32 528 q 99 729 32 650 q 301 821 167 808 l 301 910 q 319 950 301 935 q 361 965 336 965 q 404 949 386 965 q 422 910 422 933 l 422 815 q 536 774 493 804 q 579 707 579 743 q 555 641 579 674 q 496 608 531 608 q 475 613 486 608 q 449 626 464 618 q 422 639 435 635 l 422 393 q 448 408 433 399 q 474 422 463 417 q 496 428 485 428 q 562 397 536 428 q 588 331 588 365 q 541 260 588 293 q 422 214 494 228 l 422 113 q 403 72 422 90 q 361 54 385 54 q 319 72 336 54 q 301 113 301 90 l 301 210 q 99 301 165 222 q 32 503 32 379 m 219 503 q 301 389 219 410 l 301 642 q 219 528 219 621 l 219 503 z "},"£":{"ha":785,"x_min":28,"x_max":742,"o":"m 44 28 q 36 42 44 28 q 28 94 28 56 q 44 161 28 133 q 90 189 61 189 l 160 189 l 204 508 l 139 508 q 100 531 114 508 q 86 585 86 553 q 100 638 86 615 q 139 661 114 661 l 226 661 l 240 757 q 368 979 260 892 q 614 1067 476 1067 l 672 1067 q 723 1039 704 1067 q 742 974 742 1011 q 723 908 742 936 q 672 879 704 879 l 607 879 q 456 757 472 879 l 442 661 l 590 661 q 629 638 615 661 q 643 585 643 615 q 629 531 643 553 q 590 508 615 508 l 419 508 l 374 189 l 679 189 q 725 161 708 189 q 742 94 742 133 q 725 28 742 56 q 679 0 708 0 l 90 0 q 44 28 61 0 z "},"¤":{"ha":611,"x_min":58,"x_max":553,"o":"m 58 465 q 67 483 58 475 l 103 517 q 60 656 60 579 q 103 794 60 732 l 67 828 q 58 846 58 836 q 72 875 58 861 q 101 889 85 889 q 121 882 113 889 l 154 851 q 306 906 222 906 q 457 851 388 906 l 490 882 q 510 889 499 889 q 540 875 526 889 q 553 846 553 861 q 544 828 553 836 l 508 794 q 553 657 553 732 q 508 517 553 581 l 544 483 q 553 465 553 475 q 540 436 553 450 q 510 422 526 422 q 490 429 499 422 l 457 460 q 306 403 389 403 q 154 458 224 403 l 121 429 q 101 422 113 422 q 72 436 85 422 q 58 465 58 450 m 171 656 q 210 558 171 600 q 306 515 250 515 q 401 558 361 515 q 442 654 442 600 q 401 751 442 708 q 306 793 361 793 q 210 751 250 793 q 171 656 171 710 z "},"¥":{"ha":815,"x_min":28,"x_max":788,"o":"m 28 936 q 72 997 28 968 q 158 1025 115 1025 q 191 1013 179 1025 q 217 975 203 1001 l 408 626 l 599 975 q 624 1013 613 1001 q 657 1025 636 1025 q 743 996 699 1025 q 788 938 788 967 q 781 911 788 922 l 564 579 l 632 579 q 678 557 657 579 q 699 504 699 535 q 678 451 699 472 q 632 431 658 431 l 517 431 l 517 347 l 632 347 q 678 325 657 347 q 699 272 699 303 q 678 220 699 242 q 632 199 658 199 l 517 199 l 517 67 q 485 17 517 35 q 408 0 453 0 q 332 17 364 0 q 300 67 300 35 l 300 199 l 188 199 q 140 219 158 199 q 122 271 122 239 q 140 326 122 304 q 188 347 158 347 l 300 347 l 300 431 l 188 431 q 140 451 158 431 q 122 503 122 471 q 140 558 122 536 q 188 579 158 579 l 251 579 l 35 911 q 28 936 28 919 z "},"¦":{"ha":354,"x_min":69,"x_max":285,"o":"m 69 38 l 69 372 q 99 419 69 401 q 176 438 129 438 q 253 419 222 438 q 285 372 285 401 l 285 38 q 253 -8 285 13 q 176 -29 221 -29 q 100 -9 131 -29 q 69 38 69 11 m 69 667 l 69 1001 q 99 1049 69 1031 q 176 1067 129 1067 q 253 1049 222 1067 q 285 1001 285 1031 l 285 667 q 253 621 285 642 q 176 600 221 600 q 100 620 131 600 q 69 667 69 640 z "},"§":{"ha":674,"x_min":53,"x_max":626,"o":"m 53 138 q 75 203 53 185 q 143 221 97 221 q 235 164 235 221 q 318 81 235 81 q 388 101 365 81 q 410 153 410 122 q 373 219 410 192 q 283 269 336 246 q 178 325 231 293 q 90 422 126 357 q 53 579 53 486 l 53 718 q 79 865 53 804 q 150 958 106 926 q 240 1002 194 989 q 336 1015 286 1015 q 530 944 461 1015 q 599 781 599 872 q 579 716 599 733 q 519 699 560 699 q 429 764 429 699 q 343 843 429 843 q 273 820 296 843 q 250 767 250 797 q 289 701 250 728 q 383 650 328 674 q 494 594 439 626 q 588 498 549 563 q 626 340 626 433 l 626 201 q 599 54 626 115 q 524 -38 571 -7 q 430 -83 478 -69 q 329 -96 382 -96 q 126 -24 199 -96 q 53 138 53 47 m 229 533 q 256 457 229 489 q 314 411 282 425 l 390 378 q 453 344 433 360 l 453 369 q 426 446 453 414 q 367 492 400 478 l 292 525 q 229 558 249 543 l 229 533 z "},"¨":{"ha":379,"x_min":0,"x_max":379,"o":"m 24 818 q 12 831 24 818 q 0 875 0 843 q 24 931 0 907 q 79 956 47 956 q 134 931 111 956 q 157 875 157 907 q 134 817 157 842 q 79 793 111 793 q 24 818 47 793 m 246 818 q 234 831 246 818 q 222 875 222 843 q 246 931 222 907 q 301 956 269 956 q 356 931 333 956 q 379 875 379 907 q 356 817 379 842 q 301 793 333 793 q 246 818 269 793 z "},"©":{"ha":944,"x_min":46,"x_max":899,"o":"m 46 497 q 85 698 46 608 q 189 841 125 788 q 327 923 253 894 q 476 951 401 951 q 625 923 551 951 q 760 841 699 894 q 860 699 822 788 q 899 503 899 611 q 859 302 899 392 q 756 159 819 213 q 617 77 692 106 q 468 49 543 49 q 319 77 393 49 q 184 159 246 106 q 84 301 122 213 q 46 497 46 389 m 143 497 q 231 244 143 342 q 468 146 319 146 q 709 244 617 146 q 801 503 801 343 q 713 756 801 658 q 476 854 624 854 q 235 756 328 854 q 143 497 143 657 m 300 419 l 300 600 q 348 738 300 694 q 474 782 396 782 q 603 741 553 782 q 654 629 654 700 q 641 585 654 597 q 599 574 628 574 q 542 610 543 574 q 478 681 538 681 q 413 600 413 681 l 413 419 q 478 339 413 339 q 519 354 504 339 q 537 382 535 369 q 542 418 539 394 q 597 453 543 453 q 641 441 628 453 q 654 397 654 429 q 603 281 654 324 q 474 238 553 238 q 348 281 396 238 q 300 419 300 325 z "},"ª":{"ha":469,"x_min":29,"x_max":424,"o":"m 29 728 q 87 838 29 806 q 250 869 144 869 l 285 869 l 285 879 q 267 932 285 910 q 211 954 249 954 q 137 939 167 954 q 101 924 107 924 q 67 945 81 924 q 54 993 54 967 q 106 1045 54 1024 q 213 1067 157 1067 q 372 1013 319 1067 q 424 881 424 960 l 424 654 q 404 624 424 636 q 356 611 385 611 q 312 624 329 611 q 294 654 294 636 l 294 678 q 193 608 246 622 q 149 603 175 603 q 63 636 97 604 q 29 728 29 668 m 169 747 q 210 704 169 704 q 260 731 236 704 q 285 792 285 757 l 285 800 l 260 800 q 169 747 169 800 z "},"«":{"ha":746,"x_min":29,"x_max":703,"o":"m 33 363 q 31 367 33 363 q 29 383 29 372 q 33 404 29 394 q 50 433 38 414 l 68 467 l 161 640 q 219 667 175 667 q 313 630 271 667 q 356 558 356 593 q 351 539 356 547 l 269 385 l 351 231 q 356 211 356 222 q 313 140 356 176 q 219 103 271 103 q 161 129 175 103 l 68 303 q 49 335 61 317 q 33 363 38 353 m 381 363 q 378 367 381 363 q 376 383 376 372 q 381 404 376 394 q 397 433 385 414 l 415 467 l 508 640 q 567 667 522 667 q 660 630 618 667 q 703 558 703 593 q 699 539 703 547 l 617 385 l 699 231 q 703 211 703 222 q 660 140 703 176 q 567 103 618 103 q 508 129 522 103 l 415 303 q 397 335 408 317 q 381 363 385 353 z "},"¬":{"ha":700,"x_min":36,"x_max":642,"o":"m 36 333 q 54 397 36 371 q 101 422 72 422 l 575 422 q 622 396 601 422 q 642 333 642 369 l 642 154 q 610 108 642 129 q 533 88 578 88 q 457 108 488 88 q 426 154 426 128 l 426 246 l 101 246 q 54 270 72 246 q 36 333 36 294 z "},"­":{"ha":661,"x_min":43,"x_max":619,"o":"m 43 333 q 61 397 43 371 q 108 422 79 422 l 553 422 q 599 396 579 422 q 619 333 619 369 q 599 271 619 296 q 553 246 579 246 l 108 246 q 61 270 79 246 q 43 333 43 294 z "},"®":{"ha":944,"x_min":46,"x_max":899,"o":"m 46 497 q 85 698 46 608 q 189 841 125 788 q 327 923 253 894 q 476 951 401 951 q 625 923 551 951 q 760 841 699 894 q 860 699 822 788 q 899 503 899 611 q 859 302 899 392 q 756 159 819 213 q 617 77 692 106 q 468 49 543 49 q 319 77 393 49 q 184 159 246 106 q 84 301 122 213 q 46 497 46 389 m 143 497 q 231 244 143 342 q 468 146 319 146 q 709 244 617 146 q 801 503 801 343 q 713 756 801 658 q 476 854 624 854 q 235 756 328 854 q 143 497 143 657 m 317 289 l 317 725 q 326 749 317 739 q 351 760 336 760 l 492 760 q 614 724 567 760 q 661 610 661 689 q 574 468 661 503 l 656 318 q 657 308 657 315 q 639 269 657 288 q 600 251 621 251 q 568 275 581 251 l 481 450 l 422 450 l 422 289 q 408 263 422 272 q 372 253 393 253 q 333 263 350 253 q 317 289 317 272 m 422 539 l 492 539 q 557 599 557 539 q 492 667 557 667 l 422 667 l 422 539 z "},"¯":{"ha":410,"x_min":0,"x_max":410,"o":"m 0 901 q 18 951 0 931 q 65 971 36 971 l 343 971 q 390 951 369 971 q 410 901 410 931 q 390 853 410 872 q 343 833 369 833 l 65 833 q 18 852 36 833 q 0 901 0 871 z "},"°":{"ha":540,"x_min":24,"x_max":517,"o":"m 97 640 q 60 678 97 640 q 24 817 24 717 q 97 992 24 917 q 269 1067 169 1067 q 443 993 369 1067 q 517 818 517 919 q 442 640 517 717 q 269 564 368 564 q 97 640 171 564 m 135 817 q 174 719 135 761 q 269 676 214 676 q 365 719 325 676 q 406 815 406 761 q 365 912 406 869 q 269 954 325 954 q 174 913 214 954 q 135 817 135 871 z "},"±":{"ha":657,"x_min":40,"x_max":617,"o":"m 40 118 q 58 181 40 156 q 106 207 76 207 l 550 207 q 597 181 576 207 q 617 118 617 154 q 597 56 617 81 q 550 31 576 31 l 106 31 q 58 55 76 31 q 40 118 40 79 m 40 521 q 58 584 40 558 q 106 610 76 610 l 240 610 l 240 729 q 267 776 240 756 q 329 796 293 796 q 392 776 367 796 q 417 729 417 756 l 417 610 l 550 610 q 597 583 576 610 q 617 521 617 557 q 597 458 617 483 q 550 433 576 433 l 417 433 l 417 313 q 392 265 417 283 q 329 247 368 247 q 266 265 292 247 q 240 313 240 283 l 240 433 l 106 433 q 58 458 76 433 q 40 521 40 482 z "},"²":{"ha":453,"x_min":26,"x_max":426,"o":"m 26 489 l 26 565 q 67 647 26 606 q 156 718 107 689 q 246 783 206 747 q 286 847 286 818 q 272 877 286 864 q 229 890 258 890 q 172 840 172 890 q 152 806 172 821 q 99 790 132 790 q 36 861 36 790 q 93 974 36 932 q 228 1015 150 1015 q 367 972 307 1015 q 426 851 426 929 q 387 748 426 796 q 299 673 347 700 q 212 619 251 646 q 172 574 172 592 l 172 568 l 383 568 q 413 550 400 568 q 425 508 425 532 q 413 466 425 485 q 383 447 400 447 l 88 447 q 47 459 67 447 q 26 489 26 471 z "},"³":{"ha":467,"x_min":21,"x_max":438,"o":"m 21 594 q 35 633 21 624 q 88 643 50 643 q 144 633 129 643 q 158 599 158 624 q 171 574 158 582 q 195 565 183 567 q 228 564 207 564 q 283 576 268 564 q 299 621 299 589 l 299 636 q 280 678 299 668 q 224 688 261 688 q 183 740 183 688 q 224 794 183 793 q 245 797 239 796 q 263 802 251 797 q 278 819 274 807 q 283 851 283 832 q 226 897 283 897 q 195 896 204 897 q 178 888 186 894 q 171 868 171 882 q 106 819 171 819 q 46 830 58 819 q 33 872 33 840 q 80 973 33 931 q 226 1015 126 1015 q 417 874 417 1015 q 400 796 417 832 q 353 747 383 760 q 438 636 438 719 l 438 621 q 378 486 438 529 q 222 443 319 443 q 72 490 122 443 q 21 594 21 536 z "},"´":{"ha":307,"x_min":0,"x_max":307,"o":"m 0 857 q 28 906 0 892 l 222 996 q 242 1000 233 1000 q 288 974 268 1000 q 307 919 307 949 q 279 872 307 886 l 85 782 q 64 776 71 776 q 19 802 38 776 q 0 857 0 828 z "},"µ":{"ha":735,"x_min":71,"x_max":703,"o":"m 71 -235 l 71 594 q 103 640 71 619 q 179 661 135 661 q 253 640 221 661 q 286 594 286 619 l 286 278 q 317 206 286 238 q 388 174 347 174 q 458 206 428 174 q 488 278 488 238 l 488 596 q 520 642 488 622 q 596 661 553 661 q 672 642 642 661 q 703 596 703 622 l 703 278 q 610 74 703 161 q 388 -14 517 -14 q 258 26 321 -14 l 258 -235 q 234 -281 258 -260 q 176 -301 210 -301 q 101 -281 132 -301 q 71 -235 71 -261 z "},"¶":{"ha":794,"x_min":31,"x_max":713,"o":"m 31 713 l 31 729 q 105 947 31 878 q 303 1015 179 1015 l 646 1015 q 692 998 672 1015 q 713 949 713 981 l 713 65 q 693 17 713 33 q 646 0 674 0 q 599 17 618 0 q 579 65 579 33 l 579 924 l 461 924 l 461 67 q 442 17 461 35 q 394 0 422 0 q 347 17 367 0 q 328 67 328 35 l 328 425 l 303 425 q 105 494 179 425 q 31 713 31 564 z "},"·":{"ha":296,"x_min":35,"x_max":261,"o":"m 68 347 q 51 361 68 347 q 35 417 35 376 q 68 486 35 457 q 149 515 101 515 q 228 486 194 515 q 261 417 261 457 q 228 347 261 376 q 149 317 194 317 q 68 347 101 317 z "},"¸":{"ha":276,"x_min":0,"x_max":276,"o":"m 0 -261 q 10 -225 0 -247 q 36 -203 19 -203 q 67 -212 42 -203 q 117 -222 92 -222 q 181 -179 181 -222 q 121 -132 181 -137 l 35 -124 l 75 13 l 164 13 l 138 -65 q 241 -99 206 -68 q 276 -175 276 -129 q 240 -263 276 -222 q 122 -304 204 -304 q 39 -292 78 -304 q 0 -261 0 -281 z "},"¹":{"ha":279,"x_min":1,"x_max":229,"o":"m 1 913 q 26 958 1 944 l 143 1014 q 167 1018 153 1018 q 210 1006 190 1018 q 229 975 229 994 l 229 489 q 208 458 229 469 q 160 447 188 447 q 110 458 131 447 q 89 489 89 469 l 89 868 l 67 863 q 44 858 54 858 q 14 875 26 858 q 1 913 1 892 z "},"º":{"ha":485,"x_min":31,"x_max":454,"o":"m 31 800 l 31 869 q 92 1008 31 949 q 242 1067 154 1067 q 391 1008 328 1067 q 454 869 454 950 l 454 800 q 390 661 454 721 q 242 601 326 601 q 94 661 157 601 q 31 800 31 721 m 169 800 q 191 747 169 769 q 242 724 213 724 q 294 747 272 724 q 315 800 315 769 l 315 869 q 293 922 315 899 q 242 944 271 944 q 191 922 213 944 q 169 869 169 899 l 169 800 z "},"»":{"ha":746,"x_min":43,"x_max":717,"o":"m 43 211 q 47 231 43 222 l 129 385 l 47 539 q 43 558 43 547 q 85 630 43 593 q 179 667 128 667 q 238 640 225 667 l 331 467 l 346 439 l 358 418 q 366 401 363 411 q 369 383 369 392 q 365 363 369 372 q 349 335 361 353 q 331 303 338 317 l 238 129 q 179 103 225 103 q 85 140 128 103 q 43 211 43 176 m 390 211 q 394 231 390 222 l 476 385 l 394 539 q 390 558 390 547 q 433 630 390 593 q 526 667 475 667 q 585 640 572 667 l 678 467 l 693 439 l 706 418 q 713 401 710 411 q 717 383 717 392 q 713 363 717 372 q 697 335 708 353 q 678 303 685 317 l 585 129 q 526 103 572 103 q 433 140 475 103 q 390 211 390 176 z "},"¼":{"ha":960,"x_min":32,"x_max":935,"o":"m 32 913 q 57 958 32 944 l 174 1014 q 197 1018 183 1018 q 240 1006 221 1018 q 260 975 260 994 l 260 489 q 239 458 260 469 q 190 447 218 447 q 140 458 161 447 q 119 489 119 469 l 119 868 l 97 863 q 75 858 85 858 q 44 875 57 858 q 32 913 32 892 m 113 10 q 119 36 113 22 l 607 1038 q 665 1072 624 1072 q 722 1051 696 1072 q 747 999 747 1031 q 742 972 747 983 l 253 -29 q 190 -64 236 -64 q 135 -41 157 -64 q 113 10 113 -18 m 479 164 q 486 189 479 176 l 676 533 q 735 568 696 568 q 780 553 756 568 q 804 517 804 539 q 800 500 804 508 l 658 244 l 718 244 l 718 274 q 738 305 718 294 q 788 315 758 315 q 858 274 858 315 l 858 244 l 893 244 q 924 226 913 244 q 935 181 935 207 q 922 137 935 157 q 893 117 908 117 l 858 117 l 858 42 q 838 11 858 22 q 788 0 817 0 q 739 11 760 0 q 718 42 718 22 l 718 117 l 525 117 q 492 129 506 117 q 479 164 479 142 z "},"½":{"ha":936,"x_min":29,"x_max":900,"o":"m 29 913 q 54 958 29 944 l 171 1014 q 194 1018 181 1018 q 238 1006 218 1018 q 257 975 257 994 l 257 489 q 236 458 257 469 q 188 447 215 447 q 138 458 158 447 q 117 489 117 469 l 117 868 l 94 863 q 72 858 82 858 q 42 875 54 858 q 29 913 29 892 m 88 10 q 94 36 88 22 l 582 1038 q 640 1072 599 1072 q 697 1051 671 1072 q 722 999 722 1031 q 717 972 722 983 l 228 -29 q 165 -64 211 -64 q 110 -41 132 -64 q 88 10 88 -18 m 500 42 l 500 118 q 540 200 500 158 q 630 271 581 242 q 719 335 679 300 q 760 400 760 371 q 746 430 760 417 q 703 443 732 443 q 646 393 646 443 q 626 358 646 374 q 572 343 606 343 q 510 414 510 343 q 567 526 510 485 q 701 568 624 568 q 840 525 781 568 q 900 404 900 482 q 860 301 900 349 q 773 226 821 253 q 685 172 725 199 q 646 126 646 144 l 646 121 l 857 121 q 886 103 874 121 q 899 61 899 85 q 886 19 899 38 q 857 0 874 0 l 561 0 q 520 12 540 0 q 500 42 500 24 z "},"¾":{"ha":1147,"x_min":38,"x_max":1122,"o":"m 38 594 q 52 633 38 624 q 104 643 67 643 q 160 633 146 643 q 175 599 175 624 q 188 574 175 582 q 212 565 200 567 q 244 564 224 564 q 300 576 285 564 q 315 621 315 589 l 315 636 q 297 678 315 668 q 240 688 278 688 q 200 740 200 688 q 240 794 200 793 q 262 797 256 796 q 279 802 268 797 q 295 819 290 807 q 300 851 300 832 q 243 897 300 897 q 212 896 221 897 q 195 888 203 894 q 188 868 188 882 q 122 819 188 819 q 63 830 75 819 q 50 872 50 840 q 97 973 50 931 q 243 1015 143 1015 q 433 874 433 1015 q 417 796 433 832 q 369 747 400 760 q 454 636 454 719 l 454 621 q 395 486 454 529 q 239 443 336 443 q 88 490 139 443 q 38 594 38 536 m 292 10 q 299 36 292 22 l 786 1038 q 844 1072 803 1072 q 901 1051 875 1072 q 926 999 926 1031 q 921 972 926 983 l 432 -29 q 369 -64 415 -64 q 314 -41 336 -64 q 292 10 292 -18 m 667 164 q 674 189 667 176 l 864 533 q 922 568 883 568 q 967 553 943 568 q 992 517 992 539 q 988 500 992 508 l 846 244 l 906 244 l 906 274 q 926 305 906 294 q 975 315 946 315 q 1046 274 1046 315 l 1046 244 l 1081 244 q 1111 226 1100 244 q 1122 181 1122 207 q 1109 137 1122 157 q 1081 117 1096 117 l 1046 117 l 1046 42 q 1025 11 1046 22 q 975 0 1004 0 q 926 11 947 0 q 906 42 906 22 l 906 117 l 713 117 q 680 129 693 117 q 667 164 667 142 z "},"¿":{"ha":628,"x_min":31,"x_max":600,"o":"m 31 221 q 186 475 31 354 q 240 533 222 504 q 260 583 257 561 q 264 649 264 604 q 346 706 264 706 q 406 686 389 706 q 422 613 422 667 q 329 401 422 482 q 293 372 325 397 q 249 335 261 347 q 221 297 236 322 q 206 244 206 271 q 240 174 206 199 q 331 150 275 150 q 408 167 378 150 q 449 203 439 183 q 475 240 458 224 q 517 257 492 257 q 574 236 549 257 q 600 178 600 215 q 528 51 600 111 q 326 -8 456 -8 q 113 57 194 -8 q 31 221 31 122 m 238 908 q 269 983 238 951 q 344 1015 300 1015 q 419 983 389 1015 q 450 908 450 951 q 419 833 450 864 q 344 801 388 801 q 269 833 300 801 q 238 908 238 864 z "},"À":{"ha":818,"x_min":6,"x_max":813,"o":"m 6 89 q 8 104 6 93 l 267 951 q 317 1005 278 986 q 408 1024 357 1024 q 499 1005 460 1024 q 550 951 539 986 l 810 104 q 813 89 813 93 q 767 26 813 53 q 674 0 722 0 q 603 40 614 0 l 556 214 l 263 214 l 215 40 q 144 0 204 0 q 51 26 96 0 q 6 89 6 53 m 231 1251 q 250 1306 231 1281 q 296 1332 269 1332 q 315 1328 306 1332 l 510 1238 q 538 1189 538 1224 q 519 1134 538 1160 q 474 1108 500 1108 q 453 1114 467 1108 l 258 1204 q 231 1251 231 1218 m 307 381 l 510 381 l 408 753 l 307 381 z "},"Á":{"ha":818,"x_min":6,"x_max":813,"o":"m 6 89 q 8 104 6 93 l 267 951 q 317 1005 278 986 q 408 1024 357 1024 q 499 1005 460 1024 q 550 951 539 986 l 810 104 q 813 89 813 93 q 767 26 813 53 q 674 0 722 0 q 603 40 614 0 l 556 214 l 263 214 l 215 40 q 144 0 204 0 q 51 26 96 0 q 6 89 6 53 m 307 381 l 510 381 l 408 753 l 307 381 m 307 1189 q 335 1238 307 1224 l 529 1328 q 549 1332 539 1332 q 594 1306 575 1332 q 614 1251 614 1281 q 586 1204 614 1218 l 392 1114 q 371 1108 378 1108 q 326 1134 344 1108 q 307 1189 307 1160 z "},"Â":{"ha":818,"x_min":6,"x_max":813,"o":"m 6 89 q 8 104 6 93 l 267 951 q 317 1005 278 986 q 408 1024 357 1024 q 499 1005 460 1024 q 550 951 539 986 l 810 104 q 813 89 813 93 q 767 26 813 53 q 674 0 722 0 q 603 40 614 0 l 556 214 l 263 214 l 215 40 q 144 0 204 0 q 51 26 96 0 q 6 89 6 53 m 206 1186 q 240 1247 206 1228 l 385 1325 q 408 1332 399 1332 q 432 1325 418 1332 l 576 1247 q 611 1186 611 1228 q 599 1142 611 1161 q 568 1122 586 1122 q 553 1126 561 1122 l 408 1204 l 264 1126 q 249 1122 256 1122 q 218 1142 231 1122 q 206 1186 206 1161 m 307 381 l 510 381 l 408 753 l 307 381 z "},"Ã":{"ha":818,"x_min":6,"x_max":813,"o":"m 6 89 q 8 104 6 93 l 267 951 q 317 1005 278 986 q 408 1024 357 1024 q 499 1005 460 1024 q 550 951 539 986 l 810 104 q 813 89 813 93 q 767 26 813 53 q 674 0 722 0 q 603 40 614 0 l 556 214 l 263 214 l 215 40 q 144 0 204 0 q 51 26 96 0 q 6 89 6 53 m 163 1213 q 281 1314 163 1314 q 385 1295 324 1314 q 483 1276 446 1276 q 553 1291 515 1276 q 603 1306 590 1306 q 643 1281 631 1306 q 656 1238 656 1257 q 538 1136 656 1136 q 424 1155 485 1136 q 335 1174 364 1174 q 265 1159 303 1174 q 215 1144 228 1144 q 175 1169 188 1144 q 163 1213 163 1193 m 307 381 l 510 381 l 408 753 l 307 381 z "},"Ä":{"ha":818,"x_min":6,"x_max":813,"o":"m 6 89 q 8 104 6 93 l 267 951 q 317 1005 278 986 q 408 1024 357 1024 q 499 1005 460 1024 q 550 951 539 986 l 810 104 q 813 89 813 93 q 767 26 813 53 q 674 0 722 0 q 603 40 614 0 l 556 214 l 263 214 l 215 40 q 144 0 204 0 q 51 26 96 0 q 6 89 6 53 m 244 1150 q 233 1163 244 1150 q 221 1207 221 1175 q 244 1263 221 1239 q 300 1288 268 1288 q 355 1263 332 1288 q 378 1207 378 1239 q 355 1149 378 1174 q 300 1125 332 1125 q 244 1150 268 1125 m 307 381 l 510 381 l 408 753 l 307 381 m 467 1150 q 455 1163 467 1150 q 443 1207 443 1175 q 467 1263 443 1239 q 522 1288 490 1288 q 577 1263 554 1288 q 600 1207 600 1239 q 577 1149 600 1174 q 522 1125 554 1125 q 467 1150 490 1125 z "},"Å":{"ha":818,"x_min":6,"x_max":813,"o":"m 6 89 q 8 104 6 93 l 267 951 q 317 1005 278 986 q 408 1024 357 1024 q 499 1005 460 1024 q 550 951 539 986 l 810 104 q 813 89 813 93 q 767 26 813 53 q 674 0 722 0 q 603 40 614 0 l 556 214 l 263 214 l 215 40 q 144 0 204 0 q 51 26 96 0 q 6 89 6 53 m 269 1260 q 310 1358 269 1315 q 407 1400 350 1400 q 505 1358 463 1400 q 547 1260 547 1315 q 505 1160 547 1203 q 407 1117 463 1117 q 310 1160 351 1117 q 269 1260 269 1203 m 307 381 l 510 381 l 408 753 l 307 381 m 351 1258 q 368 1218 351 1236 q 408 1200 385 1200 q 447 1218 431 1200 q 463 1258 463 1236 q 447 1296 463 1279 q 408 1313 431 1313 q 368 1296 385 1313 q 351 1258 351 1279 z "},"Æ":{"ha":1135,"x_min":71,"x_max":1115,"o":"m 71 74 l 71 688 q 160 936 71 857 q 399 1015 250 1015 l 1050 1015 q 1099 988 1082 1015 q 1115 922 1115 960 q 1098 854 1115 882 q 1050 826 1081 826 l 736 826 l 736 592 l 886 592 q 934 567 917 592 q 951 507 951 542 q 935 450 951 475 q 886 425 918 425 l 736 425 l 736 189 l 1050 189 q 1098 161 1081 189 q 1115 93 1115 133 q 1099 28 1115 56 q 1050 0 1082 0 l 614 0 q 547 17 575 0 q 519 67 519 35 l 519 425 l 274 425 l 274 74 q 252 19 274 38 q 165 0 231 0 q 71 74 71 0 m 274 592 l 519 592 l 519 826 l 399 826 q 274 688 274 826 l 274 592 z "},"Ç":{"ha":781,"x_min":64,"x_max":746,"o":"m 64 319 l 64 688 q 156 936 64 857 q 397 1015 249 1015 q 648 942 550 1015 q 746 739 746 868 q 721 658 746 679 q 638 636 696 636 q 529 701 533 636 q 406 826 525 826 q 281 688 281 826 l 281 319 q 407 181 281 181 q 472 193 446 181 q 508 231 497 206 q 523 274 519 257 q 529 319 526 290 q 636 385 535 385 q 721 363 696 385 q 746 282 746 342 q 664 83 746 158 q 447 -6 582 7 l 428 -65 q 531 -99 496 -68 q 567 -175 567 -129 q 531 -263 567 -222 q 413 -304 494 -304 q 329 -292 368 -304 q 290 -261 290 -281 q 300 -225 290 -247 q 326 -203 310 -203 q 356 -212 331 -203 q 407 -222 381 -222 q 471 -179 471 -222 q 411 -132 471 -137 l 325 -124 l 360 -7 q 145 81 226 1 q 64 319 64 161 z "},"È":{"ha":749,"x_min":75,"x_max":729,"o":"m 75 67 l 75 949 q 103 998 75 981 q 169 1015 131 1015 l 664 1015 q 713 988 696 1015 q 729 922 729 960 q 712 854 729 882 q 664 826 694 826 l 292 826 l 292 592 l 500 592 q 548 567 531 592 q 565 507 565 542 q 549 450 565 475 q 500 425 532 425 l 292 425 l 292 189 l 664 189 q 712 161 694 189 q 729 93 729 133 q 713 28 729 56 q 664 0 696 0 l 169 0 q 103 17 131 0 q 75 67 75 35 m 240 1251 q 260 1306 240 1281 q 306 1332 279 1332 q 325 1328 314 1332 l 519 1238 q 547 1189 547 1224 q 528 1134 547 1160 q 483 1108 510 1108 q 463 1114 476 1108 l 268 1204 q 240 1251 240 1218 z "},"É":{"ha":749,"x_min":75,"x_max":729,"o":"m 75 67 l 75 949 q 103 998 75 981 q 169 1015 131 1015 l 664 1015 q 713 988 696 1015 q 729 922 729 960 q 712 854 729 882 q 664 826 694 826 l 292 826 l 292 592 l 500 592 q 548 567 531 592 q 565 507 565 542 q 549 450 565 475 q 500 425 532 425 l 292 425 l 292 189 l 664 189 q 712 161 694 189 q 729 93 729 133 q 713 28 729 56 q 664 0 696 0 l 169 0 q 103 17 131 0 q 75 67 75 35 m 282 1189 q 310 1238 282 1224 l 504 1328 q 524 1332 514 1332 q 569 1306 550 1332 q 589 1251 589 1281 q 561 1204 589 1218 l 367 1114 q 346 1108 353 1108 q 301 1134 319 1108 q 282 1189 282 1160 z "},"Ê":{"ha":749,"x_min":75,"x_max":729,"o":"m 75 67 l 75 949 q 103 998 75 981 q 169 1015 131 1015 l 664 1015 q 713 988 696 1015 q 729 922 729 960 q 712 854 729 882 q 664 826 694 826 l 292 826 l 292 592 l 500 592 q 548 567 531 592 q 565 507 565 542 q 549 450 565 475 q 500 425 532 425 l 292 425 l 292 189 l 664 189 q 712 161 694 189 q 729 93 729 133 q 713 28 729 56 q 664 0 696 0 l 169 0 q 103 17 131 0 q 75 67 75 35 m 213 1186 q 247 1247 213 1228 l 392 1325 q 415 1332 406 1332 q 439 1325 425 1332 l 583 1247 q 618 1186 618 1228 q 606 1142 618 1161 q 575 1122 593 1122 q 560 1126 568 1122 l 415 1204 l 271 1126 q 256 1122 263 1122 q 225 1142 238 1122 q 213 1186 213 1161 z "},"Ë":{"ha":749,"x_min":75,"x_max":729,"o":"m 75 67 l 75 949 q 103 998 75 981 q 169 1015 131 1015 l 664 1015 q 713 988 696 1015 q 729 922 729 960 q 712 854 729 882 q 664 826 694 826 l 292 826 l 292 592 l 500 592 q 548 567 531 592 q 565 507 565 542 q 549 450 565 475 q 500 425 532 425 l 292 425 l 292 189 l 664 189 q 712 161 694 189 q 729 93 729 133 q 713 28 729 56 q 664 0 696 0 l 169 0 q 103 17 131 0 q 75 67 75 35 m 240 1150 q 228 1163 240 1150 q 217 1207 217 1175 q 240 1263 217 1239 q 296 1288 264 1288 q 351 1263 328 1288 q 374 1207 374 1239 q 351 1149 374 1174 q 296 1125 328 1125 q 240 1150 264 1125 m 463 1150 q 451 1163 463 1150 q 439 1207 439 1175 q 463 1263 439 1239 q 518 1288 486 1288 q 573 1263 550 1288 q 596 1207 596 1239 q 573 1149 596 1174 q 518 1125 550 1125 q 463 1150 486 1125 z "},"Ì":{"ha":367,"x_min":18,"x_max":325,"o":"m 18 1251 q 38 1306 18 1281 q 83 1332 57 1332 q 103 1328 92 1332 l 297 1238 q 325 1189 325 1224 q 306 1134 325 1160 q 261 1108 288 1108 q 240 1114 254 1108 l 46 1204 q 18 1251 18 1218 m 75 67 l 75 950 q 107 999 75 982 q 183 1015 139 1015 q 260 999 228 1015 q 292 950 292 982 l 292 67 q 260 17 292 35 q 183 0 228 0 q 107 17 139 0 q 75 67 75 35 z "},"Í":{"ha":367,"x_min":43,"x_max":350,"o":"m 43 1189 q 71 1238 43 1224 l 265 1328 q 285 1332 275 1332 q 331 1306 311 1332 q 350 1251 350 1281 q 322 1204 350 1218 l 128 1114 q 107 1108 114 1108 q 62 1134 81 1108 q 43 1189 43 1160 m 75 67 l 75 950 q 107 999 75 982 q 183 1015 139 1015 q 260 999 228 1015 q 292 950 292 982 l 292 67 q 260 17 292 35 q 183 0 228 0 q 107 17 139 0 q 75 67 75 35 z "},"Î":{"ha":367,"x_min":-17,"x_max":389,"o":"m -17 1186 q 18 1247 -17 1228 l 163 1325 q 186 1332 176 1332 q 210 1325 196 1332 l 354 1247 q 389 1186 389 1228 q 376 1142 389 1161 q 346 1122 364 1122 q 331 1126 339 1122 l 186 1204 l 42 1126 q 26 1122 33 1122 q -4 1142 8 1122 q -17 1186 -17 1161 m 75 67 l 75 950 q 107 999 75 982 q 183 1015 139 1015 q 260 999 228 1015 q 292 950 292 982 l 292 67 q 260 17 292 35 q 183 0 228 0 q 107 17 139 0 q 75 67 75 35 z "},"Ï":{"ha":367,"x_min":-4,"x_max":375,"o":"m 19 1150 q 8 1163 19 1150 q -4 1207 -4 1175 q 19 1263 -4 1239 q 75 1288 43 1288 q 130 1263 107 1288 q 153 1207 153 1239 q 130 1149 153 1174 q 75 1125 107 1125 q 19 1150 43 1125 m 75 67 l 75 950 q 107 999 75 982 q 183 1015 139 1015 q 260 999 228 1015 q 292 950 292 982 l 292 67 q 260 17 292 35 q 183 0 228 0 q 107 17 139 0 q 75 67 75 35 m 242 1150 q 230 1163 242 1150 q 218 1207 218 1175 q 242 1263 218 1239 q 297 1288 265 1288 q 352 1263 329 1288 q 375 1207 375 1239 q 352 1149 375 1174 q 297 1125 329 1125 q 242 1150 265 1125 z "},"Ð":{"ha":828,"x_min":-14,"x_max":765,"o":"m -14 531 q 0 584 -14 561 q 39 607 14 607 l 83 607 l 83 950 q 110 996 83 976 q 178 1015 136 1015 l 424 1015 q 672 936 579 1015 q 765 688 765 857 l 765 328 q 672 79 765 158 q 424 0 579 0 l 178 0 q 110 19 136 0 q 83 65 83 39 l 83 454 l 39 454 q 0 476 14 454 q -14 531 -14 499 m 300 189 l 424 189 q 549 328 549 189 l 549 688 q 424 826 549 826 l 300 826 l 300 607 l 386 607 q 425 584 411 607 q 439 531 439 561 q 425 476 439 499 q 386 454 411 454 l 300 454 l 300 189 z "},"Ñ":{"ha":860,"x_min":75,"x_max":785,"o":"m 75 67 l 75 949 q 107 998 75 981 q 183 1015 139 1015 q 276 997 246 1015 q 343 907 306 979 l 568 478 l 568 950 q 600 999 568 982 q 676 1015 632 1015 q 753 999 721 1015 q 785 950 785 982 l 785 67 q 753 17 785 35 q 676 0 721 0 q 556 58 588 0 l 292 539 l 292 67 q 260 17 292 35 q 183 0 228 0 q 107 17 139 0 q 75 67 75 35 m 171 1213 q 289 1314 171 1314 q 393 1295 332 1314 q 492 1276 454 1276 q 561 1291 524 1276 q 611 1306 599 1306 q 651 1281 639 1306 q 664 1238 664 1257 q 546 1136 664 1136 q 433 1155 493 1136 q 343 1174 372 1174 q 274 1159 311 1174 q 224 1144 236 1144 q 183 1169 196 1144 q 171 1213 171 1193 z "},"Ò":{"ha":810,"x_min":64,"x_max":746,"o":"m 64 319 l 64 688 q 157 936 64 857 q 404 1015 250 1015 q 653 936 560 1015 q 746 688 746 857 l 746 319 q 653 71 746 150 q 404 -8 560 -8 q 157 71 250 -8 q 64 319 64 150 m 229 1251 q 249 1306 229 1281 q 294 1332 268 1332 q 314 1328 303 1332 l 508 1238 q 536 1189 536 1224 q 517 1134 536 1160 q 472 1108 499 1108 q 451 1114 465 1108 l 257 1204 q 229 1251 229 1218 m 281 319 q 404 181 281 181 q 529 319 529 181 l 529 688 q 404 826 529 826 q 281 688 281 826 l 281 319 z "},"Ó":{"ha":810,"x_min":64,"x_max":746,"o":"m 64 319 l 64 688 q 157 936 64 857 q 404 1015 250 1015 q 653 936 560 1015 q 746 688 746 857 l 746 319 q 653 71 746 150 q 404 -8 560 -8 q 157 71 250 -8 q 64 319 64 150 m 281 319 q 404 181 281 181 q 529 319 529 181 l 529 688 q 404 826 529 826 q 281 688 281 826 l 281 319 m 313 1189 q 340 1238 313 1224 l 535 1328 q 554 1332 544 1332 q 600 1306 581 1332 q 619 1251 619 1281 q 592 1204 619 1218 l 397 1114 q 376 1108 383 1108 q 331 1134 350 1108 q 313 1189 313 1160 z "},"Ô":{"ha":810,"x_min":64,"x_max":746,"o":"m 64 319 l 64 688 q 157 936 64 857 q 404 1015 250 1015 q 653 936 560 1015 q 746 688 746 857 l 746 319 q 653 71 746 150 q 404 -8 560 -8 q 157 71 250 -8 q 64 319 64 150 m 201 1186 q 236 1247 201 1228 l 381 1325 q 404 1332 394 1332 q 428 1325 414 1332 l 572 1247 q 607 1186 607 1228 q 594 1142 607 1161 q 564 1122 582 1122 q 549 1126 557 1122 l 404 1204 l 260 1126 q 244 1122 251 1122 q 214 1142 226 1122 q 201 1186 201 1161 m 281 319 q 404 181 281 181 q 529 319 529 181 l 529 688 q 404 826 529 826 q 281 688 281 826 l 281 319 z "},"Õ":{"ha":810,"x_min":64,"x_max":746,"o":"m 64 319 l 64 688 q 157 936 64 857 q 404 1015 250 1015 q 653 936 560 1015 q 746 688 746 857 l 746 319 q 653 71 746 150 q 404 -8 560 -8 q 157 71 250 -8 q 64 319 64 150 m 158 1213 q 276 1314 158 1314 q 381 1295 319 1314 q 479 1276 442 1276 q 549 1291 511 1276 q 599 1306 586 1306 q 639 1281 626 1306 q 651 1238 651 1257 q 533 1136 651 1136 q 420 1155 481 1136 q 331 1174 360 1174 q 261 1159 299 1174 q 211 1144 224 1144 q 171 1169 183 1144 q 158 1213 158 1193 m 281 319 q 404 181 281 181 q 529 319 529 181 l 529 688 q 404 826 529 826 q 281 688 281 826 l 281 319 z "},"Ö":{"ha":810,"x_min":64,"x_max":746,"o":"m 64 319 l 64 688 q 157 936 64 857 q 404 1015 250 1015 q 653 936 560 1015 q 746 688 746 857 l 746 319 q 653 71 746 150 q 404 -8 560 -8 q 157 71 250 -8 q 64 319 64 150 m 240 1150 q 228 1163 240 1150 q 217 1207 217 1175 q 240 1263 217 1239 q 296 1288 264 1288 q 351 1263 328 1288 q 374 1207 374 1239 q 351 1149 374 1174 q 296 1125 328 1125 q 240 1150 264 1125 m 281 319 q 404 181 281 181 q 529 319 529 181 l 529 688 q 404 826 529 826 q 281 688 281 826 l 281 319 m 463 1150 q 451 1163 463 1150 q 439 1207 439 1175 q 463 1263 439 1239 q 518 1288 486 1288 q 573 1263 550 1288 q 596 1207 596 1239 q 573 1149 596 1174 q 518 1125 550 1125 q 463 1150 486 1125 z "},"×":{"ha":569,"x_min":47,"x_max":521,"o":"m 47 246 q 64 286 47 269 l 174 382 l 65 475 q 50 515 50 490 q 81 584 50 553 q 149 615 113 615 q 190 600 172 615 l 283 506 l 378 600 q 418 615 393 615 q 487 584 456 615 q 518 517 518 553 q 503 475 518 490 l 394 382 l 504 286 q 521 244 521 269 q 488 176 521 208 q 419 144 456 144 q 379 161 396 144 l 283 257 l 189 161 q 147 144 172 144 q 81 178 114 144 q 47 246 47 211 z "},"Ø":{"ha":810,"x_min":64,"x_max":746,"o":"m 64 319 l 64 688 q 157 936 64 857 q 404 1015 250 1015 q 563 989 493 1015 l 586 1038 q 644 1072 603 1072 q 701 1051 675 1072 q 726 999 726 1031 q 721 972 726 983 l 685 900 q 746 688 746 819 l 746 319 q 653 71 746 150 q 404 -8 560 -8 q 253 14 319 -8 l 232 -29 q 169 -64 215 -64 q 114 -41 136 -64 q 92 10 92 -18 q 99 36 92 22 l 129 99 q 64 319 64 179 m 281 410 l 475 810 q 404 826 446 826 q 281 688 281 826 l 281 410 m 340 193 q 404 181 367 181 q 529 319 529 181 l 529 579 l 340 193 z "},"Ù":{"ha":842,"x_min":71,"x_max":771,"o":"m 71 319 l 71 950 q 102 999 71 982 q 179 1015 133 1015 q 256 999 224 1015 q 288 950 288 982 l 288 319 q 421 181 288 181 q 554 319 554 181 l 554 950 q 585 999 554 982 q 663 1015 617 1015 q 739 999 707 1015 q 771 950 771 982 l 771 319 q 675 71 771 150 q 421 -8 579 -8 q 166 71 261 -8 q 71 319 71 150 m 236 1251 q 256 1306 236 1281 q 301 1332 275 1332 q 321 1328 311 1332 l 515 1238 q 543 1189 543 1224 q 524 1134 543 1160 q 479 1108 506 1108 q 458 1114 472 1108 l 264 1204 q 236 1251 236 1218 z "},"Ú":{"ha":842,"x_min":71,"x_max":771,"o":"m 71 319 l 71 950 q 102 999 71 982 q 179 1015 133 1015 q 256 999 224 1015 q 288 950 288 982 l 288 319 q 421 181 288 181 q 554 319 554 181 l 554 950 q 585 999 554 982 q 663 1015 617 1015 q 739 999 707 1015 q 771 950 771 982 l 771 319 q 675 71 771 150 q 421 -8 579 -8 q 166 71 261 -8 q 71 319 71 150 m 306 1189 q 333 1238 306 1224 l 528 1328 q 547 1332 539 1332 q 593 1306 574 1332 q 613 1251 613 1281 q 585 1204 613 1218 l 390 1114 q 369 1108 376 1108 q 324 1134 343 1108 q 306 1189 306 1160 z "},"Û":{"ha":842,"x_min":71,"x_max":771,"o":"m 71 319 l 71 950 q 102 999 71 982 q 179 1015 133 1015 q 256 999 224 1015 q 288 950 288 982 l 288 319 q 421 181 288 181 q 554 319 554 181 l 554 950 q 585 999 554 982 q 663 1015 617 1015 q 739 999 707 1015 q 771 950 771 982 l 771 319 q 675 71 771 150 q 421 -8 579 -8 q 166 71 261 -8 q 71 319 71 150 m 208 1186 q 243 1247 208 1228 l 388 1325 q 411 1332 401 1332 q 435 1325 421 1332 l 579 1247 q 614 1186 614 1228 q 601 1142 614 1161 q 571 1122 589 1122 q 556 1126 564 1122 l 411 1204 l 267 1126 q 251 1122 258 1122 q 221 1142 233 1122 q 208 1186 208 1161 z "},"Ü":{"ha":842,"x_min":71,"x_max":771,"o":"m 71 319 l 71 950 q 102 999 71 982 q 179 1015 133 1015 q 256 999 224 1015 q 288 950 288 982 l 288 319 q 421 181 288 181 q 554 319 554 181 l 554 950 q 585 999 554 982 q 663 1015 617 1015 q 739 999 707 1015 q 771 950 771 982 l 771 319 q 675 71 771 150 q 421 -8 579 -8 q 166 71 261 -8 q 71 319 71 150 m 254 1150 q 242 1163 254 1150 q 231 1207 231 1175 q 254 1263 231 1239 q 310 1288 278 1288 q 365 1263 342 1288 q 388 1207 388 1239 q 365 1149 388 1174 q 310 1125 342 1125 q 254 1150 278 1125 m 476 1150 q 465 1163 476 1150 q 453 1207 453 1175 q 476 1263 453 1239 q 532 1288 500 1288 q 587 1263 564 1288 q 610 1207 610 1239 q 587 1149 610 1174 q 532 1125 564 1125 q 476 1150 500 1125 z "},"Ý":{"ha":819,"x_min":6,"x_max":813,"o":"m 6 926 q 55 989 6 963 q 153 1015 104 1015 q 190 1006 178 1015 q 215 975 203 997 l 410 618 l 603 975 q 665 1015 624 1015 q 763 989 714 1015 q 813 926 813 963 q 810 911 813 917 l 524 435 q 518 415 518 426 l 518 67 q 486 17 518 35 q 410 0 454 0 q 333 17 365 0 q 301 67 301 35 l 301 415 q 296 435 301 426 l 8 911 q 6 926 6 917 m 285 1189 q 313 1238 285 1224 l 507 1328 q 526 1332 517 1332 q 572 1306 553 1332 q 592 1251 592 1281 q 564 1204 592 1218 l 369 1114 q 349 1108 356 1108 q 303 1134 322 1108 q 285 1189 285 1160 z "},"Þ":{"ha":735,"x_min":75,"x_max":713,"o":"m 75 67 l 75 974 q 105 1021 75 1003 q 178 1039 135 1039 q 258 1021 226 1039 q 290 974 290 1003 l 290 760 q 360 835 314 804 q 464 865 407 865 q 640 780 568 865 q 713 574 713 694 l 713 476 q 640 271 713 360 q 471 182 567 182 q 362 215 413 182 q 290 293 311 247 l 290 67 q 258 21 290 42 q 181 0 225 0 q 106 20 136 0 q 75 67 75 40 m 290 458 q 322 403 290 436 q 394 369 353 369 q 466 402 435 369 q 497 476 497 435 l 497 574 q 466 646 497 614 q 392 678 435 678 q 321 649 351 678 q 290 574 290 621 l 290 458 z "},"ß":{"ha":857,"x_min":-1,"x_max":825,"o":"m -1 585 q 13 638 -1 615 q 51 661 26 661 l 119 661 l 119 778 q 189 985 119 904 q 407 1067 258 1067 q 614 1001 533 1067 q 694 808 694 936 q 669 681 694 740 q 603 599 644 621 q 756 504 686 583 q 825 313 825 425 l 825 297 q 731 60 825 147 q 499 -28 636 -28 q 457 -27 472 -28 q 422 -22 442 -26 q 390 -7 401 -17 q 372 21 379 3 q 364 65 364 39 q 376 133 364 100 q 414 167 389 167 q 449 160 421 167 q 500 154 478 154 q 584 187 554 154 q 614 278 614 219 l 614 293 q 602 378 614 343 q 565 433 590 413 q 520 464 540 454 q 464 486 500 474 q 419 513 433 496 q 406 574 406 529 q 418 628 406 615 q 465 651 431 642 q 519 760 519 667 q 424 879 519 879 q 335 778 335 879 l 335 65 q 302 19 335 38 q 225 0 269 0 q 149 18 179 0 q 119 65 119 36 l 119 508 l 51 508 q 13 531 26 508 q -1 585 -1 553 z "},"à":{"ha":672,"x_min":25,"x_max":615,"o":"m 25 171 q 109 333 25 286 q 350 381 193 381 l 400 381 l 400 394 q 375 467 400 436 q 296 497 350 497 q 186 474 229 497 q 133 451 143 451 q 81 484 100 451 q 61 558 61 517 q 138 637 61 604 q 299 669 215 669 q 537 592 458 669 q 615 397 615 514 l 615 67 q 585 19 615 39 q 510 0 556 0 q 442 19 469 0 q 414 67 414 39 l 414 97 q 203 -14 318 -14 q 76 33 126 -14 q 25 171 25 81 m 174 919 q 193 974 174 949 q 239 1000 213 1000 q 258 996 247 1000 l 453 906 q 481 857 481 892 q 462 802 481 828 q 417 776 443 776 q 396 782 410 776 l 201 872 q 174 919 174 886 m 242 201 q 296 143 242 143 q 365 182 331 143 q 400 271 400 221 l 400 276 l 394 276 q 319 272 349 276 q 265 251 289 268 q 242 201 242 233 z "},"á":{"ha":672,"x_min":25,"x_max":615,"o":"m 25 171 q 109 333 25 286 q 350 381 193 381 l 400 381 l 400 394 q 375 467 400 436 q 296 497 350 497 q 186 474 229 497 q 133 451 143 451 q 81 484 100 451 q 61 558 61 517 q 138 637 61 604 q 299 669 215 669 q 537 592 458 669 q 615 397 615 514 l 615 67 q 585 19 615 39 q 510 0 556 0 q 442 19 469 0 q 414 67 414 39 l 414 97 q 203 -14 318 -14 q 76 33 126 -14 q 25 171 25 81 m 201 857 q 229 906 201 892 l 424 996 q 443 1000 433 1000 q 489 974 469 1000 q 508 919 508 949 q 481 872 508 886 l 286 782 q 265 776 272 776 q 220 802 239 776 q 201 857 201 828 m 242 201 q 296 143 242 143 q 365 182 331 143 q 400 271 400 221 l 400 276 l 394 276 q 319 272 349 276 q 265 251 289 268 q 242 201 242 233 z "},"â":{"ha":672,"x_min":25,"x_max":615,"o":"m 25 171 q 109 333 25 286 q 350 381 193 381 l 400 381 l 400 394 q 375 467 400 436 q 296 497 350 497 q 186 474 229 497 q 133 451 143 451 q 81 484 100 451 q 61 558 61 517 q 138 637 61 604 q 299 669 215 669 q 537 592 458 669 q 615 397 615 514 l 615 67 q 585 19 615 39 q 510 0 556 0 q 442 19 469 0 q 414 67 414 39 l 414 97 q 203 -14 318 -14 q 76 33 126 -14 q 25 171 25 81 m 111 854 q 146 915 111 896 l 290 993 q 314 1000 304 1000 q 338 993 324 1000 l 482 915 q 517 854 517 896 q 504 810 517 829 q 474 790 492 790 q 458 794 467 790 l 314 872 l 169 794 q 154 790 161 790 q 124 810 136 790 q 111 854 111 829 m 242 201 q 296 143 242 143 q 365 182 331 143 q 400 271 400 221 l 400 276 l 394 276 q 319 272 349 276 q 265 251 289 268 q 242 201 242 233 z "},"ã":{"ha":672,"x_min":25,"x_max":615,"o":"m 25 171 q 109 333 25 286 q 350 381 193 381 l 400 381 l 400 394 q 375 467 400 436 q 296 497 350 497 q 186 474 229 497 q 133 451 143 451 q 81 484 100 451 q 61 558 61 517 q 138 637 61 604 q 299 669 215 669 q 537 592 458 669 q 615 397 615 514 l 615 67 q 585 19 615 39 q 510 0 556 0 q 442 19 469 0 q 414 67 414 39 l 414 97 q 203 -14 318 -14 q 76 33 126 -14 q 25 171 25 81 m 81 881 q 199 982 81 982 q 303 963 242 982 q 401 944 364 944 q 471 959 433 944 q 521 974 508 974 q 561 949 549 974 q 574 906 574 925 q 456 804 574 804 q 342 823 403 804 q 253 842 282 842 q 183 827 221 842 q 133 813 146 813 q 93 837 106 813 q 81 881 81 861 m 242 201 q 296 143 242 143 q 365 182 331 143 q 400 271 400 221 l 400 276 l 394 276 q 319 272 349 276 q 265 251 289 268 q 242 201 242 233 z "},"ä":{"ha":672,"x_min":25,"x_max":615,"o":"m 25 171 q 109 333 25 286 q 350 381 193 381 l 400 381 l 400 394 q 375 467 400 436 q 296 497 350 497 q 186 474 229 497 q 133 451 143 451 q 81 484 100 451 q 61 558 61 517 q 138 637 61 604 q 299 669 215 669 q 537 592 458 669 q 615 397 615 514 l 615 67 q 585 19 615 39 q 510 0 556 0 q 442 19 469 0 q 414 67 414 39 l 414 97 q 203 -14 318 -14 q 76 33 126 -14 q 25 171 25 81 m 158 818 q 147 831 158 818 q 135 875 135 843 q 158 931 135 907 q 214 956 182 956 q 269 931 246 956 q 292 875 292 907 q 269 817 292 842 q 214 793 246 793 q 158 818 182 793 m 242 201 q 296 143 242 143 q 365 182 331 143 q 400 271 400 221 l 400 276 l 394 276 q 319 272 349 276 q 265 251 289 268 q 242 201 242 233 m 381 818 q 369 831 381 818 q 357 875 357 843 q 381 931 357 907 q 436 956 404 956 q 491 931 468 956 q 514 875 514 907 q 491 817 514 842 q 436 793 468 793 q 381 818 404 793 z "},"å":{"ha":672,"x_min":25,"x_max":615,"o":"m 25 171 q 109 333 25 286 q 350 381 193 381 l 400 381 l 400 394 q 375 467 400 436 q 296 497 350 497 q 186 474 229 497 q 133 451 143 451 q 81 484 100 451 q 61 558 61 517 q 138 637 61 604 q 299 669 215 669 q 537 592 458 669 q 615 397 615 514 l 615 67 q 585 19 615 39 q 510 0 556 0 q 442 19 469 0 q 414 67 414 39 l 414 97 q 203 -14 318 -14 q 76 33 126 -14 q 25 171 25 81 m 190 928 q 231 1026 190 983 q 328 1068 271 1068 q 426 1026 383 1068 q 468 928 468 983 q 426 828 468 871 q 328 785 383 785 q 231 828 272 785 q 190 928 190 871 m 242 201 q 296 143 242 143 q 365 182 331 143 q 400 271 400 221 l 400 276 l 394 276 q 319 272 349 276 q 265 251 289 268 q 242 201 242 233 m 272 926 q 289 886 272 904 q 329 868 306 868 q 367 886 351 868 q 383 926 383 904 q 367 964 383 947 q 329 981 351 981 q 289 964 306 981 q 272 926 272 947 z "},"æ":{"ha":1050,"x_min":24,"x_max":1017,"o":"m 24 171 q 108 333 24 286 q 349 381 192 381 l 399 381 l 399 394 q 374 467 399 436 q 294 497 349 497 q 185 474 228 497 q 132 451 142 451 q 79 484 99 451 q 60 558 60 517 q 137 637 60 604 q 297 669 214 669 q 517 569 438 669 q 718 669 606 669 q 929 595 842 669 q 1017 406 1017 521 q 1006 333 1017 361 q 972 294 994 306 q 931 280 950 283 q 882 276 913 276 l 614 276 l 614 268 q 653 185 614 217 q 756 154 692 154 q 858 180 804 154 q 929 206 911 206 q 986 173 964 206 q 1008 111 1008 140 q 934 27 1008 68 q 750 -14 860 -14 q 488 117 585 -14 q 243 -14 374 -14 q 86 33 149 -14 q 24 171 24 81 m 240 201 q 294 143 240 143 q 364 182 329 143 q 399 271 399 221 l 399 276 l 393 276 q 317 272 347 276 q 264 251 288 268 q 240 201 240 233 m 614 397 l 786 397 q 815 431 815 397 q 785 492 815 469 q 714 514 756 514 q 644 492 674 514 q 614 431 614 469 l 614 397 z "},"ç":{"ha":614,"x_min":39,"x_max":594,"o":"m 39 281 l 39 375 q 117 588 39 507 q 351 669 196 669 q 519 635 451 669 q 586 554 586 601 q 562 484 586 519 q 503 449 538 449 q 452 465 492 449 q 369 482 413 482 q 254 375 254 482 l 254 281 q 371 174 254 174 q 451 192 413 174 q 503 211 489 211 q 569 178 543 211 q 594 108 594 144 q 536 30 594 65 q 392 -12 478 -6 l 374 -65 q 477 -99 442 -68 q 513 -175 513 -129 q 476 -263 513 -222 q 358 -304 440 -304 q 275 -292 314 -304 q 236 -261 236 -281 q 246 -225 236 -247 q 272 -203 256 -203 q 303 -212 278 -203 q 353 -222 328 -222 q 417 -179 417 -222 q 357 -132 417 -137 l 271 -124 l 304 -11 q 105 80 171 1 q 39 281 39 158 z "},"è":{"ha":689,"x_min":38,"x_max":656,"o":"m 38 281 l 38 382 q 131 585 38 500 q 357 669 225 669 q 568 595 481 669 q 656 406 656 521 q 644 333 656 361 q 611 294 633 306 q 570 280 589 283 q 521 276 551 276 l 253 276 l 253 268 q 292 185 253 217 q 394 154 331 154 q 497 180 443 154 q 568 206 550 206 q 625 173 603 206 q 647 111 647 140 q 573 27 647 68 q 389 -14 499 -14 q 135 67 233 -14 q 38 281 38 149 m 178 919 q 197 974 178 949 q 243 1000 217 1000 q 263 996 253 1000 l 457 906 q 485 857 485 892 q 466 802 485 828 q 421 776 447 776 q 400 782 414 776 l 206 872 q 178 919 178 886 m 253 397 l 425 397 q 454 431 454 397 q 424 492 454 469 q 353 514 394 514 q 283 492 313 514 q 253 431 253 469 l 253 397 z "},"é":{"ha":689,"x_min":38,"x_max":656,"o":"m 38 281 l 38 382 q 131 585 38 500 q 357 669 225 669 q 568 595 481 669 q 656 406 656 521 q 644 333 656 361 q 611 294 633 306 q 570 280 589 283 q 521 276 551 276 l 253 276 l 253 268 q 292 185 253 217 q 394 154 331 154 q 497 180 443 154 q 568 206 550 206 q 625 173 603 206 q 647 111 647 140 q 573 27 647 68 q 389 -14 499 -14 q 135 67 233 -14 q 38 281 38 149 m 206 857 q 233 906 206 892 l 428 996 q 447 1000 439 1000 q 493 974 474 1000 q 513 919 513 949 q 485 872 513 886 l 290 782 q 269 776 276 776 q 224 802 243 776 q 206 857 206 828 m 253 397 l 425 397 q 454 431 454 397 q 424 492 454 469 q 353 514 394 514 q 283 492 313 514 q 253 431 253 469 l 253 397 z "},"ê":{"ha":689,"x_min":38,"x_max":656,"o":"m 38 281 l 38 382 q 131 585 38 500 q 357 669 225 669 q 568 595 481 669 q 656 406 656 521 q 644 333 656 361 q 611 294 633 306 q 570 280 589 283 q 521 276 551 276 l 253 276 l 253 268 q 292 185 253 217 q 394 154 331 154 q 497 180 443 154 q 568 206 550 206 q 625 173 603 206 q 647 111 647 140 q 573 27 647 68 q 389 -14 499 -14 q 135 67 233 -14 q 38 281 38 149 m 151 854 q 186 915 151 896 l 331 993 q 354 1000 344 1000 q 378 993 364 1000 l 522 915 q 557 854 557 896 q 544 810 557 829 q 514 790 532 790 q 499 794 507 790 l 354 872 l 210 794 q 194 790 201 790 q 164 810 176 790 q 151 854 151 829 m 253 397 l 425 397 q 454 431 454 397 q 424 492 454 469 q 353 514 394 514 q 283 492 313 514 q 253 431 253 469 l 253 397 z "},"ë":{"ha":689,"x_min":38,"x_max":656,"o":"m 38 281 l 38 382 q 131 585 38 500 q 357 669 225 669 q 568 595 481 669 q 656 406 656 521 q 644 333 656 361 q 611 294 633 306 q 570 280 589 283 q 521 276 551 276 l 253 276 l 253 268 q 292 185 253 217 q 394 154 331 154 q 497 180 443 154 q 568 206 550 206 q 625 173 603 206 q 647 111 647 140 q 573 27 647 68 q 389 -14 499 -14 q 135 67 233 -14 q 38 281 38 149 m 186 818 q 174 831 186 818 q 163 875 163 843 q 186 931 163 907 q 242 956 210 956 q 297 931 274 956 q 319 875 319 907 q 297 817 319 842 q 242 793 274 793 q 186 818 210 793 m 253 397 l 425 397 q 454 431 454 397 q 424 492 454 469 q 353 514 394 514 q 283 492 313 514 q 253 431 253 469 l 253 397 m 408 818 q 397 831 408 818 q 385 875 385 843 q 408 931 385 907 q 464 956 432 956 q 519 931 496 956 q 542 875 542 907 q 519 817 542 842 q 464 793 496 793 q 408 818 432 793 z "},"ì":{"ha":339,"x_min":-10,"x_max":297,"o":"m -10 919 q 10 974 -10 949 q 56 1000 29 1000 q 75 996 64 1000 l 269 906 q 297 857 297 892 q 278 802 297 828 q 233 776 260 776 q 213 782 226 776 l 18 872 q -10 919 -10 886 m 63 67 l 63 596 q 92 643 63 625 q 169 661 122 661 q 247 643 215 661 q 278 596 278 625 l 278 67 q 246 21 278 42 q 169 0 214 0 q 93 20 124 0 q 63 67 63 40 z "},"í":{"ha":339,"x_min":46,"x_max":353,"o":"m 46 857 q 74 906 46 892 l 268 996 q 288 1000 278 1000 q 333 974 314 1000 q 353 919 353 949 q 325 872 353 886 l 131 782 q 110 776 117 776 q 65 802 83 776 q 46 857 46 828 m 63 67 l 63 596 q 92 643 63 625 q 169 661 122 661 q 247 643 215 661 q 278 596 278 625 l 278 67 q 246 21 278 42 q 169 0 214 0 q 93 20 124 0 q 63 67 63 40 z "},"î":{"ha":339,"x_min":-32,"x_max":374,"o":"m -32 854 q 3 915 -32 896 l 147 993 q 171 1000 161 1000 q 194 993 181 1000 l 339 915 q 374 854 374 896 q 361 810 374 829 q 331 790 349 790 q 315 794 324 790 l 171 872 l 26 794 q 11 790 18 790 q -19 810 -7 790 q -32 854 -32 829 m 63 67 l 63 596 q 92 643 63 625 q 169 661 122 661 q 247 643 215 661 q 278 596 278 625 l 278 67 q 246 21 278 42 q 169 0 214 0 q 93 20 124 0 q 63 67 63 40 z "},"ï":{"ha":339,"x_min":-14,"x_max":365,"o":"m 10 818 q -2 831 10 818 q -14 875 -14 843 q 10 931 -14 907 q 65 956 33 956 q 120 931 97 956 q 143 875 143 907 q 120 817 143 842 q 65 793 97 793 q 10 818 33 793 m 63 67 l 63 596 q 92 643 63 625 q 169 661 122 661 q 247 643 215 661 q 278 596 278 625 l 278 67 q 246 21 278 42 q 169 0 214 0 q 93 20 124 0 q 63 67 63 40 m 232 818 q 220 831 232 818 q 208 875 208 843 q 232 931 208 907 q 288 956 256 956 q 342 931 319 956 q 365 875 365 907 q 342 817 365 842 q 288 793 319 793 q 232 818 256 793 z "},"ð":{"ha":729,"x_min":38,"x_max":675,"o":"m 38 281 l 38 378 q 110 583 38 497 q 283 669 182 669 q 390 639 343 669 q 460 564 436 608 q 411 743 460 650 l 354 708 q 335 703 347 703 q 285 731 308 703 q 261 788 261 758 q 283 826 261 813 l 329 854 q 323 860 328 857 q 317 865 318 864 l 308 874 l 300 882 l 292 890 q 284 901 286 896 q 279 911 282 906 q 275 924 276 917 q 274 938 274 931 q 299 1007 274 974 q 378 1040 325 1040 q 514 967 451 1040 l 582 1008 q 603 1014 592 1014 q 652 987 629 1014 q 675 931 675 960 q 653 890 675 904 l 588 850 q 675 476 675 668 l 675 281 q 580 75 675 164 q 357 -14 485 -14 q 133 75 229 -14 q 38 281 38 164 m 253 281 q 284 206 253 239 q 357 174 315 174 q 429 206 399 174 q 460 281 460 239 l 460 378 q 427 453 460 424 q 354 482 394 482 q 283 450 313 482 q 253 378 253 418 l 253 281 z "},"ñ":{"ha":742,"x_min":63,"x_max":686,"o":"m 63 67 l 63 596 q 92 643 63 625 q 169 661 122 661 q 236 643 208 661 q 264 596 264 625 l 264 564 q 335 639 286 608 q 450 669 385 669 q 616 583 546 669 q 686 378 686 497 l 686 67 q 654 17 686 35 q 578 0 622 0 q 503 18 536 0 q 471 67 471 36 l 471 378 q 441 450 471 418 q 371 482 411 482 q 306 453 335 482 q 278 378 278 425 l 278 67 q 245 21 278 42 q 169 0 213 0 q 93 20 124 0 q 63 67 63 40 m 124 881 q 242 982 124 982 q 346 963 285 982 q 444 944 407 944 q 514 959 476 944 q 564 974 551 974 q 604 949 592 974 q 617 906 617 925 q 499 804 617 804 q 385 823 446 804 q 296 842 325 842 q 226 827 264 842 q 176 813 189 813 q 136 837 149 813 q 124 881 124 861 z "},"ò":{"ha":707,"x_min":38,"x_max":669,"o":"m 38 281 l 38 378 q 131 583 38 496 q 353 669 224 669 q 575 583 481 669 q 669 378 669 497 l 669 281 q 574 75 669 164 q 353 -14 479 -14 q 132 75 226 -14 q 38 281 38 164 m 178 919 q 197 974 178 949 q 243 1000 217 1000 q 263 996 253 1000 l 457 906 q 485 857 485 892 q 466 802 485 828 q 421 776 447 776 q 400 782 414 776 l 206 872 q 178 919 178 886 m 253 281 q 282 206 253 239 q 353 174 311 174 q 424 206 394 174 q 454 281 454 239 l 454 378 q 424 450 454 418 q 353 482 393 482 q 283 450 313 482 q 253 378 253 418 l 253 281 z "},"ó":{"ha":707,"x_min":38,"x_max":669,"o":"m 38 281 l 38 378 q 131 583 38 496 q 353 669 224 669 q 575 583 481 669 q 669 378 669 497 l 669 281 q 574 75 669 164 q 353 -14 479 -14 q 132 75 226 -14 q 38 281 38 164 m 206 857 q 233 906 206 892 l 428 996 q 447 1000 439 1000 q 493 974 474 1000 q 513 919 513 949 q 485 872 513 886 l 290 782 q 269 776 276 776 q 224 802 243 776 q 206 857 206 828 m 253 281 q 282 206 253 239 q 353 174 311 174 q 424 206 394 174 q 454 281 454 239 l 454 378 q 424 450 454 418 q 353 482 393 482 q 283 450 313 482 q 253 378 253 418 l 253 281 z "},"ô":{"ha":707,"x_min":38,"x_max":669,"o":"m 38 281 l 38 378 q 131 583 38 496 q 353 669 224 669 q 575 583 481 669 q 669 378 669 497 l 669 281 q 574 75 669 164 q 353 -14 479 -14 q 132 75 226 -14 q 38 281 38 164 m 150 854 q 185 915 150 896 l 329 993 q 353 1000 343 1000 q 376 993 363 1000 l 521 915 q 556 854 556 896 q 543 810 556 829 q 513 790 531 790 q 497 794 506 790 l 353 872 l 208 794 q 193 790 200 790 q 163 810 175 790 q 150 854 150 829 m 253 281 q 282 206 253 239 q 353 174 311 174 q 424 206 394 174 q 454 281 454 239 l 454 378 q 424 450 454 418 q 353 482 393 482 q 283 450 313 482 q 253 378 253 418 l 253 281 z "},"õ":{"ha":707,"x_min":38,"x_max":669,"o":"m 38 281 l 38 378 q 131 583 38 496 q 353 669 224 669 q 575 583 481 669 q 669 378 669 497 l 669 281 q 574 75 669 164 q 353 -14 479 -14 q 132 75 226 -14 q 38 281 38 164 m 108 881 q 226 982 108 982 q 331 963 269 982 q 429 944 392 944 q 499 959 461 944 q 549 974 536 974 q 589 949 576 974 q 601 906 601 925 q 483 804 601 804 q 370 823 431 804 q 281 842 310 842 q 211 827 249 842 q 161 813 174 813 q 121 837 133 813 q 108 881 108 861 m 253 281 q 282 206 253 239 q 353 174 311 174 q 424 206 394 174 q 454 281 454 239 l 454 378 q 424 450 454 418 q 353 482 393 482 q 283 450 313 482 q 253 378 253 418 l 253 281 z "},"ö":{"ha":707,"x_min":38,"x_max":669,"o":"m 38 281 l 38 378 q 131 583 38 496 q 353 669 224 669 q 575 583 481 669 q 669 378 669 497 l 669 281 q 574 75 669 164 q 353 -14 479 -14 q 132 75 226 -14 q 38 281 38 164 m 189 818 q 177 831 189 818 q 165 875 165 843 q 189 931 165 907 q 244 956 213 956 q 299 931 276 956 q 322 875 322 907 q 299 817 322 842 q 244 793 276 793 q 189 818 213 793 m 253 281 q 282 206 253 239 q 353 174 311 174 q 424 206 394 174 q 454 281 454 239 l 454 378 q 424 450 454 418 q 353 482 393 482 q 283 450 313 482 q 253 378 253 418 l 253 281 m 411 818 q 399 831 411 818 q 388 875 388 843 q 411 931 388 907 q 467 956 435 956 q 522 931 499 956 q 544 875 544 907 q 522 817 544 842 q 467 793 499 793 q 411 818 435 793 z "},"÷":{"ha":632,"x_min":28,"x_max":604,"o":"m 28 331 q 47 390 28 367 q 96 414 65 414 l 535 414 q 583 390 561 414 q 604 331 604 365 q 583 272 604 294 q 535 249 563 249 l 96 249 q 47 271 65 249 q 28 331 28 293 m 218 92 q 246 154 218 129 q 311 179 274 179 q 374 154 346 179 q 403 92 403 129 q 374 30 403 57 q 311 3 346 3 q 247 30 275 3 q 218 92 218 57 m 246 509 q 232 522 246 509 q 218 571 218 535 q 246 633 218 607 q 311 660 274 660 q 374 633 346 660 q 403 571 403 607 q 374 509 403 535 q 311 483 346 483 q 246 509 274 483 z "},"ø":{"ha":707,"x_min":38,"x_max":669,"o":"m 38 281 l 38 378 q 131 583 38 496 q 353 669 224 669 q 521 624 442 669 l 571 690 q 601 708 583 708 q 633 695 619 708 q 647 664 647 682 q 636 635 647 650 l 588 571 q 669 378 669 486 l 669 281 q 574 75 669 164 q 353 -14 479 -14 q 178 38 261 -14 l 124 -33 q 100 -44 115 -44 q 70 -32 83 -44 q 57 -3 57 -19 q 67 22 57 10 l 117 89 q 38 281 38 175 m 253 269 l 403 467 q 353 482 379 482 q 283 450 313 482 q 253 378 253 418 l 253 269 m 297 192 q 353 174 322 174 q 424 206 394 174 q 454 281 454 239 l 454 378 q 453 386 454 381 q 453 394 453 392 l 297 192 z "},"ù":{"ha":743,"x_min":56,"x_max":688,"o":"m 56 278 l 56 594 q 88 640 56 619 q 164 661 119 661 q 238 640 206 661 q 271 594 271 619 l 271 278 q 301 206 271 238 q 372 174 332 174 q 442 206 413 174 q 472 278 472 238 l 472 596 q 505 642 472 622 q 581 661 538 661 q 657 642 626 661 q 688 596 688 622 l 688 278 q 594 74 688 161 q 372 -14 500 -14 q 149 74 243 -14 q 56 278 56 161 m 196 919 q 215 974 196 949 q 261 1000 235 1000 q 281 996 269 1000 l 475 906 q 503 857 503 892 q 484 802 503 828 q 439 776 465 776 q 418 782 432 776 l 224 872 q 196 919 196 886 z "},"ú":{"ha":743,"x_min":56,"x_max":688,"o":"m 56 278 l 56 594 q 88 640 56 619 q 164 661 119 661 q 238 640 206 661 q 271 594 271 619 l 271 278 q 301 206 271 238 q 372 174 332 174 q 442 206 413 174 q 472 278 472 238 l 472 596 q 505 642 472 622 q 581 661 538 661 q 657 642 626 661 q 688 596 688 622 l 688 278 q 594 74 688 161 q 372 -14 500 -14 q 149 74 243 -14 q 56 278 56 161 m 238 857 q 265 906 238 892 l 460 996 q 479 1000 469 1000 q 525 974 506 1000 q 544 919 544 949 q 517 872 544 886 l 322 782 q 301 776 308 776 q 256 802 275 776 q 238 857 238 828 z "},"û":{"ha":743,"x_min":56,"x_max":688,"o":"m 56 278 l 56 594 q 88 640 56 619 q 164 661 119 661 q 238 640 206 661 q 271 594 271 619 l 271 278 q 301 206 271 238 q 372 174 332 174 q 442 206 413 174 q 472 278 472 238 l 472 596 q 505 642 472 622 q 581 661 538 661 q 657 642 626 661 q 688 596 688 622 l 688 278 q 594 74 688 161 q 372 -14 500 -14 q 149 74 243 -14 q 56 278 56 161 m 171 854 q 206 915 171 896 l 350 993 q 374 1000 364 1000 q 397 993 383 1000 l 542 915 q 576 854 576 896 q 564 810 576 829 q 533 790 551 790 q 518 794 526 790 l 374 872 l 229 794 q 214 790 221 790 q 183 810 196 790 q 171 854 171 829 z "},"ü":{"ha":743,"x_min":56,"x_max":688,"o":"m 56 278 l 56 594 q 88 640 56 619 q 164 661 119 661 q 238 640 206 661 q 271 594 271 619 l 271 278 q 301 206 271 238 q 372 174 332 174 q 442 206 413 174 q 472 278 472 238 l 472 596 q 505 642 472 622 q 581 661 538 661 q 657 642 626 661 q 688 596 688 622 l 688 278 q 594 74 688 161 q 372 -14 500 -14 q 149 74 243 -14 q 56 278 56 161 m 207 818 q 195 831 207 818 q 183 875 183 843 q 207 931 183 907 q 263 956 231 956 q 317 931 294 956 q 340 875 340 907 q 317 817 340 842 q 263 793 294 793 q 207 818 231 793 m 429 818 q 417 831 429 818 q 406 875 406 843 q 429 931 406 907 q 485 956 453 956 q 540 931 517 956 q 563 875 563 907 q 540 817 563 842 q 485 793 517 793 q 429 818 453 793 z "},"ý":{"ha":689,"x_min":1,"x_max":683,"o":"m 1 -210 q 54 -121 1 -121 q 251 57 251 -121 l 8 540 q 1 568 1 554 q 51 639 1 607 q 147 671 101 671 q 207 636 193 671 l 364 260 l 479 636 q 535 671 493 671 q 631 638 578 671 q 683 564 683 606 q 678 540 683 550 l 481 49 q 456 -17 474 29 l 431 -81 q 405 -138 424 -101 q 370 -193 386 -175 q 326 -236 354 -211 q 268 -272 299 -261 q 194 -292 238 -283 q 100 -301 151 -301 q 26 -283 51 -301 q 1 -210 1 -265 m 260 857 q 288 906 260 892 l 482 996 q 501 1000 492 1000 q 547 974 528 1000 q 567 919 567 949 q 539 872 567 886 l 344 782 q 324 776 331 776 q 278 802 297 776 q 260 857 260 828 z "},"þ":{"ha":740,"x_min":64,"x_max":701,"o":"m 64 -235 l 64 974 q 94 1021 64 1003 q 167 1039 124 1039 q 247 1021 215 1039 q 279 974 279 1003 l 279 564 q 349 639 303 608 q 453 669 396 669 q 629 584 557 669 q 701 378 701 499 l 701 281 q 628 75 701 164 q 460 -14 556 -14 q 351 19 401 -14 q 279 97 300 51 l 279 -235 q 247 -281 279 -260 q 169 -301 214 -301 q 94 -281 125 -301 q 64 -235 64 -261 m 279 263 q 310 207 279 240 q 383 174 342 174 q 455 206 424 174 q 486 281 486 239 l 486 378 q 455 450 486 418 q 381 482 424 482 q 310 453 340 482 q 279 378 279 425 l 279 263 z "},"ÿ":{"ha":689,"x_min":1,"x_max":683,"o":"m 1 -210 q 54 -121 1 -121 q 251 57 251 -121 l 8 540 q 1 568 1 554 q 51 639 1 607 q 147 671 101 671 q 207 636 193 671 l 364 260 l 479 636 q 535 671 493 671 q 631 638 578 671 q 683 564 683 606 q 678 540 683 550 l 481 49 q 456 -17 474 29 l 431 -81 q 405 -138 424 -101 q 370 -193 386 -175 q 326 -236 354 -211 q 268 -272 299 -261 q 194 -292 238 -283 q 100 -301 151 -301 q 26 -283 51 -301 q 1 -210 1 -265 m 196 818 q 184 831 196 818 q 172 875 172 843 q 196 931 172 907 q 251 956 219 956 q 306 931 283 956 q 329 875 329 907 q 306 817 329 842 q 251 793 283 793 q 196 818 219 793 m 418 818 q 406 831 418 818 q 394 875 394 843 q 418 931 394 907 q 474 956 442 956 q 528 931 506 956 q 551 875 551 907 q 528 817 551 842 q 474 793 506 793 q 418 818 442 793 z "},"Ā":{"ha":818,"x_min":6,"x_max":813,"o":"m 6 89 q 8 104 6 93 l 267 951 q 317 1005 278 986 q 408 1024 357 1024 q 499 1005 460 1024 q 550 951 539 986 l 810 104 q 813 89 813 93 q 767 26 813 53 q 674 0 722 0 q 603 40 614 0 l 556 214 l 263 214 l 215 40 q 144 0 204 0 q 51 26 96 0 q 6 89 6 53 m 204 1233 q 222 1283 204 1263 q 269 1303 240 1303 l 547 1303 q 593 1282 572 1303 q 614 1233 614 1261 q 594 1185 614 1204 q 547 1165 574 1165 l 269 1165 q 222 1184 240 1165 q 204 1233 204 1203 m 307 381 l 510 381 l 408 753 l 307 381 z "},"ā":{"ha":672,"x_min":25,"x_max":615,"o":"m 25 171 q 109 333 25 286 q 350 381 193 381 l 400 381 l 400 394 q 375 467 400 436 q 296 497 350 497 q 186 474 229 497 q 133 451 143 451 q 81 484 100 451 q 61 558 61 517 q 138 637 61 604 q 299 669 215 669 q 537 592 458 669 q 615 397 615 514 l 615 67 q 585 19 615 39 q 510 0 556 0 q 442 19 469 0 q 414 67 414 39 l 414 97 q 203 -14 318 -14 q 76 33 126 -14 q 25 171 25 81 m 126 901 q 144 951 126 931 q 192 971 163 971 l 469 971 q 515 951 494 971 q 536 901 536 931 q 516 853 536 872 q 469 833 496 833 l 192 833 q 144 852 163 833 q 126 901 126 871 m 242 201 q 296 143 242 143 q 365 182 331 143 q 400 271 400 221 l 400 276 l 394 276 q 319 272 349 276 q 265 251 289 268 q 242 201 242 233 z "},"Ă":{"ha":818,"x_min":6,"x_max":813,"o":"m 6 89 q 8 104 6 93 l 267 951 q 317 1005 278 986 q 408 1024 357 1024 q 499 1005 460 1024 q 550 951 539 986 l 810 104 q 813 89 813 93 q 767 26 813 53 q 674 0 722 0 q 603 40 614 0 l 556 214 l 263 214 l 215 40 q 144 0 204 0 q 51 26 96 0 q 6 89 6 53 m 215 1338 l 326 1338 q 352 1265 326 1294 q 410 1236 378 1236 q 466 1265 440 1236 q 492 1338 492 1294 l 603 1338 q 544 1203 603 1261 q 410 1144 485 1144 q 275 1203 335 1144 q 215 1338 215 1261 m 307 381 l 510 381 l 408 753 l 307 381 z "},"ă":{"ha":672,"x_min":25,"x_max":615,"o":"m 25 171 q 109 333 25 286 q 350 381 193 381 l 400 381 l 400 394 q 375 467 400 436 q 296 497 350 497 q 186 474 229 497 q 133 451 143 451 q 81 484 100 451 q 61 558 61 517 q 138 637 61 604 q 299 669 215 669 q 537 592 458 669 q 615 397 615 514 l 615 67 q 585 19 615 39 q 510 0 556 0 q 442 19 469 0 q 414 67 414 39 l 414 97 q 203 -14 318 -14 q 76 33 126 -14 q 25 171 25 81 m 131 1006 l 242 1006 q 267 933 242 963 q 325 904 293 904 q 381 933 356 904 q 407 1006 407 963 l 518 1006 q 459 871 518 929 q 325 813 400 813 q 190 871 250 813 q 131 1006 131 929 m 242 201 q 296 143 242 143 q 365 182 331 143 q 400 271 400 221 l 400 276 l 394 276 q 319 272 349 276 q 265 251 289 268 q 242 201 242 233 z "},"Ą":{"ha":818,"x_min":6,"x_max":813,"o":"m 6 89 q 8 104 6 93 l 267 951 q 317 1005 278 986 q 408 1024 357 1024 q 499 1005 460 1024 q 550 951 539 986 l 810 104 q 813 89 813 93 q 732 10 813 39 q 656 -62 686 -17 q 626 -149 626 -107 q 707 -215 626 -215 q 742 -262 742 -215 q 699 -303 742 -303 q 568 -265 611 -303 q 525 -168 525 -228 q 551 -73 525 -122 q 622 13 576 -24 q 603 40 607 21 l 556 214 l 263 214 l 215 40 q 144 0 204 0 q 51 26 96 0 q 6 89 6 53 m 307 381 l 510 381 l 408 753 l 307 381 z "},"ą":{"ha":672,"x_min":25,"x_max":615,"o":"m 25 171 q 109 333 25 286 q 350 381 193 381 l 400 381 l 400 394 q 375 467 400 436 q 296 497 350 497 q 186 474 229 497 q 133 451 143 451 q 81 484 100 451 q 61 558 61 517 q 138 637 61 604 q 299 669 215 669 q 537 592 458 669 q 615 397 615 514 l 615 67 q 564 8 615 26 q 490 -62 519 -17 q 461 -149 461 -108 q 542 -215 461 -215 q 576 -262 576 -215 q 533 -303 576 -303 q 403 -265 446 -303 q 360 -168 360 -228 q 456 11 360 -65 q 414 67 414 29 l 414 97 q 203 -14 318 -14 q 76 33 126 -14 q 25 171 25 81 m 242 201 q 296 143 242 143 q 365 182 331 143 q 400 271 400 221 l 400 276 l 394 276 q 319 272 349 276 q 265 251 289 268 q 242 201 242 233 z "},"Ć":{"ha":781,"x_min":64,"x_max":746,"o":"m 64 319 l 64 688 q 156 936 64 857 q 397 1015 249 1015 q 648 942 550 1015 q 746 739 746 868 q 721 658 746 679 q 638 636 696 636 q 529 701 533 636 q 406 826 525 826 q 281 688 281 826 l 281 319 q 407 181 281 181 q 472 193 446 181 q 508 231 497 206 q 523 274 519 257 q 529 319 526 290 q 636 385 535 385 q 721 363 696 385 q 746 282 746 342 q 648 69 746 147 q 397 -8 550 -8 q 156 71 249 -8 q 64 319 64 150 m 285 1189 q 313 1238 285 1224 l 507 1328 q 526 1332 517 1332 q 572 1306 553 1332 q 592 1251 592 1281 q 564 1204 592 1218 l 369 1114 q 349 1108 356 1108 q 303 1134 322 1108 q 285 1189 285 1160 z "},"ć":{"ha":614,"x_min":39,"x_max":594,"o":"m 39 281 l 39 375 q 117 588 39 507 q 351 669 196 669 q 519 635 451 669 q 586 554 586 601 q 562 484 586 519 q 503 449 538 449 q 452 465 492 449 q 369 482 413 482 q 254 375 254 482 l 254 281 q 371 174 254 174 q 451 192 413 174 q 503 211 489 211 q 569 178 543 211 q 594 108 594 144 q 524 23 594 60 q 354 -14 453 -14 q 117 67 196 -14 q 39 281 39 147 m 196 857 q 224 906 196 892 l 418 996 q 438 1000 428 1000 q 483 974 464 1000 q 503 919 503 949 q 475 872 503 886 l 281 782 q 260 776 267 776 q 215 802 233 776 q 196 857 196 828 z "},"Ĉ":{"ha":781,"x_min":64,"x_max":746,"o":"m 64 319 l 64 688 q 156 936 64 857 q 397 1015 249 1015 q 648 942 550 1015 q 746 739 746 868 q 721 658 746 679 q 638 636 696 636 q 529 701 533 636 q 406 826 525 826 q 281 688 281 826 l 281 319 q 407 181 281 181 q 472 193 446 181 q 508 231 497 206 q 523 274 519 257 q 529 319 526 290 q 636 385 535 385 q 721 363 696 385 q 746 282 746 342 q 648 69 746 147 q 397 -8 550 -8 q 156 71 249 -8 q 64 319 64 150 m 201 1186 q 236 1247 201 1228 l 381 1325 q 404 1332 394 1332 q 428 1325 414 1332 l 572 1247 q 607 1186 607 1228 q 594 1142 607 1161 q 564 1122 582 1122 q 549 1126 557 1122 l 404 1204 l 260 1126 q 244 1122 251 1122 q 214 1142 226 1122 q 201 1186 201 1161 z "},"ĉ":{"ha":614,"x_min":39,"x_max":594,"o":"m 39 281 l 39 375 q 117 588 39 507 q 351 669 196 669 q 519 635 451 669 q 586 554 586 601 q 562 484 586 519 q 503 449 538 449 q 452 465 492 449 q 369 482 413 482 q 254 375 254 482 l 254 281 q 371 174 254 174 q 451 192 413 174 q 503 211 489 211 q 569 178 543 211 q 594 108 594 144 q 524 23 594 60 q 354 -14 453 -14 q 117 67 196 -14 q 39 281 39 147 m 133 854 q 168 915 133 896 l 313 993 q 336 1000 326 1000 q 360 993 346 1000 l 504 915 q 539 854 539 896 q 526 810 539 829 q 496 790 514 790 q 481 794 489 790 l 336 872 l 192 794 q 176 790 183 790 q 146 810 158 790 q 133 854 133 829 z "},"Ċ":{"ha":781,"x_min":64,"x_max":746,"o":"m 64 319 l 64 688 q 156 936 64 857 q 397 1015 249 1015 q 648 942 550 1015 q 746 739 746 868 q 721 658 746 679 q 638 636 696 636 q 529 701 533 636 q 406 826 525 826 q 281 688 281 826 l 281 319 q 407 181 281 181 q 472 193 446 181 q 508 231 497 206 q 523 274 519 257 q 529 319 526 290 q 636 385 535 385 q 721 363 696 385 q 746 282 746 342 q 648 69 746 147 q 397 -8 550 -8 q 156 71 249 -8 q 64 319 64 150 m 351 1150 q 340 1163 351 1150 q 328 1207 328 1175 q 351 1263 328 1239 q 407 1288 375 1288 q 462 1263 439 1288 q 485 1207 485 1239 q 462 1149 485 1174 q 407 1125 439 1125 q 351 1150 375 1125 z "},"ċ":{"ha":614,"x_min":39,"x_max":594,"o":"m 39 281 l 39 375 q 117 588 39 507 q 351 669 196 669 q 519 635 451 669 q 586 554 586 601 q 562 484 586 519 q 503 449 538 449 q 452 465 492 449 q 369 482 413 482 q 254 375 254 482 l 254 281 q 371 174 254 174 q 451 192 413 174 q 503 211 489 211 q 569 178 543 211 q 594 108 594 144 q 524 23 594 60 q 354 -14 453 -14 q 117 67 196 -14 q 39 281 39 147 m 275 818 q 263 831 275 818 q 251 875 251 843 q 275 931 251 907 q 331 956 299 956 q 385 931 363 956 q 408 875 408 907 q 385 817 408 842 q 331 793 363 793 q 275 818 299 793 z "},"Č":{"ha":781,"x_min":64,"x_max":746,"o":"m 64 319 l 64 688 q 156 936 64 857 q 397 1015 249 1015 q 648 942 550 1015 q 746 739 746 868 q 721 658 746 679 q 638 636 696 636 q 529 701 533 636 q 406 826 525 826 q 281 688 281 826 l 281 319 q 407 181 281 181 q 472 193 446 181 q 508 231 497 206 q 523 274 519 257 q 529 319 526 290 q 636 385 535 385 q 721 363 696 385 q 746 282 746 342 q 648 69 746 147 q 397 -8 550 -8 q 156 71 249 -8 q 64 319 64 150 m 200 1285 q 213 1329 200 1310 q 243 1349 225 1349 q 258 1344 250 1349 l 403 1267 l 547 1344 q 563 1349 556 1349 q 593 1329 581 1349 q 606 1285 606 1310 q 571 1224 606 1243 l 426 1146 q 403 1139 413 1139 q 379 1146 393 1139 l 235 1224 q 200 1285 200 1243 z "},"č":{"ha":614,"x_min":39,"x_max":594,"o":"m 39 281 l 39 375 q 117 588 39 507 q 351 669 196 669 q 519 635 451 669 q 586 554 586 601 q 562 484 586 519 q 503 449 538 449 q 452 465 492 449 q 369 482 413 482 q 254 375 254 482 l 254 281 q 371 174 254 174 q 451 192 413 174 q 503 211 489 211 q 569 178 543 211 q 594 108 594 144 q 524 23 594 60 q 354 -14 453 -14 q 117 67 196 -14 q 39 281 39 147 m 124 953 q 136 997 124 978 q 167 1017 149 1017 q 182 1013 174 1017 l 326 935 l 471 1013 q 486 1017 479 1017 q 517 997 504 1017 q 529 953 529 978 q 494 892 529 911 l 350 814 q 326 807 336 807 q 303 814 317 807 l 158 892 q 124 953 124 911 z "},"Ď":{"ha":819,"x_min":75,"x_max":757,"o":"m 75 65 l 75 950 q 101 996 75 976 q 169 1015 128 1015 l 415 1015 q 664 936 571 1015 q 757 688 757 857 l 757 328 q 664 79 757 158 q 415 0 571 0 l 169 0 q 101 19 128 0 q 75 65 75 39 m 178 1285 q 190 1329 178 1310 q 221 1349 203 1349 q 236 1344 228 1349 l 381 1267 l 525 1344 q 540 1349 533 1349 q 571 1329 558 1349 q 583 1285 583 1310 q 549 1224 583 1243 l 404 1146 q 381 1139 390 1139 q 357 1146 371 1139 l 213 1224 q 178 1285 178 1243 m 292 189 l 415 189 q 540 328 540 189 l 540 688 q 415 826 540 826 l 292 826 l 292 189 z "},"ď":{"ha":740,"x_min":39,"x_max":954,"o":"m 39 281 l 39 378 q 111 583 39 497 q 285 669 183 669 q 391 639 344 669 q 461 564 438 608 l 461 974 q 492 1021 461 1003 q 571 1039 524 1039 q 647 1021 617 1039 q 676 974 676 1003 l 676 67 q 646 20 676 40 q 571 0 615 0 q 503 21 532 0 q 475 67 475 42 l 475 97 q 399 19 453 51 q 281 -14 344 -14 q 112 75 185 -14 q 39 281 39 164 m 254 281 q 284 206 254 239 q 354 174 314 174 q 428 207 394 174 q 461 263 461 240 l 461 378 q 428 453 461 424 q 356 482 396 482 q 284 450 314 482 q 254 378 254 418 l 254 281 m 742 922 q 773 998 742 967 q 847 1029 804 1029 q 922 998 890 1029 q 954 924 954 967 q 868 701 954 901 q 826 676 857 676 q 779 692 801 676 q 757 731 757 707 q 763 753 757 742 l 797 828 q 742 922 742 860 z "},"Đ":{"ha":828,"x_min":-14,"x_max":765,"o":"m -14 531 q 0 584 -14 561 q 39 607 14 607 l 83 607 l 83 950 q 110 996 83 976 q 178 1015 136 1015 l 424 1015 q 672 936 579 1015 q 765 688 765 857 l 765 328 q 672 79 765 158 q 424 0 579 0 l 178 0 q 110 19 136 0 q 83 65 83 39 l 83 454 l 39 454 q 0 476 14 454 q -14 531 -14 499 m 300 189 l 424 189 q 549 328 549 189 l 549 688 q 424 826 549 826 l 300 826 l 300 607 l 386 607 q 425 584 411 607 q 439 531 439 561 q 425 476 439 499 q 386 454 411 454 l 300 454 l 300 189 z "},"đ":{"ha":740,"x_min":39,"x_max":760,"o":"m 39 281 l 39 378 q 111 583 39 497 q 285 669 183 669 q 391 639 344 669 q 461 564 438 608 l 461 757 l 376 757 q 338 779 351 757 q 324 833 324 801 q 338 887 324 864 q 376 910 351 910 l 461 910 l 461 974 q 492 1021 461 1003 q 571 1039 524 1039 q 647 1021 617 1039 q 676 974 676 1003 l 676 910 l 707 910 q 746 887 732 910 q 760 833 760 864 q 746 779 760 801 q 707 757 732 757 l 676 757 l 676 67 q 646 20 676 40 q 571 0 615 0 q 503 21 532 0 q 475 67 475 42 l 475 97 q 399 19 453 51 q 281 -14 344 -14 q 112 75 185 -14 q 39 281 39 164 m 254 281 q 284 206 254 239 q 354 174 314 174 q 428 207 394 174 q 461 263 461 240 l 461 378 q 428 453 461 424 q 356 482 396 482 q 284 450 314 482 q 254 378 254 418 l 254 281 z "},"Ē":{"ha":749,"x_min":75,"x_max":729,"o":"m 75 67 l 75 949 q 103 998 75 981 q 169 1015 131 1015 l 664 1015 q 713 988 696 1015 q 729 922 729 960 q 712 854 729 882 q 664 826 694 826 l 292 826 l 292 592 l 500 592 q 548 567 531 592 q 565 507 565 542 q 549 450 565 475 q 500 425 532 425 l 292 425 l 292 189 l 664 189 q 712 161 694 189 q 729 93 729 133 q 713 28 729 56 q 664 0 696 0 l 169 0 q 103 17 131 0 q 75 67 75 35 m 204 1233 q 222 1283 204 1263 q 269 1303 240 1303 l 547 1303 q 593 1282 572 1303 q 614 1233 614 1261 q 594 1185 614 1204 q 547 1165 574 1165 l 269 1165 q 222 1184 240 1165 q 204 1233 204 1203 z "},"ē":{"ha":689,"x_min":38,"x_max":656,"o":"m 38 281 l 38 382 q 131 585 38 500 q 357 669 225 669 q 568 595 481 669 q 656 406 656 521 q 644 333 656 361 q 611 294 633 306 q 570 280 589 283 q 521 276 551 276 l 253 276 l 253 268 q 292 185 253 217 q 394 154 331 154 q 497 180 443 154 q 568 206 550 206 q 625 173 603 206 q 647 111 647 140 q 573 27 647 68 q 389 -14 499 -14 q 135 67 233 -14 q 38 281 38 149 m 151 901 q 169 951 151 931 q 217 971 188 971 l 494 971 q 540 951 519 971 q 561 901 561 931 q 541 853 561 872 q 494 833 521 833 l 217 833 q 169 852 188 833 q 151 901 151 871 m 253 397 l 425 397 q 454 431 454 397 q 424 492 454 469 q 353 514 394 514 q 283 492 313 514 q 253 431 253 469 l 253 397 z "},"Ĕ":{"ha":749,"x_min":75,"x_max":729,"o":"m 75 67 l 75 949 q 103 998 75 981 q 169 1015 131 1015 l 664 1015 q 713 988 696 1015 q 729 922 729 960 q 712 854 729 882 q 664 826 694 826 l 292 826 l 292 592 l 500 592 q 548 567 531 592 q 565 507 565 542 q 549 450 565 475 q 500 425 532 425 l 292 425 l 292 189 l 664 189 q 712 161 694 189 q 729 93 729 133 q 713 28 729 56 q 664 0 696 0 l 169 0 q 103 17 131 0 q 75 67 75 35 m 207 1338 l 318 1338 q 344 1265 318 1294 q 401 1236 369 1236 q 458 1265 432 1236 q 483 1338 483 1294 l 594 1338 q 535 1203 594 1261 q 401 1144 476 1144 q 267 1203 326 1144 q 207 1338 207 1261 z "},"ĕ":{"ha":689,"x_min":38,"x_max":656,"o":"m 38 281 l 38 382 q 131 585 38 500 q 357 669 225 669 q 568 595 481 669 q 656 406 656 521 q 644 333 656 361 q 611 294 633 306 q 570 280 589 283 q 521 276 551 276 l 253 276 l 253 268 q 292 185 253 217 q 394 154 331 154 q 497 180 443 154 q 568 206 550 206 q 625 173 603 206 q 647 111 647 140 q 573 27 647 68 q 389 -14 499 -14 q 135 67 233 -14 q 38 281 38 149 m 160 1006 l 271 1006 q 297 933 271 963 q 354 904 322 904 q 410 933 385 904 q 436 1006 436 963 l 547 1006 q 488 871 547 929 q 354 813 429 813 q 219 871 279 813 q 160 1006 160 929 m 253 397 l 425 397 q 454 431 454 397 q 424 492 454 469 q 353 514 394 514 q 283 492 313 514 q 253 431 253 469 l 253 397 z "},"Ė":{"ha":749,"x_min":75,"x_max":729,"o":"m 75 67 l 75 949 q 103 998 75 981 q 169 1015 131 1015 l 664 1015 q 713 988 696 1015 q 729 922 729 960 q 712 854 729 882 q 664 826 694 826 l 292 826 l 292 592 l 500 592 q 548 567 531 592 q 565 507 565 542 q 549 450 565 475 q 500 425 532 425 l 292 425 l 292 189 l 664 189 q 712 161 694 189 q 729 93 729 133 q 713 28 729 56 q 664 0 696 0 l 169 0 q 103 17 131 0 q 75 67 75 35 m 365 1150 q 353 1163 365 1150 q 342 1207 342 1175 q 365 1263 342 1239 q 421 1288 389 1288 q 476 1263 453 1288 q 499 1207 499 1239 q 476 1149 499 1174 q 421 1125 453 1125 q 365 1150 389 1125 z "},"ė":{"ha":689,"x_min":38,"x_max":656,"o":"m 38 281 l 38 382 q 131 585 38 500 q 357 669 225 669 q 568 595 481 669 q 656 406 656 521 q 644 333 656 361 q 611 294 633 306 q 570 280 589 283 q 521 276 551 276 l 253 276 l 253 268 q 292 185 253 217 q 394 154 331 154 q 497 180 443 154 q 568 206 550 206 q 625 173 603 206 q 647 111 647 140 q 573 27 647 68 q 389 -14 499 -14 q 135 67 233 -14 q 38 281 38 149 m 253 397 l 425 397 q 454 431 454 397 q 424 492 454 469 q 353 514 394 514 q 283 492 313 514 q 253 431 253 469 l 253 397 m 299 818 q 287 831 299 818 q 275 875 275 843 q 299 931 275 907 q 354 956 322 956 q 409 931 386 956 q 432 875 432 907 q 409 817 432 842 q 354 793 386 793 q 299 818 322 793 z "},"Ę":{"ha":749,"x_min":75,"x_max":729,"o":"m 75 67 l 75 949 q 103 998 75 981 q 169 1015 131 1015 l 664 1015 q 713 988 696 1015 q 729 922 729 960 q 712 854 729 882 q 664 826 694 826 l 292 826 l 292 592 l 500 592 q 548 567 531 592 q 565 507 565 542 q 549 450 565 475 q 500 425 532 425 l 292 425 l 292 189 l 664 189 q 712 161 694 189 q 729 93 729 133 q 682 3 729 18 q 615 -68 642 -25 q 589 -149 589 -111 q 669 -215 589 -215 q 704 -262 704 -215 q 661 -303 704 -303 q 531 -265 574 -303 q 488 -168 488 -228 q 571 0 488 -75 l 169 0 q 103 17 131 0 q 75 67 75 35 z "},"ę":{"ha":689,"x_min":38,"x_max":656,"o":"m 38 281 l 38 382 q 131 585 38 500 q 357 669 225 669 q 568 595 481 669 q 656 406 656 521 q 644 333 656 361 q 611 294 633 306 q 570 280 589 283 q 521 276 551 276 l 253 276 l 253 268 q 292 185 253 217 q 394 154 331 154 q 497 180 443 154 q 568 206 550 206 q 625 173 603 206 q 647 111 647 140 q 619 58 647 85 q 542 13 590 31 q 464 -60 496 -14 q 432 -149 432 -107 q 513 -215 432 -215 q 547 -262 547 -215 q 504 -303 547 -303 q 374 -265 417 -303 q 331 -168 331 -228 q 399 -14 331 -86 l 389 -14 q 135 67 233 -14 q 38 281 38 149 m 253 397 l 425 397 q 454 431 454 397 q 424 492 454 469 q 353 514 394 514 q 283 492 313 514 q 253 431 253 469 l 253 397 z "},"Ě":{"ha":749,"x_min":75,"x_max":729,"o":"m 75 67 l 75 949 q 103 998 75 981 q 169 1015 131 1015 l 664 1015 q 713 988 696 1015 q 729 922 729 960 q 712 854 729 882 q 664 826 694 826 l 292 826 l 292 592 l 500 592 q 548 567 531 592 q 565 507 565 542 q 549 450 565 475 q 500 425 532 425 l 292 425 l 292 189 l 664 189 q 712 161 694 189 q 729 93 729 133 q 713 28 729 56 q 664 0 696 0 l 169 0 q 103 17 131 0 q 75 67 75 35 m 197 1285 q 210 1329 197 1310 q 240 1349 222 1349 q 256 1344 247 1349 l 400 1267 l 544 1344 q 560 1349 553 1349 q 590 1329 578 1349 q 603 1285 603 1310 q 568 1224 603 1243 l 424 1146 q 400 1139 410 1139 q 376 1146 390 1139 l 232 1224 q 197 1285 197 1243 z "},"ě":{"ha":689,"x_min":38,"x_max":656,"o":"m 38 281 l 38 382 q 131 585 38 500 q 357 669 225 669 q 568 595 481 669 q 656 406 656 521 q 644 333 656 361 q 611 294 633 306 q 570 280 589 283 q 521 276 551 276 l 253 276 l 253 268 q 292 185 253 217 q 394 154 331 154 q 497 180 443 154 q 568 206 550 206 q 625 173 603 206 q 647 111 647 140 q 573 27 647 68 q 389 -14 499 -14 q 135 67 233 -14 q 38 281 38 149 m 154 953 q 167 997 154 978 q 197 1017 179 1017 q 213 1013 204 1017 l 357 935 l 501 1013 q 517 1017 510 1017 q 547 997 535 1017 q 560 953 560 978 q 525 892 560 911 l 381 814 q 357 807 367 807 q 333 814 347 807 l 189 892 q 154 953 154 911 m 253 397 l 425 397 q 454 431 454 397 q 424 492 454 469 q 353 514 394 514 q 283 492 313 514 q 253 431 253 469 l 253 397 z "},"Ĝ":{"ha":796,"x_min":64,"x_max":746,"o":"m 64 319 l 64 688 q 156 936 64 857 q 397 1015 249 1015 q 648 942 550 1015 q 746 739 746 868 q 721 658 746 679 q 638 636 696 636 q 529 701 531 636 q 528 734 529 721 q 519 767 526 747 q 500 797 513 786 q 463 817 488 808 q 406 826 439 826 q 281 688 281 826 l 281 319 q 404 181 281 181 q 529 319 529 181 l 529 367 l 447 367 q 399 391 417 367 q 382 450 382 415 q 400 508 382 482 q 447 533 418 533 l 681 533 q 728 513 711 533 q 746 465 746 493 l 746 319 q 653 71 746 150 q 404 -8 560 -8 q 157 71 250 -8 q 64 319 64 150 m 181 1186 q 215 1247 181 1228 l 360 1325 q 383 1332 374 1332 q 407 1325 393 1332 l 551 1247 q 586 1186 586 1228 q 574 1142 586 1161 q 543 1122 561 1122 q 528 1126 536 1122 l 383 1204 l 239 1126 q 224 1122 231 1122 q 193 1142 206 1122 q 181 1186 181 1161 z "},"ĝ":{"ha":664,"x_min":17,"x_max":647,"o":"m 17 -100 q 110 44 17 -8 q 60 131 60 74 q 131 243 60 192 q 40 419 40 310 l 40 440 q 119 606 40 542 q 325 669 197 669 q 482 636 413 669 q 524 713 506 693 q 561 733 542 733 q 620 712 597 733 q 643 669 643 690 q 621 628 643 647 l 593 606 q 561 578 572 589 q 614 440 614 521 l 614 419 q 533 253 614 319 q 325 188 451 188 q 242 196 279 188 q 236 178 236 186 q 278 149 236 158 q 381 131 321 139 q 502 106 442 122 q 605 44 563 90 q 647 -75 647 -1 q 556 -245 647 -189 q 333 -301 464 -301 q 110 -247 203 -301 q 17 -100 17 -193 m 124 854 q 158 915 124 896 l 303 993 q 326 1000 317 1000 q 350 993 336 1000 l 494 915 q 529 854 529 896 q 517 810 529 829 q 486 790 504 790 q 471 794 479 790 l 326 872 l 182 794 q 167 790 174 790 q 136 810 149 790 q 124 854 124 829 m 219 -78 q 252 -142 219 -118 q 329 -165 285 -165 q 406 -142 374 -165 q 439 -81 439 -118 q 426 -42 439 -57 q 388 -17 414 -26 q 338 -3 363 -8 q 275 6 314 1 q 219 -78 219 -24 m 249 421 q 269 343 249 374 q 328 313 290 313 q 385 342 364 313 q 406 419 406 372 l 406 440 q 385 515 406 485 q 326 544 364 544 q 269 515 290 544 q 249 440 249 485 l 249 421 z "},"Ğ":{"ha":796,"x_min":64,"x_max":746,"o":"m 64 319 l 64 688 q 156 936 64 857 q 397 1015 249 1015 q 648 942 550 1015 q 746 739 746 868 q 721 658 746 679 q 638 636 696 636 q 529 701 531 636 q 528 734 529 721 q 519 767 526 747 q 500 797 513 786 q 463 817 488 808 q 406 826 439 826 q 281 688 281 826 l 281 319 q 404 181 281 181 q 529 319 529 181 l 529 367 l 447 367 q 399 391 417 367 q 382 450 382 415 q 400 508 382 482 q 447 533 418 533 l 681 533 q 728 513 711 533 q 746 465 746 493 l 746 319 q 653 71 746 150 q 404 -8 560 -8 q 157 71 250 -8 q 64 319 64 150 m 208 1338 l 319 1338 q 345 1265 319 1294 q 403 1236 371 1236 q 459 1265 433 1236 q 485 1338 485 1294 l 596 1338 q 537 1203 596 1261 q 403 1144 478 1144 q 268 1203 328 1144 q 208 1338 208 1261 z "},"ğ":{"ha":664,"x_min":17,"x_max":647,"o":"m 17 -100 q 110 44 17 -8 q 60 131 60 74 q 131 243 60 192 q 40 419 40 310 l 40 440 q 119 606 40 542 q 325 669 197 669 q 482 636 413 669 q 524 713 506 693 q 561 733 542 733 q 620 712 597 733 q 643 669 643 690 q 621 628 643 647 l 593 606 q 561 578 572 589 q 614 440 614 521 l 614 419 q 533 253 614 319 q 325 188 451 188 q 242 196 279 188 q 236 178 236 186 q 278 149 236 158 q 381 131 321 139 q 502 106 442 122 q 605 44 563 90 q 647 -75 647 -1 q 556 -245 647 -189 q 333 -301 464 -301 q 110 -247 203 -301 q 17 -100 17 -193 m 132 1006 l 243 1006 q 269 933 243 963 q 326 904 294 904 q 383 933 357 904 q 408 1006 408 963 l 519 1006 q 460 871 519 929 q 326 813 401 813 q 192 871 251 813 q 132 1006 132 929 m 219 -78 q 252 -142 219 -118 q 329 -165 285 -165 q 406 -142 374 -165 q 439 -81 439 -118 q 426 -42 439 -57 q 388 -17 414 -26 q 338 -3 363 -8 q 275 6 314 1 q 219 -78 219 -24 m 249 421 q 269 343 249 374 q 328 313 290 313 q 385 342 364 313 q 406 419 406 372 l 406 440 q 385 515 406 485 q 326 544 364 544 q 269 515 290 544 q 249 440 249 485 l 249 421 z "},"Ġ":{"ha":796,"x_min":64,"x_max":746,"o":"m 64 319 l 64 688 q 156 936 64 857 q 397 1015 249 1015 q 648 942 550 1015 q 746 739 746 868 q 721 658 746 679 q 638 636 696 636 q 529 701 531 636 q 528 734 529 721 q 519 767 526 747 q 500 797 513 786 q 463 817 488 808 q 406 826 439 826 q 281 688 281 826 l 281 319 q 404 181 281 181 q 529 319 529 181 l 529 367 l 447 367 q 399 391 417 367 q 382 450 382 415 q 400 508 382 482 q 447 533 418 533 l 681 533 q 728 513 711 533 q 746 465 746 493 l 746 319 q 653 71 746 150 q 404 -8 560 -8 q 157 71 250 -8 q 64 319 64 150 m 343 1150 q 331 1163 343 1150 q 319 1207 319 1175 q 343 1263 319 1239 q 399 1288 367 1288 q 453 1263 431 1288 q 476 1207 476 1239 q 453 1149 476 1174 q 399 1125 431 1125 q 343 1150 367 1125 z "},"ġ":{"ha":664,"x_min":17,"x_max":647,"o":"m 17 -100 q 110 44 17 -8 q 60 131 60 74 q 131 243 60 192 q 40 419 40 310 l 40 440 q 119 606 40 542 q 325 669 197 669 q 482 636 413 669 q 524 713 506 693 q 561 733 542 733 q 620 712 597 733 q 643 669 643 690 q 621 628 643 647 l 593 606 q 561 578 572 589 q 614 440 614 521 l 614 419 q 533 253 614 319 q 325 188 451 188 q 242 196 279 188 q 236 178 236 186 q 278 149 236 158 q 381 131 321 139 q 502 106 442 122 q 605 44 563 90 q 647 -75 647 -1 q 556 -245 647 -189 q 333 -301 464 -301 q 110 -247 203 -301 q 17 -100 17 -193 m 219 -78 q 252 -142 219 -118 q 329 -165 285 -165 q 406 -142 374 -165 q 439 -81 439 -118 q 426 -42 439 -57 q 388 -17 414 -26 q 338 -3 363 -8 q 275 6 314 1 q 219 -78 219 -24 m 271 818 q 259 831 271 818 q 247 875 247 843 q 271 931 247 907 q 326 956 294 956 q 381 931 358 956 q 404 875 404 907 q 381 817 404 842 q 326 793 358 793 q 271 818 294 793 m 249 421 q 269 343 249 374 q 328 313 290 313 q 385 342 364 313 q 406 419 406 372 l 406 440 q 385 515 406 485 q 326 544 364 544 q 269 515 290 544 q 249 440 249 485 l 249 421 z "},"Ģ":{"ha":796,"x_min":64,"x_max":746,"o":"m 64 319 l 64 688 q 156 936 64 857 q 397 1015 249 1015 q 648 942 550 1015 q 746 739 746 868 q 721 658 746 679 q 638 636 696 636 q 529 701 531 636 q 528 734 529 721 q 519 767 526 747 q 500 797 513 786 q 463 817 488 808 q 406 826 439 826 q 281 688 281 826 l 281 319 q 404 181 281 181 q 529 319 529 181 l 529 367 l 447 367 q 399 391 417 367 q 382 450 382 415 q 400 508 382 482 q 447 533 418 533 l 681 533 q 728 513 711 533 q 746 465 746 493 l 746 319 q 653 71 746 150 q 404 -8 560 -8 q 157 71 250 -8 q 64 319 64 150 m 250 -210 q 278 -161 250 -175 l 472 -71 q 492 -67 483 -67 q 538 -92 518 -67 q 557 -147 557 -118 q 529 -194 557 -181 l 335 -285 q 314 -290 321 -290 q 269 -265 288 -290 q 250 -210 250 -239 z "},"ģ":{"ha":664,"x_min":17,"x_max":647,"o":"m 17 -100 q 110 44 17 -8 q 60 131 60 74 q 131 243 60 192 q 40 419 40 310 l 40 440 q 119 606 40 542 q 325 669 197 669 q 482 636 413 669 q 524 713 506 693 q 561 733 542 733 q 620 712 597 733 q 643 669 643 690 q 621 628 643 647 l 593 606 q 561 578 572 589 q 614 440 614 521 l 614 419 q 533 253 614 319 q 325 188 451 188 q 242 196 279 188 q 236 178 236 186 q 278 149 236 158 q 381 131 321 139 q 502 106 442 122 q 605 44 563 90 q 647 -75 647 -1 q 556 -245 647 -189 q 333 -301 464 -301 q 110 -247 203 -301 q 17 -100 17 -193 m 204 857 q 232 906 204 892 l 426 996 q 446 1000 436 1000 q 492 974 472 1000 q 511 919 511 949 q 483 872 511 886 l 289 782 q 268 776 275 776 q 223 802 242 776 q 204 857 204 828 m 219 -78 q 252 -142 219 -118 q 329 -165 285 -165 q 406 -142 374 -165 q 439 -81 439 -118 q 426 -42 439 -57 q 388 -17 414 -26 q 338 -3 363 -8 q 275 6 314 1 q 219 -78 219 -24 m 231 1142 q 317 1364 231 1164 q 358 1389 328 1389 q 406 1374 383 1389 q 428 1335 428 1358 q 422 1313 428 1324 l 388 1238 q 443 1143 443 1206 q 412 1067 443 1099 q 338 1036 381 1036 q 263 1067 294 1036 q 231 1142 231 1099 m 249 421 q 269 343 249 374 q 328 313 290 313 q 385 342 364 313 q 406 419 406 372 l 406 440 q 385 515 406 485 q 326 544 364 544 q 269 515 290 544 q 249 440 249 485 l 249 421 z "},"Ĥ":{"ha":860,"x_min":75,"x_max":785,"o":"m 75 67 l 75 950 q 107 999 75 982 q 183 1015 139 1015 q 260 999 228 1015 q 292 950 292 982 l 292 610 l 568 610 l 568 950 q 600 999 568 982 q 676 1015 632 1015 q 753 999 721 1015 q 785 950 785 982 l 785 67 q 753 17 785 35 q 676 0 721 0 q 600 17 632 0 q 568 67 568 35 l 568 443 l 292 443 l 292 67 q 260 17 292 35 q 183 0 228 0 q 107 17 139 0 q 75 67 75 35 m 228 1186 q 263 1247 228 1228 l 407 1325 q 431 1332 421 1332 q 454 1325 440 1332 l 599 1247 q 633 1186 633 1228 q 621 1142 633 1161 q 590 1122 608 1122 q 575 1126 583 1122 l 431 1204 l 286 1126 q 271 1122 278 1122 q 240 1142 253 1122 q 228 1186 228 1161 z "},"ĥ":{"ha":743,"x_min":-36,"x_max":688,"o":"m -36 1208 q -1 1269 -36 1250 l 143 1347 q 167 1354 157 1354 q 190 1347 176 1354 l 335 1269 q 369 1208 369 1250 q 357 1164 369 1183 q 326 1144 344 1144 q 311 1149 319 1144 l 167 1226 l 22 1149 q 7 1144 14 1144 q -24 1164 -11 1144 q -36 1208 -36 1183 m 64 67 l 64 974 q 94 1021 64 1003 q 171 1039 124 1039 q 247 1021 215 1039 q 279 974 279 1003 l 279 564 q 345 639 300 608 q 451 669 390 669 q 617 583 547 669 q 688 378 688 497 l 688 67 q 656 17 688 35 q 579 0 624 0 q 505 18 538 0 q 472 67 472 36 l 472 378 q 442 450 472 418 q 372 482 413 482 q 308 453 336 482 q 279 378 279 425 l 279 67 q 247 21 279 42 q 171 0 214 0 q 94 20 125 0 q 64 67 64 40 z "},"Ħ":{"ha":865,"x_min":21,"x_max":843,"o":"m 34 759 q 27 769 34 759 q 21 807 21 779 q 34 855 21 835 q 72 875 47 875 l 78 875 l 78 950 q 110 999 78 982 q 186 1015 142 1015 q 263 999 231 1015 q 294 950 294 982 l 294 875 l 571 875 l 571 950 q 603 999 571 982 q 679 1015 635 1015 q 756 999 724 1015 q 788 950 788 982 l 788 875 l 793 875 q 831 855 818 875 q 843 807 843 835 q 831 758 843 778 q 793 739 818 739 l 788 739 l 788 67 q 756 17 788 35 q 679 0 724 0 q 603 17 635 0 q 571 67 571 35 l 571 443 l 294 443 l 294 67 q 263 17 294 35 q 186 0 231 0 q 110 17 142 0 q 78 67 78 35 l 78 739 l 72 739 q 34 759 47 739 m 294 610 l 571 610 l 571 739 l 294 739 l 294 610 z "},"ħ":{"ha":743,"x_min":-33,"x_max":688,"o":"m -33 825 q -15 874 -33 854 q 32 894 3 894 l 64 894 l 64 974 q 94 1021 64 1003 q 171 1039 124 1039 q 247 1021 215 1039 q 279 974 279 1003 l 279 894 l 310 894 q 356 874 336 894 q 376 825 376 853 q 356 776 376 796 q 310 757 336 757 l 279 757 l 279 564 q 345 639 300 608 q 451 669 390 669 q 617 583 547 669 q 688 378 688 497 l 688 67 q 656 17 688 35 q 579 0 624 0 q 505 18 538 0 q 472 67 472 36 l 472 378 q 442 450 472 418 q 372 482 413 482 q 308 453 336 482 q 279 378 279 425 l 279 67 q 247 21 279 42 q 171 0 214 0 q 94 20 125 0 q 64 67 64 40 l 64 757 l 32 757 q -15 776 3 757 q -33 825 -33 794 z "},"Ĩ":{"ha":367,"x_min":-64,"x_max":429,"o":"m -64 1213 q 54 1314 -64 1314 q 158 1295 97 1314 q 257 1276 219 1276 q 326 1291 289 1276 q 376 1306 364 1306 q 417 1281 404 1306 q 429 1238 429 1257 q 311 1136 429 1136 q 198 1155 258 1136 q 108 1174 138 1174 q 39 1159 76 1174 q -11 1144 1 1144 q -51 1169 -39 1144 q -64 1213 -64 1193 m 75 67 l 75 950 q 107 999 75 982 q 183 1015 139 1015 q 260 999 228 1015 q 292 950 292 982 l 292 67 q 260 17 292 35 q 183 0 228 0 q 107 17 139 0 q 75 67 75 35 z "},"ĩ":{"ha":339,"x_min":-75,"x_max":418,"o":"m -75 881 q 43 982 -75 982 q 147 963 86 982 q 246 944 208 944 q 315 959 278 944 q 365 974 353 974 q 406 949 393 974 q 418 906 418 925 q 300 804 418 804 q 187 823 247 804 q 97 842 126 842 q 28 827 65 842 q -22 813 -10 813 q -62 837 -50 813 q -75 881 -75 861 m 63 67 l 63 596 q 92 643 63 625 q 169 661 122 661 q 247 643 215 661 q 278 596 278 625 l 278 67 q 246 21 278 42 q 169 0 214 0 q 93 20 124 0 q 63 67 63 40 z "},"Ī":{"ha":367,"x_min":-22,"x_max":388,"o":"m -22 1233 q -4 1283 -22 1263 q 43 1303 14 1303 l 321 1303 q 367 1282 347 1303 q 388 1233 388 1261 q 367 1185 388 1204 q 321 1165 347 1165 l 43 1165 q -4 1184 14 1165 q -22 1233 -22 1203 m 75 67 l 75 950 q 107 999 75 982 q 183 1015 139 1015 q 260 999 228 1015 q 292 950 292 982 l 292 67 q 260 17 292 35 q 183 0 228 0 q 107 17 139 0 q 75 67 75 35 z "},"ī":{"ha":339,"x_min":-33,"x_max":376,"o":"m -33 901 q -15 951 -33 931 q 32 971 3 971 l 310 971 q 356 951 336 971 q 376 901 376 931 q 356 853 376 872 q 310 833 336 833 l 32 833 q -15 852 3 833 q -33 901 -33 871 m 63 67 l 63 596 q 92 643 63 625 q 169 661 122 661 q 247 643 215 661 q 278 596 278 625 l 278 67 q 246 21 278 42 q 169 0 214 0 q 93 20 124 0 q 63 67 63 40 z "},"Ĭ":{"ha":367,"x_min":-10,"x_max":378,"o":"m -10 1338 l 101 1338 q 127 1265 101 1294 q 185 1236 153 1236 q 241 1265 215 1236 q 267 1338 267 1294 l 378 1338 q 319 1203 378 1261 q 185 1144 260 1144 q 50 1203 110 1144 q -10 1338 -10 1261 m 75 67 l 75 950 q 107 999 75 982 q 183 1015 139 1015 q 260 999 228 1015 q 292 950 292 982 l 292 67 q 260 17 292 35 q 183 0 228 0 q 107 17 139 0 q 75 67 75 35 z "},"ĭ":{"ha":339,"x_min":-24,"x_max":364,"o":"m -24 1006 l 88 1006 q 113 933 88 963 q 171 904 139 904 q 227 933 201 904 q 253 1006 253 963 l 364 1006 q 305 871 364 929 q 171 813 246 813 q 36 871 96 813 q -24 1006 -24 929 m 63 67 l 63 596 q 92 643 63 625 q 169 661 122 661 q 247 643 215 661 q 278 596 278 625 l 278 67 q 246 21 278 42 q 169 0 214 0 q 93 20 124 0 q 63 67 63 40 z "},"Į":{"ha":367,"x_min":36,"x_max":292,"o":"m 36 -168 q 128 8 36 -68 q 75 67 75 25 l 75 950 q 107 999 75 982 q 183 1015 139 1015 q 260 999 228 1015 q 292 950 292 982 l 292 67 q 242 10 292 26 q 167 -62 197 -15 q 138 -149 138 -108 q 218 -215 138 -215 q 253 -262 253 -215 q 210 -303 253 -303 q 79 -265 122 -303 q 36 -168 36 -228 z "},"į":{"ha":339,"x_min":18,"x_max":282,"o":"m 18 -168 q 43 -73 18 -121 q 113 10 68 -25 q 63 67 63 31 l 63 596 q 92 643 63 625 q 169 661 122 661 q 247 643 215 661 q 278 596 278 625 l 278 67 q 228 11 278 32 q 151 -60 182 -14 q 119 -149 119 -107 q 200 -215 119 -215 q 235 -262 235 -215 q 192 -303 235 -303 q 61 -265 104 -303 q 18 -168 18 -228 m 89 819 q 72 834 89 819 q 56 889 56 849 q 89 958 56 929 q 169 988 122 988 q 249 958 215 988 q 282 889 282 929 q 249 819 282 849 q 169 789 215 789 q 89 819 122 789 z "},"İ":{"ha":367,"x_min":75,"x_max":292,"o":"m 75 67 l 75 950 q 107 999 75 982 q 183 1015 139 1015 q 260 999 228 1015 q 292 950 292 982 l 292 67 q 260 17 292 35 q 183 0 228 0 q 107 17 139 0 q 75 67 75 35 m 129 1150 q 117 1163 129 1150 q 106 1207 106 1175 q 129 1263 106 1239 q 185 1288 153 1288 q 240 1263 217 1288 q 263 1207 263 1239 q 240 1149 263 1174 q 185 1125 217 1125 q 129 1150 153 1125 z "},"ı":{"ha":339,"x_min":63,"x_max":278,"o":"m 63 67 l 63 596 q 92 643 63 625 q 169 661 122 661 q 247 643 215 661 q 278 596 278 625 l 278 67 q 246 21 278 42 q 169 0 214 0 q 93 20 124 0 q 63 67 63 40 z "},"Ĳ":{"ha":1118,"x_min":75,"x_max":1047,"o":"m 75 67 l 75 950 q 107 999 75 982 q 183 1015 139 1015 q 260 999 228 1015 q 292 950 292 982 l 292 67 q 260 17 292 35 q 183 0 228 0 q 107 17 139 0 q 75 67 75 35 m 365 282 q 390 363 365 342 q 475 385 415 385 q 582 319 576 385 q 588 274 585 290 q 603 231 592 257 q 640 193 614 206 q 704 181 665 181 q 831 319 831 181 l 831 826 l 710 826 q 662 854 679 826 q 644 922 644 882 q 661 988 644 960 q 710 1015 678 1015 l 953 1015 q 1019 998 992 1015 q 1047 949 1047 981 l 1047 319 q 955 71 1047 150 q 714 -8 863 -8 q 463 69 561 -8 q 365 282 365 147 z "},"ĳ":{"ha":643,"x_min":56,"x_max":585,"o":"m 89 819 q 72 834 89 819 q 56 889 56 849 q 89 958 56 929 q 169 988 122 988 q 249 958 215 988 q 282 889 282 929 q 249 819 282 849 q 169 789 215 789 q 89 819 122 789 m 63 67 l 63 596 q 92 643 63 625 q 169 661 122 661 q 247 643 215 661 q 278 596 278 625 l 278 67 q 246 21 278 42 q 169 0 214 0 q 93 20 124 0 q 63 67 63 40 m 247 -214 q 270 -147 247 -172 q 328 -121 293 -121 q 358 -101 351 -121 q 365 -39 365 -81 l 365 596 q 395 643 365 625 q 471 661 425 661 q 549 643 518 661 q 581 596 581 625 l 581 -39 q 522 -229 581 -157 q 360 -301 464 -301 q 247 -214 247 -301 m 392 819 q 375 834 392 819 q 358 889 358 849 q 392 958 358 929 q 472 988 425 988 q 551 958 518 988 q 585 889 585 929 q 551 819 585 849 q 472 789 518 789 q 392 819 425 789 z "},"Ĵ":{"ha":761,"x_min":8,"x_max":690,"o":"m 8 282 q 33 363 8 342 q 118 385 58 385 q 225 319 219 385 q 231 274 228 290 q 246 231 235 257 q 283 193 257 206 q 347 181 308 181 q 474 319 474 181 l 474 826 l 353 826 q 305 854 322 826 q 288 922 288 882 q 304 988 288 960 q 353 1015 321 1015 l 596 1015 q 663 998 635 1015 q 690 949 690 981 l 690 319 q 598 71 690 150 q 357 -8 506 -8 q 106 69 204 -8 q 8 282 8 147 m 178 1186 q 213 1247 178 1228 l 357 1325 q 381 1332 371 1332 q 404 1325 390 1332 l 549 1247 q 583 1186 583 1228 q 571 1142 583 1161 q 540 1122 558 1122 q 525 1126 533 1122 l 381 1204 l 236 1126 q 221 1122 228 1122 q 190 1142 203 1122 q 178 1186 178 1161 z "},"ĵ":{"ha":340,"x_min":-56,"x_max":374,"o":"m -56 -214 q -33 -147 -56 -172 q 25 -121 -10 -121 q 56 -101 49 -121 q 63 -39 63 -81 l 63 596 q 92 643 63 625 q 168 661 122 661 q 247 643 215 661 q 278 596 278 625 l 278 -39 q 219 -229 278 -157 q 57 -301 161 -301 q -56 -214 -56 -301 m -32 854 q 3 915 -32 896 l 147 993 q 171 1000 161 1000 q 194 993 181 1000 l 339 915 q 374 854 374 896 q 361 810 374 829 q 331 790 349 790 q 315 794 324 790 l 171 872 l 26 794 q 11 790 18 790 q -19 810 -7 790 q -32 854 -32 829 z "},"Ķ":{"ha":786,"x_min":75,"x_max":793,"o":"m 75 67 l 75 950 q 107 999 75 982 q 183 1015 139 1015 q 260 999 228 1015 q 292 950 292 982 l 292 617 l 551 985 q 608 1015 572 1015 q 694 980 651 1015 q 736 904 736 944 q 722 863 736 882 l 494 576 l 782 136 q 793 100 793 118 q 751 26 793 60 q 663 -8 710 -8 q 588 32 613 -8 l 350 393 l 292 318 l 292 67 q 260 17 292 35 q 183 0 228 0 q 107 17 139 0 q 75 67 75 35 m 246 -210 q 274 -161 246 -175 l 468 -71 q 488 -67 478 -67 q 533 -92 514 -67 q 553 -147 553 -118 q 525 -194 553 -181 l 331 -285 q 310 -290 317 -290 q 265 -265 283 -290 q 246 -210 246 -239 z "},"ķ":{"ha":707,"x_min":64,"x_max":693,"o":"m 64 67 l 64 974 q 94 1021 64 1003 q 169 1039 124 1039 q 248 1021 217 1039 q 279 974 279 1003 l 279 429 l 510 653 q 551 669 526 669 q 621 635 586 669 q 656 567 656 601 q 639 529 656 546 l 492 393 l 682 126 q 693 93 693 108 q 651 22 693 57 q 569 -14 610 -14 q 518 13 536 -14 l 350 261 l 279 196 l 279 67 q 247 21 279 42 q 169 0 214 0 q 94 20 125 0 q 64 67 64 40 m 197 -210 q 225 -161 197 -175 l 419 -71 q 439 -67 431 -67 q 485 -92 465 -67 q 504 -147 504 -118 q 476 -194 504 -181 l 282 -285 q 261 -290 268 -290 q 216 -265 235 -290 q 197 -210 197 -239 z "},"ĸ":{"ha":706,"x_min":63,"x_max":692,"o":"m 63 67 l 63 596 q 92 643 63 625 q 168 661 122 661 q 247 643 215 661 q 278 596 278 625 l 278 429 l 508 653 q 550 669 525 669 q 619 635 585 669 q 654 567 654 601 q 638 529 654 546 l 490 393 l 681 126 q 692 93 692 108 q 650 22 692 57 q 568 -14 608 -14 q 517 13 535 -14 l 349 261 l 278 196 l 278 67 q 245 21 278 42 q 168 0 213 0 q 93 20 124 0 q 63 67 63 40 z "},"Ĺ":{"ha":683,"x_min":75,"x_max":671,"o":"m 75 67 l 75 950 q 107 999 75 982 q 183 1015 139 1015 q 260 999 228 1015 q 292 950 292 982 l 292 189 l 608 189 q 654 161 638 189 q 671 94 671 133 q 654 28 671 56 q 608 0 638 0 l 169 0 q 103 17 131 0 q 75 67 75 35 m 203 1189 q 231 1238 203 1224 l 425 1328 q 444 1332 436 1332 q 490 1306 471 1332 q 510 1251 510 1281 q 482 1204 510 1218 l 288 1114 q 267 1108 274 1108 q 222 1134 240 1108 q 203 1189 203 1160 z "},"ĺ":{"ha":365,"x_min":71,"x_max":378,"o":"m 71 1176 q 99 1225 71 1211 l 293 1315 q 313 1319 303 1319 q 358 1294 339 1319 q 378 1239 378 1268 q 350 1192 378 1206 l 156 1101 q 135 1096 142 1096 q 90 1122 108 1096 q 71 1176 71 1147 m 75 67 l 75 974 q 105 1021 75 1003 q 182 1039 135 1039 q 259 1021 228 1039 q 290 974 290 1003 l 290 67 q 258 21 290 42 q 182 0 226 0 q 106 20 136 0 q 75 67 75 40 z "},"Ļ":{"ha":683,"x_min":75,"x_max":671,"o":"m 75 67 l 75 950 q 107 999 75 982 q 183 1015 139 1015 q 260 999 228 1015 q 292 950 292 982 l 292 189 l 608 189 q 654 161 638 189 q 671 94 671 133 q 654 28 671 56 q 608 0 638 0 l 169 0 q 103 17 131 0 q 75 67 75 35 m 208 -210 q 236 -161 208 -175 l 431 -71 q 450 -67 442 -67 q 496 -92 476 -67 q 515 -147 515 -118 q 488 -194 515 -181 l 293 -285 q 272 -290 279 -290 q 227 -265 246 -290 q 208 -210 208 -239 z "},"ļ":{"ha":365,"x_min":29,"x_max":336,"o":"m 29 -210 q 57 -161 29 -175 l 251 -71 q 271 -67 261 -67 q 317 -92 297 -67 q 336 -147 336 -118 q 308 -194 336 -181 l 114 -285 q 93 -290 100 -290 q 48 -265 67 -290 q 29 -210 29 -239 m 75 67 l 75 974 q 105 1021 75 1003 q 182 1039 135 1039 q 259 1021 228 1039 q 290 974 290 1003 l 290 67 q 258 21 290 42 q 182 0 226 0 q 106 20 136 0 q 75 67 75 40 z "},"Ľ":{"ha":686,"x_min":75,"x_max":671,"o":"m 75 67 l 75 950 q 107 999 75 982 q 183 1015 139 1015 q 260 999 228 1015 q 292 950 292 982 l 292 189 l 608 189 q 654 161 638 189 q 671 94 671 133 q 654 28 671 56 q 608 0 638 0 l 169 0 q 103 17 131 0 q 75 67 75 35 m 435 922 q 466 998 435 967 q 540 1029 497 1029 q 615 998 583 1029 q 647 924 647 967 q 561 701 647 901 q 519 676 550 676 q 472 692 494 676 q 450 731 450 707 q 456 753 450 742 l 490 828 q 435 922 435 860 z "},"ľ":{"ha":365,"x_min":75,"x_max":571,"o":"m 75 67 l 75 974 q 105 1021 75 1003 q 182 1039 135 1039 q 259 1021 228 1039 q 290 974 290 1003 l 290 67 q 258 21 290 42 q 182 0 226 0 q 106 20 136 0 q 75 67 75 40 m 358 922 q 390 998 358 967 q 464 1029 421 1029 q 539 998 507 1029 q 571 924 571 967 q 485 701 571 901 q 443 676 474 676 q 396 692 418 676 q 374 731 374 707 q 379 753 374 742 l 414 828 q 358 922 358 860 z "},"Ŀ":{"ha":685,"x_min":75,"x_max":671,"o":"m 75 67 l 75 950 q 107 999 75 982 q 183 1015 139 1015 q 260 999 228 1015 q 292 950 292 982 l 292 189 l 608 189 q 654 161 638 189 q 671 94 671 133 q 654 28 671 56 q 608 0 638 0 l 169 0 q 103 17 131 0 q 75 67 75 35 m 450 515 q 433 530 450 515 q 417 585 417 544 q 450 654 417 625 q 531 683 483 683 q 610 654 576 683 q 643 585 643 625 q 610 515 643 544 q 531 485 576 485 q 450 515 483 485 z "},"ŀ":{"ha":544,"x_min":75,"x_max":553,"o":"m 75 67 l 75 974 q 105 1021 75 1003 q 182 1039 135 1039 q 259 1021 228 1039 q 290 974 290 1003 l 290 67 q 258 21 290 42 q 182 0 226 0 q 106 20 136 0 q 75 67 75 40 m 360 347 q 343 361 360 347 q 326 417 326 376 q 360 486 326 457 q 440 515 393 515 q 519 486 486 515 q 553 417 553 457 q 519 347 553 376 q 440 317 486 317 q 360 347 393 317 z "},"Ł":{"ha":692,"x_min":-14,"x_max":679,"o":"m -14 440 q 11 488 -14 476 l 83 521 l 83 950 q 115 999 83 982 q 192 1015 147 1015 q 268 999 236 1015 q 300 950 300 982 l 300 622 l 363 651 q 379 656 371 656 q 431 624 408 656 q 454 560 454 592 q 428 513 454 525 l 300 453 l 300 189 l 617 189 q 663 161 646 189 q 679 94 679 133 q 663 28 679 56 q 617 0 646 0 l 178 0 q 111 17 139 0 q 83 67 83 35 l 83 351 l 76 349 q 58 344 68 344 q 8 375 31 344 q -14 440 -14 406 z "},"ł":{"ha":467,"x_min":18,"x_max":450,"o":"m 18 440 q 43 488 18 476 l 125 525 l 125 974 q 155 1021 125 1003 q 232 1039 185 1039 q 309 1021 278 1039 q 340 974 340 1003 l 340 626 l 358 635 q 375 639 367 639 q 427 607 404 639 q 450 543 450 575 q 424 496 450 508 l 340 457 l 340 67 q 308 21 340 42 q 232 0 276 0 q 156 20 186 0 q 125 67 125 40 l 125 356 l 108 349 q 90 344 100 344 q 40 375 63 344 q 18 440 18 406 z "},"Ń":{"ha":860,"x_min":75,"x_max":785,"o":"m 75 67 l 75 949 q 107 998 75 981 q 183 1015 139 1015 q 276 997 246 1015 q 343 907 306 979 l 568 478 l 568 950 q 600 999 568 982 q 676 1015 632 1015 q 753 999 721 1015 q 785 950 785 982 l 785 67 q 753 17 785 35 q 676 0 721 0 q 556 58 588 0 l 292 539 l 292 67 q 260 17 292 35 q 183 0 228 0 q 107 17 139 0 q 75 67 75 35 m 257 1189 q 285 1238 257 1224 l 479 1328 q 499 1332 489 1332 q 544 1306 525 1332 q 564 1251 564 1281 q 536 1204 564 1218 l 342 1114 q 321 1108 328 1108 q 276 1134 294 1108 q 257 1189 257 1160 z "},"ń":{"ha":742,"x_min":63,"x_max":686,"o":"m 63 67 l 63 596 q 92 643 63 625 q 169 661 122 661 q 236 643 208 661 q 264 596 264 625 l 264 564 q 335 639 286 608 q 450 669 385 669 q 616 583 546 669 q 686 378 686 497 l 686 67 q 654 17 686 35 q 578 0 622 0 q 503 18 536 0 q 471 67 471 36 l 471 378 q 441 450 471 418 q 371 482 411 482 q 306 453 335 482 q 278 378 278 425 l 278 67 q 245 21 278 42 q 169 0 213 0 q 93 20 124 0 q 63 67 63 40 m 231 857 q 258 906 231 892 l 453 996 q 472 1000 464 1000 q 518 974 499 1000 q 538 919 538 949 q 510 872 538 886 l 315 782 q 294 776 301 776 q 249 802 268 776 q 231 857 231 828 z "},"Ņ":{"ha":860,"x_min":75,"x_max":785,"o":"m 75 67 l 75 949 q 107 998 75 981 q 183 1015 139 1015 q 276 997 246 1015 q 343 907 306 979 l 568 478 l 568 950 q 600 999 568 982 q 676 1015 632 1015 q 753 999 721 1015 q 785 950 785 982 l 785 67 q 753 17 785 35 q 676 0 721 0 q 556 58 588 0 l 292 539 l 292 67 q 260 17 292 35 q 183 0 228 0 q 107 17 139 0 q 75 67 75 35 m 276 -210 q 304 -161 276 -175 l 499 -71 q 518 -67 508 -67 q 564 -92 544 -67 q 583 -147 583 -118 q 556 -194 583 -181 l 361 -285 q 340 -290 347 -290 q 295 -265 314 -290 q 276 -210 276 -239 z "},"ņ":{"ha":742,"x_min":63,"x_max":686,"o":"m 63 67 l 63 596 q 92 643 63 625 q 169 661 122 661 q 236 643 208 661 q 264 596 264 625 l 264 564 q 335 639 286 608 q 450 669 385 669 q 616 583 546 669 q 686 378 686 497 l 686 67 q 654 17 686 35 q 578 0 622 0 q 503 18 536 0 q 471 67 471 36 l 471 378 q 441 450 471 418 q 371 482 411 482 q 306 453 335 482 q 278 378 278 425 l 278 67 q 245 21 278 42 q 169 0 213 0 q 93 20 124 0 q 63 67 63 40 m 219 -210 q 247 -161 219 -175 l 442 -71 q 461 -67 453 -67 q 507 -92 488 -67 q 526 -147 526 -118 q 499 -194 526 -181 l 304 -285 q 283 -290 290 -290 q 238 -265 257 -290 q 219 -210 219 -239 z "},"Ň":{"ha":860,"x_min":75,"x_max":785,"o":"m 75 67 l 75 949 q 107 998 75 981 q 183 1015 139 1015 q 276 997 246 1015 q 343 907 306 979 l 568 478 l 568 950 q 600 999 568 982 q 676 1015 632 1015 q 753 999 721 1015 q 785 950 785 982 l 785 67 q 753 17 785 35 q 676 0 721 0 q 556 58 588 0 l 292 539 l 292 67 q 260 17 292 35 q 183 0 228 0 q 107 17 139 0 q 75 67 75 35 m 228 1285 q 240 1329 228 1310 q 271 1349 253 1349 q 286 1344 278 1349 l 431 1267 l 575 1344 q 590 1349 583 1349 q 621 1329 608 1349 q 633 1285 633 1310 q 599 1224 633 1243 l 454 1146 q 431 1139 440 1139 q 407 1146 421 1139 l 263 1224 q 228 1285 228 1243 z "},"ň":{"ha":742,"x_min":63,"x_max":686,"o":"m 63 67 l 63 596 q 92 643 63 625 q 169 661 122 661 q 236 643 208 661 q 264 596 264 625 l 264 564 q 335 639 286 608 q 450 669 385 669 q 616 583 546 669 q 686 378 686 497 l 686 67 q 654 17 686 35 q 578 0 622 0 q 503 18 536 0 q 471 67 471 36 l 471 378 q 441 450 471 418 q 371 482 411 482 q 306 453 335 482 q 278 378 278 425 l 278 67 q 245 21 278 42 q 169 0 213 0 q 93 20 124 0 q 63 67 63 40 m 164 953 q 176 997 164 978 q 207 1017 189 1017 q 222 1013 214 1017 l 367 935 l 511 1013 q 526 1017 519 1017 q 557 997 544 1017 q 569 953 569 978 q 535 892 569 911 l 390 814 q 367 807 376 807 q 343 814 357 807 l 199 892 q 164 953 164 911 z "},"Ŋ":{"ha":861,"x_min":75,"x_max":785,"o":"m 75 67 l 75 949 q 107 998 75 981 q 183 1015 139 1015 q 276 997 246 1015 q 343 907 306 979 l 568 478 l 568 950 q 600 999 568 982 q 676 1015 632 1015 q 753 999 721 1015 q 785 950 785 982 l 785 -39 q 726 -229 785 -157 q 564 -301 668 -301 q 451 -214 451 -301 q 474 -147 451 -172 q 532 -121 497 -121 q 568 -39 568 -121 l 568 11 q 556 58 568 36 l 292 539 l 292 67 q 260 17 292 35 q 183 0 228 0 q 107 17 139 0 q 75 67 75 35 z "},"ŋ":{"ha":743,"x_min":63,"x_max":686,"o":"m 63 67 l 63 596 q 92 643 63 625 q 169 661 122 661 q 236 643 208 661 q 264 596 264 625 l 264 564 q 335 639 286 608 q 450 669 385 669 q 616 583 546 669 q 686 378 686 497 l 686 -39 q 628 -229 686 -157 q 465 -301 569 -301 q 353 -214 353 -301 q 376 -147 353 -172 q 433 -121 399 -121 q 464 -101 457 -121 q 471 -39 471 -81 l 471 378 q 441 450 471 418 q 371 482 411 482 q 306 453 335 482 q 278 378 278 425 l 278 67 q 245 21 278 42 q 169 0 213 0 q 93 20 124 0 q 63 67 63 40 z "},"Ō":{"ha":810,"x_min":64,"x_max":746,"o":"m 64 319 l 64 688 q 157 936 64 857 q 404 1015 250 1015 q 653 936 560 1015 q 746 688 746 857 l 746 319 q 653 71 746 150 q 404 -8 560 -8 q 157 71 250 -8 q 64 319 64 150 m 200 1233 q 218 1283 200 1263 q 265 1303 236 1303 l 543 1303 q 590 1282 569 1303 q 610 1233 610 1261 q 590 1185 610 1204 q 543 1165 569 1165 l 265 1165 q 218 1184 236 1165 q 200 1233 200 1203 m 281 319 q 404 181 281 181 q 529 319 529 181 l 529 688 q 404 826 529 826 q 281 688 281 826 l 281 319 z "},"ō":{"ha":707,"x_min":38,"x_max":669,"o":"m 38 281 l 38 378 q 131 583 38 496 q 353 669 224 669 q 575 583 481 669 q 669 378 669 497 l 669 281 q 574 75 669 164 q 353 -14 479 -14 q 132 75 226 -14 q 38 281 38 164 m 149 901 q 167 951 149 931 q 214 971 185 971 l 492 971 q 538 951 517 971 q 558 901 558 931 q 538 853 558 872 q 492 833 518 833 l 214 833 q 167 852 185 833 q 149 901 149 871 m 253 281 q 282 206 253 239 q 353 174 311 174 q 424 206 394 174 q 454 281 454 239 l 454 378 q 424 450 454 418 q 353 482 393 482 q 283 450 313 482 q 253 378 253 418 l 253 281 z "},"Ŏ":{"ha":810,"x_min":64,"x_max":746,"o":"m 64 319 l 64 688 q 157 936 64 857 q 404 1015 250 1015 q 653 936 560 1015 q 746 688 746 857 l 746 319 q 653 71 746 150 q 404 -8 560 -8 q 157 71 250 -8 q 64 319 64 150 m 210 1338 l 321 1338 q 347 1265 321 1294 q 404 1236 372 1236 q 460 1265 435 1236 q 486 1338 486 1294 l 597 1338 q 538 1203 597 1261 q 404 1144 479 1144 q 269 1203 329 1144 q 210 1338 210 1261 m 281 319 q 404 181 281 181 q 529 319 529 181 l 529 688 q 404 826 529 826 q 281 688 281 826 l 281 319 z "},"ŏ":{"ha":707,"x_min":38,"x_max":669,"o":"m 38 281 l 38 378 q 131 583 38 496 q 353 669 224 669 q 575 583 481 669 q 669 378 669 497 l 669 281 q 574 75 669 164 q 353 -14 479 -14 q 132 75 226 -14 q 38 281 38 164 m 161 1006 l 272 1006 q 298 933 272 963 q 356 904 324 904 q 412 933 386 904 q 438 1006 438 963 l 549 1006 q 490 871 549 929 q 356 813 431 813 q 221 871 281 813 q 161 1006 161 929 m 253 281 q 282 206 253 239 q 353 174 311 174 q 424 206 394 174 q 454 281 454 239 l 454 378 q 424 450 454 418 q 353 482 393 482 q 283 450 313 482 q 253 378 253 418 l 253 281 z "},"Ő":{"ha":810,"x_min":64,"x_max":746,"o":"m 64 319 l 64 688 q 157 936 64 857 q 404 1015 250 1015 q 653 936 560 1015 q 746 688 746 857 l 746 319 q 653 71 746 150 q 404 -8 560 -8 q 157 71 250 -8 q 64 319 64 150 m 225 1165 q 235 1189 225 1178 l 344 1321 q 375 1335 356 1335 q 417 1315 397 1335 q 436 1275 436 1294 q 428 1251 436 1261 l 318 1119 q 289 1104 307 1104 q 245 1124 265 1104 q 225 1165 225 1144 m 281 319 q 404 181 281 181 q 529 319 529 181 l 529 688 q 404 826 529 826 q 281 688 281 826 l 281 319 m 447 1165 q 457 1189 447 1178 l 567 1321 q 597 1335 578 1335 q 639 1315 619 1335 q 658 1275 658 1294 q 650 1251 658 1261 l 540 1119 q 511 1104 529 1104 q 467 1124 488 1104 q 447 1165 447 1144 z "},"ő":{"ha":707,"x_min":38,"x_max":669,"o":"m 38 281 l 38 378 q 131 583 38 496 q 353 669 224 669 q 575 583 481 669 q 669 378 669 497 l 669 281 q 574 75 669 164 q 353 -14 479 -14 q 132 75 226 -14 q 38 281 38 164 m 179 836 q 189 860 179 849 l 299 992 q 329 1006 308 1006 q 370 986 350 1006 q 390 946 390 967 q 382 922 390 933 l 272 790 q 243 775 261 775 q 199 795 219 775 q 179 836 179 815 m 253 281 q 282 206 253 239 q 353 174 311 174 q 424 206 394 174 q 454 281 454 239 l 454 378 q 424 450 454 418 q 353 482 393 482 q 283 450 313 482 q 253 378 253 418 l 253 281 m 401 836 q 411 860 401 849 l 521 992 q 551 1006 531 1006 q 592 986 572 1006 q 613 946 613 967 q 604 922 613 933 l 494 790 q 465 775 483 775 q 422 795 442 775 q 401 836 401 815 z "},"Œ":{"ha":1147,"x_min":65,"x_max":1128,"o":"m 65 319 l 65 688 q 364 1015 65 1015 q 479 988 424 1015 q 560 913 535 961 l 560 949 q 588 998 560 981 q 654 1015 615 1015 l 1063 1015 q 1111 988 1094 1015 q 1128 922 1128 960 q 1110 854 1128 882 q 1063 826 1093 826 l 749 826 l 749 592 l 899 592 q 947 567 929 592 q 964 507 964 542 q 947 450 964 475 q 899 425 931 425 l 749 425 l 749 189 l 1063 189 q 1110 161 1093 189 q 1128 93 1128 133 q 1111 28 1128 56 q 1063 0 1094 0 l 654 0 q 588 17 615 0 q 560 67 560 35 l 560 94 q 479 19 535 46 q 364 -8 424 -8 q 65 319 65 -8 m 282 319 q 406 181 282 181 q 531 319 531 181 l 531 688 q 406 826 531 826 q 282 688 282 826 l 282 319 z "},"œ":{"ha":1106,"x_min":38,"x_max":1072,"o":"m 38 281 l 38 378 q 131 583 38 496 q 353 669 224 669 q 572 569 483 669 q 774 669 661 669 q 985 595 897 669 q 1072 406 1072 521 q 1061 333 1072 361 q 1028 294 1050 306 q 987 280 1006 283 q 938 276 968 276 l 669 276 l 669 268 q 708 185 669 217 q 811 154 747 154 q 913 180 860 154 q 985 206 967 206 q 1042 173 1019 206 q 1064 111 1064 140 q 990 27 1064 68 q 806 -14 915 -14 q 572 86 664 -14 q 353 -14 479 -14 q 132 75 226 -14 q 38 281 38 164 m 253 281 q 282 206 253 239 q 353 174 311 174 q 424 206 394 174 q 454 281 454 239 l 454 378 q 424 450 454 418 q 353 482 393 482 q 283 450 313 482 q 253 378 253 418 l 253 281 m 669 397 l 842 397 q 871 431 871 397 q 841 492 871 469 q 769 514 811 514 q 699 492 729 514 q 669 431 669 469 l 669 397 z "},"Ŕ":{"ha":811,"x_min":75,"x_max":779,"o":"m 75 67 l 75 950 q 94 996 75 976 q 142 1015 113 1015 l 429 1015 q 771 718 771 1015 q 603 436 771 501 l 772 129 q 779 104 779 119 q 735 28 779 64 q 643 -8 692 -8 q 574 32 594 -8 l 383 401 l 292 401 l 292 67 q 260 17 292 35 q 183 0 228 0 q 107 17 139 0 q 75 67 75 35 m 292 568 l 429 568 q 522 598 490 568 q 554 697 554 628 q 522 797 554 767 q 429 826 490 826 l 292 826 l 292 568 m 303 1189 q 331 1238 303 1224 l 525 1328 q 544 1332 536 1332 q 590 1306 571 1332 q 610 1251 610 1281 q 582 1204 610 1218 l 388 1114 q 367 1108 374 1108 q 322 1134 340 1108 q 303 1189 303 1160 z "},"ŕ":{"ha":547,"x_min":63,"x_max":546,"o":"m 63 67 l 63 596 q 92 643 63 625 q 168 661 122 661 q 236 643 208 661 q 264 596 264 625 l 264 544 q 333 632 286 594 q 429 669 379 669 l 469 669 q 523 642 500 669 q 546 576 546 614 q 523 510 546 538 q 469 482 500 482 l 429 482 q 324 424 369 482 q 278 275 278 367 l 278 67 q 245 21 278 42 q 168 0 213 0 q 93 20 124 0 q 63 67 63 40 m 161 857 q 189 906 161 892 l 383 996 q 403 1000 394 1000 q 449 974 429 1000 q 468 919 468 949 q 440 872 468 886 l 246 782 q 225 776 232 776 q 180 802 199 776 q 161 857 161 828 z "},"Ŗ":{"ha":811,"x_min":75,"x_max":779,"o":"m 75 67 l 75 950 q 94 996 75 976 q 142 1015 113 1015 l 429 1015 q 771 718 771 1015 q 603 436 771 501 l 772 129 q 779 104 779 119 q 735 28 779 64 q 643 -8 692 -8 q 574 32 594 -8 l 383 401 l 292 401 l 292 67 q 260 17 292 35 q 183 0 228 0 q 107 17 139 0 q 75 67 75 35 m 254 -210 q 282 -161 254 -175 l 476 -71 q 496 -67 486 -67 q 542 -92 522 -67 q 561 -147 561 -118 q 533 -194 561 -181 l 339 -285 q 318 -290 325 -290 q 273 -265 292 -290 q 254 -210 254 -239 m 292 568 l 429 568 q 522 598 490 568 q 554 697 554 628 q 522 797 554 767 q 429 826 490 826 l 292 826 l 292 568 z "},"ŗ":{"ha":547,"x_min":15,"x_max":546,"o":"m 15 -210 q 43 -161 15 -175 l 238 -71 q 257 -67 247 -67 q 303 -92 283 -67 q 322 -147 322 -118 q 294 -194 322 -181 l 100 -285 q 79 -290 86 -290 q 34 -265 53 -290 q 15 -210 15 -239 m 63 67 l 63 596 q 92 643 63 625 q 168 661 122 661 q 236 643 208 661 q 264 596 264 625 l 264 544 q 333 632 286 594 q 429 669 379 669 l 469 669 q 523 642 500 669 q 546 576 546 614 q 523 510 546 538 q 469 482 500 482 l 429 482 q 324 424 369 482 q 278 275 278 367 l 278 67 q 245 21 278 42 q 168 0 213 0 q 93 20 124 0 q 63 67 63 40 z "},"Ř":{"ha":811,"x_min":75,"x_max":779,"o":"m 75 67 l 75 950 q 94 996 75 976 q 142 1015 113 1015 l 429 1015 q 771 718 771 1015 q 603 436 771 501 l 772 129 q 779 104 779 119 q 735 28 779 64 q 643 -8 692 -8 q 574 32 594 -8 l 383 401 l 292 401 l 292 67 q 260 17 292 35 q 183 0 228 0 q 107 17 139 0 q 75 67 75 35 m 178 1285 q 190 1329 178 1310 q 221 1349 203 1349 q 236 1344 228 1349 l 381 1267 l 525 1344 q 540 1349 533 1349 q 571 1329 558 1349 q 583 1285 583 1310 q 549 1224 583 1243 l 404 1146 q 381 1139 390 1139 q 357 1146 371 1139 l 213 1224 q 178 1285 178 1243 m 292 568 l 429 568 q 522 598 490 568 q 554 697 554 628 q 522 797 554 767 q 429 826 490 826 l 292 826 l 292 568 z "},"ř":{"ha":547,"x_min":63,"x_max":546,"o":"m 63 67 l 63 596 q 92 643 63 625 q 168 661 122 661 q 236 643 208 661 q 264 596 264 625 l 264 544 q 333 632 286 594 q 429 669 379 669 l 469 669 q 523 642 500 669 q 546 576 546 614 q 523 510 546 538 q 469 482 500 482 l 429 482 q 324 424 369 482 q 278 275 278 367 l 278 67 q 245 21 278 42 q 168 0 213 0 q 93 20 124 0 q 63 67 63 40 m 85 953 q 97 997 85 978 q 128 1017 110 1017 q 143 1013 135 1017 l 288 935 l 432 1013 q 447 1017 440 1017 q 478 997 465 1017 q 490 953 490 978 q 456 892 490 911 l 311 814 q 288 807 297 807 q 264 814 278 807 l 119 892 q 85 953 85 911 z "},"Ś":{"ha":740,"x_min":26,"x_max":708,"o":"m 26 167 q 55 244 26 206 q 121 283 83 283 q 167 267 142 283 q 215 232 193 251 q 275 197 236 213 q 357 181 314 181 q 451 203 411 181 q 492 272 492 226 q 447 353 492 318 q 337 416 401 388 q 207 480 272 444 q 97 581 142 515 q 51 736 51 646 q 156 952 51 881 q 407 1024 260 1024 q 483 1019 443 1024 q 572 1003 522 1015 q 652 965 621 992 q 683 901 683 939 q 660 826 683 865 q 597 788 638 788 q 526 814 581 788 q 407 840 472 840 q 303 816 338 840 q 268 757 268 792 q 301 699 268 725 q 382 653 333 672 q 488 605 431 635 q 594 540 546 575 q 676 440 643 504 q 708 294 708 376 q 613 67 708 149 q 361 -14 517 -14 q 126 42 226 -14 q 26 167 26 97 m 247 1189 q 275 1238 247 1224 l 469 1328 q 489 1332 481 1332 q 535 1306 515 1332 q 554 1251 554 1281 q 526 1204 554 1218 l 332 1114 q 311 1108 318 1108 q 266 1134 285 1108 q 247 1189 247 1160 z "},"ś":{"ha":596,"x_min":29,"x_max":561,"o":"m 29 114 q 50 176 29 143 q 100 208 71 208 q 141 193 117 208 q 202 162 165 178 q 288 146 239 146 q 374 192 374 146 q 340 233 374 217 q 259 260 307 249 q 163 289 211 271 q 82 349 115 307 q 49 456 49 390 q 111 607 49 544 q 310 669 174 669 q 474 641 403 669 q 546 569 546 613 q 524 505 546 542 q 468 468 501 468 q 404 489 454 468 q 313 510 354 510 q 253 497 274 510 q 233 465 233 483 q 267 432 233 444 q 349 408 301 419 q 445 377 397 396 q 527 313 493 358 q 561 200 561 268 q 491 43 561 100 q 293 -14 421 -14 q 107 24 185 -14 q 29 114 29 63 m 163 857 q 190 906 163 892 l 385 996 q 404 1000 394 1000 q 450 974 431 1000 q 469 919 469 949 q 442 872 469 886 l 247 782 q 226 776 233 776 q 181 802 200 776 q 163 857 163 828 z "},"Ŝ":{"ha":740,"x_min":26,"x_max":708,"o":"m 26 167 q 55 244 26 206 q 121 283 83 283 q 167 267 142 283 q 215 232 193 251 q 275 197 236 213 q 357 181 314 181 q 451 203 411 181 q 492 272 492 226 q 447 353 492 318 q 337 416 401 388 q 207 480 272 444 q 97 581 142 515 q 51 736 51 646 q 156 952 51 881 q 407 1024 260 1024 q 483 1019 443 1024 q 572 1003 522 1015 q 652 965 621 992 q 683 901 683 939 q 660 826 683 865 q 597 788 638 788 q 526 814 581 788 q 407 840 472 840 q 303 816 338 840 q 268 757 268 792 q 301 699 268 725 q 382 653 333 672 q 488 605 431 635 q 594 540 546 575 q 676 440 643 504 q 708 294 708 376 q 613 67 708 149 q 361 -14 517 -14 q 126 42 226 -14 q 26 167 26 97 m 164 1186 q 199 1247 164 1228 l 343 1325 q 367 1332 357 1332 q 390 1325 376 1332 l 535 1247 q 569 1186 569 1228 q 557 1142 569 1161 q 526 1122 544 1122 q 511 1126 519 1122 l 367 1204 l 222 1126 q 207 1122 214 1122 q 176 1142 189 1122 q 164 1186 164 1161 z "},"ŝ":{"ha":596,"x_min":29,"x_max":561,"o":"m 29 114 q 50 176 29 143 q 100 208 71 208 q 141 193 117 208 q 202 162 165 178 q 288 146 239 146 q 374 192 374 146 q 340 233 374 217 q 259 260 307 249 q 163 289 211 271 q 82 349 115 307 q 49 456 49 390 q 111 607 49 544 q 310 669 174 669 q 474 641 403 669 q 546 569 546 613 q 524 505 546 542 q 468 468 501 468 q 404 489 454 468 q 313 510 354 510 q 253 497 274 510 q 233 465 233 483 q 267 432 233 444 q 349 408 301 419 q 445 377 397 396 q 527 313 493 358 q 561 200 561 268 q 491 43 561 100 q 293 -14 421 -14 q 107 24 185 -14 q 29 114 29 63 m 93 854 q 128 915 93 896 l 272 993 q 296 1000 286 1000 q 319 993 306 1000 l 464 915 q 499 854 499 896 q 486 810 499 829 q 456 790 474 790 q 440 794 449 790 l 296 872 l 151 794 q 136 790 143 790 q 106 810 118 790 q 93 854 93 829 z "},"Ş":{"ha":740,"x_min":26,"x_max":708,"o":"m 26 167 q 55 244 26 206 q 121 283 83 283 q 167 267 142 283 q 215 232 193 251 q 275 197 236 213 q 357 181 314 181 q 451 203 411 181 q 492 272 492 226 q 447 353 492 318 q 337 416 401 388 q 207 480 272 444 q 97 581 142 515 q 51 736 51 646 q 156 952 51 881 q 407 1024 260 1024 q 483 1019 443 1024 q 572 1003 522 1015 q 652 965 621 992 q 683 901 683 939 q 660 826 683 865 q 597 788 638 788 q 526 814 581 788 q 407 840 472 840 q 303 816 338 840 q 268 757 268 792 q 301 699 268 725 q 382 653 333 672 q 488 605 431 635 q 594 540 546 575 q 676 440 643 504 q 708 294 708 376 q 633 87 708 165 q 431 -8 558 8 l 413 -65 q 516 -99 481 -68 q 551 -175 551 -129 q 515 -263 551 -222 q 397 -304 479 -304 q 314 -292 353 -304 q 275 -261 275 -281 q 285 -225 275 -247 q 311 -203 294 -203 q 342 -212 317 -203 q 392 -222 367 -222 q 456 -179 456 -222 q 396 -132 456 -137 l 310 -124 l 342 -14 q 119 44 213 -10 q 26 167 26 99 z "},"ş":{"ha":596,"x_min":29,"x_max":561,"o":"m 29 114 q 50 176 29 143 q 100 208 71 208 q 141 193 117 208 q 202 162 165 178 q 288 146 239 146 q 374 192 374 146 q 340 233 374 217 q 259 260 307 249 q 163 289 211 271 q 82 349 115 307 q 49 456 49 390 q 111 607 49 544 q 310 669 174 669 q 474 641 403 669 q 546 569 546 613 q 524 505 546 542 q 468 468 501 468 q 404 489 454 468 q 313 510 354 510 q 253 497 274 510 q 233 465 233 483 q 267 432 233 444 q 349 408 301 419 q 445 377 397 396 q 527 313 493 358 q 561 200 561 268 q 506 56 561 111 q 349 -10 451 1 l 331 -65 q 434 -99 399 -68 q 469 -175 469 -129 q 433 -263 469 -222 q 315 -304 397 -304 q 232 -292 271 -304 q 193 -261 193 -281 q 203 -225 193 -247 q 229 -203 213 -203 q 258 -212 233 -203 q 310 -222 283 -222 q 374 -179 374 -222 q 314 -132 374 -137 l 228 -124 l 260 -12 q 95 31 161 -6 q 29 114 29 67 z "},"Š":{"ha":740,"x_min":26,"x_max":708,"o":"m 26 167 q 55 244 26 206 q 121 283 83 283 q 167 267 142 283 q 215 232 193 251 q 275 197 236 213 q 357 181 314 181 q 451 203 411 181 q 492 272 492 226 q 447 353 492 318 q 337 416 401 388 q 207 480 272 444 q 97 581 142 515 q 51 736 51 646 q 156 952 51 881 q 407 1024 260 1024 q 483 1019 443 1024 q 572 1003 522 1015 q 652 965 621 992 q 683 901 683 939 q 660 826 683 865 q 597 788 638 788 q 526 814 581 788 q 407 840 472 840 q 303 816 338 840 q 268 757 268 792 q 301 699 268 725 q 382 653 333 672 q 488 605 431 635 q 594 540 546 575 q 676 440 643 504 q 708 294 708 376 q 613 67 708 149 q 361 -14 517 -14 q 126 42 226 -14 q 26 167 26 97 m 165 1285 q 178 1329 165 1310 q 208 1349 190 1349 q 224 1344 215 1349 l 368 1267 l 513 1344 q 528 1349 521 1349 q 558 1329 546 1349 q 571 1285 571 1310 q 536 1224 571 1243 l 392 1146 q 368 1139 378 1139 q 344 1146 358 1139 l 200 1224 q 165 1285 165 1243 z "},"š":{"ha":596,"x_min":29,"x_max":561,"o":"m 29 114 q 50 176 29 143 q 100 208 71 208 q 141 193 117 208 q 202 162 165 178 q 288 146 239 146 q 374 192 374 146 q 340 233 374 217 q 259 260 307 249 q 163 289 211 271 q 82 349 115 307 q 49 456 49 390 q 111 607 49 544 q 310 669 174 669 q 474 641 403 669 q 546 569 546 613 q 524 505 546 542 q 468 468 501 468 q 404 489 454 468 q 313 510 354 510 q 253 497 274 510 q 233 465 233 483 q 267 432 233 444 q 349 408 301 419 q 445 377 397 396 q 527 313 493 358 q 561 200 561 268 q 491 43 561 100 q 293 -14 421 -14 q 107 24 185 -14 q 29 114 29 63 m 99 953 q 111 997 99 978 q 142 1017 124 1017 q 157 1013 149 1017 l 301 935 l 446 1013 q 461 1017 454 1017 q 492 997 479 1017 q 504 953 504 978 q 469 892 504 911 l 325 814 q 301 807 311 807 q 278 814 292 807 l 133 892 q 99 953 99 911 z "},"Ţ":{"ha":753,"x_min":11,"x_max":742,"o":"m 11 919 q 28 987 11 958 q 76 1015 44 1015 l 676 1015 q 725 987 708 1015 q 742 919 742 958 q 724 849 742 878 q 676 821 707 821 l 485 821 l 485 67 q 453 17 485 35 q 376 0 421 0 q 300 17 332 0 q 268 67 268 35 l 268 821 l 76 821 q 28 849 46 821 q 11 919 11 878 m 218 -210 q 246 -161 218 -175 l 440 -71 q 460 -67 450 -67 q 506 -92 486 -67 q 525 -147 525 -118 q 497 -194 525 -181 l 303 -285 q 282 -290 289 -290 q 237 -265 256 -290 q 218 -210 218 -239 z "},"ţ":{"ha":506,"x_min":60,"x_max":485,"o":"m 60 235 l 60 883 q 93 930 60 911 q 167 949 126 949 q 242 930 210 949 q 275 883 275 911 l 275 661 l 432 661 q 471 638 457 661 q 485 585 485 615 q 471 531 485 553 q 432 508 457 508 l 275 508 l 275 235 q 288 192 275 204 q 332 181 300 181 l 392 181 q 460 153 436 181 q 483 90 483 126 q 460 26 483 53 q 392 0 436 0 l 332 0 q 60 235 60 0 m 93 -210 q 121 -161 93 -175 l 315 -71 q 335 -67 325 -67 q 381 -92 361 -67 q 400 -147 400 -118 q 372 -194 400 -181 l 178 -285 q 157 -290 164 -290 q 112 -265 131 -290 q 93 -210 93 -239 z "},"Ť":{"ha":753,"x_min":11,"x_max":742,"o":"m 11 919 q 28 987 11 958 q 76 1015 44 1015 l 676 1015 q 725 987 708 1015 q 742 919 742 958 q 724 849 742 878 q 676 821 707 821 l 485 821 l 485 67 q 453 17 485 35 q 376 0 421 0 q 300 17 332 0 q 268 67 268 35 l 268 821 l 76 821 q 28 849 46 821 q 11 919 11 878 m 172 1285 q 185 1329 172 1310 q 215 1349 197 1349 q 231 1344 222 1349 l 375 1267 l 519 1344 q 535 1349 528 1349 q 565 1329 553 1349 q 578 1285 578 1310 q 543 1224 578 1243 l 399 1146 q 375 1139 385 1139 q 351 1146 365 1139 l 207 1224 q 172 1285 172 1243 z "},"ť":{"ha":506,"x_min":60,"x_max":533,"o":"m 60 235 l 60 883 q 93 930 60 911 q 167 949 126 949 q 242 930 210 949 q 275 883 275 911 l 275 661 l 432 661 q 471 638 457 661 q 485 585 485 615 q 471 531 485 553 q 432 508 457 508 l 275 508 l 275 235 q 288 192 275 204 q 332 181 300 181 l 392 181 q 460 153 436 181 q 483 90 483 126 q 460 26 483 53 q 392 0 436 0 l 332 0 q 60 235 60 0 m 321 960 q 352 1035 321 1004 q 426 1067 383 1067 q 501 1035 469 1067 q 533 961 533 1004 q 447 739 533 939 q 406 714 436 714 q 358 729 381 714 q 336 768 336 744 q 342 790 336 779 l 376 865 q 321 960 321 897 z "},"Ŧ":{"ha":753,"x_min":11,"x_max":742,"o":"m 11 919 q 28 987 11 958 q 76 1015 44 1015 l 676 1015 q 725 987 708 1015 q 742 919 742 958 q 724 849 742 878 q 676 821 707 821 l 485 821 l 485 583 l 578 583 q 617 560 603 583 q 631 507 631 538 q 617 453 631 475 q 578 431 603 431 l 485 431 l 485 67 q 453 17 485 35 q 376 0 421 0 q 300 17 332 0 q 268 67 268 35 l 268 431 l 174 431 q 135 453 149 431 q 121 507 121 475 q 135 560 121 538 q 174 583 149 583 l 268 583 l 268 821 l 76 821 q 28 849 46 821 q 11 919 11 878 z "},"ŧ":{"ha":508,"x_min":60,"x_max":485,"o":"m 60 235 l 60 883 q 93 930 60 911 q 167 949 126 949 q 242 930 210 949 q 275 883 275 911 l 275 661 l 432 661 q 471 638 457 661 q 485 585 485 615 q 471 531 485 553 q 432 508 457 508 l 275 508 l 275 422 l 432 422 q 471 399 457 422 q 485 346 485 376 q 471 292 485 314 q 432 269 457 269 l 275 269 l 275 235 q 288 192 275 204 q 332 181 300 181 l 392 181 q 460 153 436 181 q 483 90 483 126 q 460 26 483 53 q 392 0 436 0 l 332 0 q 60 235 60 0 z "},"Ũ":{"ha":842,"x_min":71,"x_max":771,"o":"m 71 319 l 71 950 q 102 999 71 982 q 179 1015 133 1015 q 256 999 224 1015 q 288 950 288 982 l 288 319 q 421 181 288 181 q 554 319 554 181 l 554 950 q 585 999 554 982 q 663 1015 617 1015 q 739 999 707 1015 q 771 950 771 982 l 771 319 q 675 71 771 150 q 421 -8 579 -8 q 166 71 261 -8 q 71 319 71 150 m 165 1213 q 283 1314 165 1314 q 388 1295 326 1314 q 486 1276 449 1276 q 556 1291 518 1276 q 606 1306 593 1306 q 646 1281 633 1306 q 658 1238 658 1257 q 540 1136 658 1136 q 427 1155 488 1136 q 338 1174 367 1174 q 268 1159 306 1174 q 218 1144 231 1144 q 178 1169 190 1144 q 165 1213 165 1193 z "},"ũ":{"ha":743,"x_min":56,"x_max":688,"o":"m 56 278 l 56 594 q 88 640 56 619 q 164 661 119 661 q 238 640 206 661 q 271 594 271 619 l 271 278 q 301 206 271 238 q 372 174 332 174 q 442 206 413 174 q 472 278 472 238 l 472 596 q 505 642 472 622 q 581 661 538 661 q 657 642 626 661 q 688 596 688 622 l 688 278 q 594 74 688 161 q 372 -14 500 -14 q 149 74 243 -14 q 56 278 56 161 m 126 881 q 244 982 126 982 q 349 963 288 982 q 447 944 410 944 q 517 959 479 944 q 567 974 554 974 q 607 949 594 974 q 619 906 619 925 q 501 804 619 804 q 388 823 449 804 q 299 842 328 842 q 229 827 267 842 q 179 813 192 813 q 139 837 151 813 q 126 881 126 861 z "},"Ū":{"ha":842,"x_min":71,"x_max":771,"o":"m 71 319 l 71 950 q 102 999 71 982 q 179 1015 133 1015 q 256 999 224 1015 q 288 950 288 982 l 288 319 q 421 181 288 181 q 554 319 554 181 l 554 950 q 585 999 554 982 q 663 1015 617 1015 q 739 999 707 1015 q 771 950 771 982 l 771 319 q 675 71 771 150 q 421 -8 579 -8 q 166 71 261 -8 q 71 319 71 150 m 213 1233 q 231 1283 213 1263 q 278 1303 249 1303 l 556 1303 q 601 1282 581 1303 q 622 1233 622 1261 q 602 1185 622 1204 q 556 1165 582 1165 l 278 1165 q 231 1184 249 1165 q 213 1233 213 1203 z "},"ū":{"ha":743,"x_min":56,"x_max":688,"o":"m 56 278 l 56 594 q 88 640 56 619 q 164 661 119 661 q 238 640 206 661 q 271 594 271 619 l 271 278 q 301 206 271 238 q 372 174 332 174 q 442 206 413 174 q 472 278 472 238 l 472 596 q 505 642 472 622 q 581 661 538 661 q 657 642 626 661 q 688 596 688 622 l 688 278 q 594 74 688 161 q 372 -14 500 -14 q 149 74 243 -14 q 56 278 56 161 m 171 901 q 189 951 171 931 q 236 971 207 971 l 514 971 q 560 951 539 971 q 581 901 581 931 q 560 853 581 872 q 514 833 540 833 l 236 833 q 189 852 207 833 q 171 901 171 871 z "},"Ŭ":{"ha":842,"x_min":71,"x_max":771,"o":"m 71 319 l 71 950 q 102 999 71 982 q 179 1015 133 1015 q 256 999 224 1015 q 288 950 288 982 l 288 319 q 421 181 288 181 q 554 319 554 181 l 554 950 q 585 999 554 982 q 663 1015 617 1015 q 739 999 707 1015 q 771 950 771 982 l 771 319 q 675 71 771 150 q 421 -8 579 -8 q 166 71 261 -8 q 71 319 71 150 m 221 1338 l 332 1338 q 358 1265 332 1294 q 415 1236 383 1236 q 472 1265 446 1236 q 497 1338 497 1294 l 608 1338 q 549 1203 608 1261 q 415 1144 490 1144 q 281 1203 340 1144 q 221 1338 221 1261 z "},"ŭ":{"ha":743,"x_min":56,"x_max":688,"o":"m 56 278 l 56 594 q 88 640 56 619 q 164 661 119 661 q 238 640 206 661 q 271 594 271 619 l 271 278 q 301 206 271 238 q 372 174 332 174 q 442 206 413 174 q 472 278 472 238 l 472 596 q 505 642 472 622 q 581 661 538 661 q 657 642 626 661 q 688 596 688 622 l 688 278 q 594 74 688 161 q 372 -14 500 -14 q 149 74 243 -14 q 56 278 56 161 m 181 1006 l 292 1006 q 317 933 292 963 q 375 904 343 904 q 431 933 406 904 q 457 1006 457 963 l 568 1006 q 509 871 568 929 q 375 813 450 813 q 240 871 300 813 q 181 1006 181 929 z "},"Ů":{"ha":842,"x_min":71,"x_max":771,"o":"m 71 319 l 71 950 q 102 999 71 982 q 179 1015 133 1015 q 256 999 224 1015 q 288 950 288 982 l 288 319 q 421 181 288 181 q 554 319 554 181 l 554 950 q 585 999 554 982 q 663 1015 617 1015 q 739 999 707 1015 q 771 950 771 982 l 771 319 q 675 71 771 150 q 421 -8 579 -8 q 166 71 261 -8 q 71 319 71 150 m 281 1260 q 321 1358 281 1315 q 418 1400 361 1400 q 516 1358 474 1400 q 558 1260 558 1315 q 516 1160 558 1203 q 418 1117 474 1117 q 322 1160 363 1117 q 281 1260 281 1203 m 363 1258 q 379 1218 363 1236 q 419 1200 396 1200 q 458 1218 442 1200 q 474 1258 474 1236 q 458 1296 474 1279 q 419 1313 442 1313 q 379 1296 396 1313 q 363 1258 363 1279 z "},"ů":{"ha":743,"x_min":56,"x_max":688,"o":"m 56 278 l 56 594 q 88 640 56 619 q 164 661 119 661 q 238 640 206 661 q 271 594 271 619 l 271 278 q 301 206 271 238 q 372 174 332 174 q 442 206 413 174 q 472 278 472 238 l 472 596 q 505 642 472 622 q 581 661 538 661 q 657 642 626 661 q 688 596 688 622 l 688 278 q 594 74 688 161 q 372 -14 500 -14 q 149 74 243 -14 q 56 278 56 161 m 232 928 q 272 1026 232 983 q 369 1068 313 1068 q 467 1026 425 1068 q 510 928 510 983 q 467 828 510 871 q 369 785 425 785 q 273 828 314 785 q 232 928 232 871 m 314 926 q 331 886 314 904 q 371 868 347 868 q 409 886 393 868 q 425 926 425 904 q 409 964 425 947 q 371 981 393 981 q 331 964 347 981 q 314 926 314 947 z "},"Ű":{"ha":842,"x_min":71,"x_max":771,"o":"m 71 319 l 71 950 q 102 999 71 982 q 179 1015 133 1015 q 256 999 224 1015 q 288 950 288 982 l 288 319 q 421 181 288 181 q 554 319 554 181 l 554 950 q 585 999 554 982 q 663 1015 617 1015 q 739 999 707 1015 q 771 950 771 982 l 771 319 q 675 71 771 150 q 421 -8 579 -8 q 166 71 261 -8 q 71 319 71 150 m 233 1165 q 243 1189 233 1178 l 353 1321 q 383 1335 364 1335 q 425 1315 406 1335 q 444 1275 444 1294 q 436 1251 444 1261 l 326 1119 q 297 1104 315 1104 q 253 1124 274 1104 q 233 1165 233 1144 m 456 1165 q 465 1189 456 1178 l 575 1321 q 606 1335 586 1335 q 647 1315 628 1335 q 667 1275 667 1294 q 658 1251 667 1261 l 549 1119 q 519 1104 538 1104 q 476 1124 496 1104 q 456 1165 456 1144 z "},"ű":{"ha":743,"x_min":56,"x_max":688,"o":"m 56 278 l 56 594 q 88 640 56 619 q 164 661 119 661 q 238 640 206 661 q 271 594 271 619 l 271 278 q 301 206 271 238 q 372 174 332 174 q 442 206 413 174 q 472 278 472 238 l 472 596 q 505 642 472 622 q 581 661 538 661 q 657 642 626 661 q 688 596 688 622 l 688 278 q 594 74 688 161 q 372 -14 500 -14 q 149 74 243 -14 q 56 278 56 161 m 190 833 q 200 857 190 846 l 310 989 q 340 1003 319 1003 q 381 983 361 1003 q 401 943 401 964 q 393 919 401 931 l 283 788 q 254 772 272 772 q 210 792 231 772 q 190 833 190 813 m 413 833 q 422 857 413 846 l 532 989 q 563 1003 542 1003 q 603 983 583 1003 q 624 943 624 964 q 615 919 624 931 l 506 788 q 476 772 494 772 q 433 792 453 772 q 413 833 413 813 z "},"Ų":{"ha":842,"x_min":71,"x_max":771,"o":"m 71 319 l 71 950 q 102 999 71 982 q 179 1015 133 1015 q 256 999 224 1015 q 288 950 288 982 l 288 319 q 421 181 288 181 q 554 319 554 181 l 554 950 q 585 999 554 982 q 663 1015 617 1015 q 739 999 707 1015 q 771 950 771 982 l 771 319 q 568 13 771 75 q 490 -60 522 -14 q 458 -149 458 -107 q 539 -215 458 -215 q 574 -262 574 -215 q 531 -303 574 -303 q 400 -265 443 -303 q 357 -168 357 -228 q 431 -8 357 -79 l 421 -8 q 166 71 261 -8 q 71 319 71 150 z "},"ų":{"ha":743,"x_min":56,"x_max":688,"o":"m 56 278 l 56 594 q 88 640 56 619 q 164 661 119 661 q 238 640 206 661 q 271 594 271 619 l 271 278 q 301 206 271 238 q 372 174 332 174 q 442 206 413 174 q 472 278 472 238 l 472 596 q 505 642 472 622 q 581 661 538 661 q 657 642 626 661 q 688 596 688 622 l 688 278 q 633 117 688 190 q 493 8 579 43 q 419 -63 449 -18 q 389 -149 389 -108 q 469 -215 389 -215 q 504 -262 504 -215 q 461 -303 504 -303 q 331 -265 374 -303 q 288 -168 288 -228 q 356 -14 288 -86 q 143 78 231 -8 q 56 278 56 165 z "},"Ŵ":{"ha":1278,"x_min":4,"x_max":1274,"o":"m 4 929 q 49 989 4 963 q 144 1015 94 1015 q 214 975 203 1015 l 425 263 l 535 732 q 571 774 540 758 q 639 789 601 789 q 707 774 676 789 q 743 732 738 758 l 853 263 l 1064 975 q 1133 1015 1075 1015 q 1228 989 1183 1015 q 1274 929 1274 963 q 1271 911 1274 919 l 994 64 q 942 10 982 29 q 851 -8 903 -8 q 760 10 800 -8 q 711 64 719 29 l 639 393 l 567 64 q 518 10 558 29 q 426 -8 478 -8 q 335 10 375 -8 q 283 64 294 29 l 7 911 q 4 929 4 919 m 436 1186 q 471 1247 436 1228 l 615 1325 q 639 1332 629 1332 q 663 1325 649 1332 l 807 1247 q 842 1186 842 1228 q 829 1142 842 1161 q 799 1122 817 1122 q 783 1126 792 1122 l 639 1204 l 494 1126 q 479 1122 486 1122 q 449 1142 461 1122 q 436 1186 436 1161 z "},"ŵ":{"ha":975,"x_min":3,"x_max":971,"o":"m 3 583 q 51 644 3 618 q 144 669 99 669 q 204 636 193 669 l 328 283 l 417 582 q 488 624 429 624 q 558 582 546 624 l 647 283 l 771 636 q 829 669 782 669 q 923 643 875 669 q 971 581 971 617 q 965 554 971 565 l 751 19 q 668 -18 736 -18 q 579 19 593 -18 l 488 261 l 396 19 q 306 -18 382 -18 q 224 19 239 -18 l 10 554 q 3 583 3 572 m 285 854 q 319 915 285 896 l 464 993 q 488 1000 478 1000 q 511 993 497 1000 l 656 915 q 690 854 690 896 q 678 810 690 829 q 647 790 665 790 q 632 794 640 790 l 488 872 l 343 794 q 328 790 335 790 q 297 810 310 790 q 285 854 285 829 z "},"Ŷ":{"ha":819,"x_min":6,"x_max":813,"o":"m 6 926 q 55 989 6 963 q 153 1015 104 1015 q 190 1006 178 1015 q 215 975 203 997 l 410 618 l 603 975 q 665 1015 624 1015 q 763 989 714 1015 q 813 926 813 963 q 810 911 813 917 l 524 435 q 518 415 518 426 l 518 67 q 486 17 518 35 q 410 0 454 0 q 333 17 365 0 q 301 67 301 35 l 301 415 q 296 435 301 426 l 8 911 q 6 926 6 917 m 207 1186 q 242 1247 207 1228 l 386 1325 q 410 1332 400 1332 q 433 1325 419 1332 l 578 1247 q 613 1186 613 1228 q 600 1142 613 1161 q 569 1122 588 1122 q 554 1126 563 1122 l 410 1204 l 265 1126 q 250 1122 257 1122 q 219 1142 232 1122 q 207 1186 207 1161 z "},"ŷ":{"ha":689,"x_min":1,"x_max":683,"o":"m 1 -210 q 54 -121 1 -121 q 251 57 251 -121 l 8 540 q 1 568 1 554 q 51 639 1 607 q 147 671 101 671 q 207 636 193 671 l 364 260 l 479 636 q 535 671 493 671 q 631 638 578 671 q 683 564 683 606 q 678 540 683 550 l 481 49 q 456 -17 474 29 l 431 -81 q 405 -138 424 -101 q 370 -193 386 -175 q 326 -236 354 -211 q 268 -272 299 -261 q 194 -292 238 -283 q 100 -301 151 -301 q 26 -283 51 -301 q 1 -210 1 -265 m 161 854 q 196 915 161 896 l 340 993 q 364 1000 354 1000 q 388 993 374 1000 l 532 915 q 567 854 567 896 q 554 810 567 829 q 524 790 542 790 q 508 794 517 790 l 364 872 l 219 794 q 204 790 211 790 q 174 810 186 790 q 161 854 161 829 z "},"Ÿ":{"ha":819,"x_min":6,"x_max":813,"o":"m 6 926 q 55 989 6 963 q 153 1015 104 1015 q 190 1006 178 1015 q 215 975 203 997 l 410 618 l 603 975 q 665 1015 624 1015 q 763 989 714 1015 q 813 926 813 963 q 810 911 813 917 l 524 435 q 518 415 518 426 l 518 67 q 486 17 518 35 q 410 0 454 0 q 333 17 365 0 q 301 67 301 35 l 301 415 q 296 435 301 426 l 8 911 q 6 926 6 917 m 244 1150 q 233 1163 244 1150 q 221 1207 221 1175 q 244 1263 221 1239 q 300 1288 268 1288 q 355 1263 332 1288 q 378 1207 378 1239 q 355 1149 378 1174 q 300 1125 332 1125 q 244 1150 268 1125 m 467 1150 q 455 1163 467 1150 q 443 1207 443 1175 q 467 1263 443 1239 q 522 1288 490 1288 q 577 1263 554 1288 q 600 1207 600 1239 q 577 1149 600 1174 q 522 1125 554 1125 q 467 1150 490 1125 z "},"Ź":{"ha":744,"x_min":13,"x_max":732,"o":"m 13 57 q 36 133 13 93 l 428 826 l 106 826 q 58 854 75 826 q 40 921 40 882 q 57 988 40 960 q 106 1015 74 1015 l 642 1015 q 704 958 704 1015 q 681 882 704 925 l 289 189 l 667 189 q 714 160 696 189 q 732 94 732 131 q 714 29 732 58 q 667 0 696 0 l 75 0 q 13 57 13 0 m 265 1189 q 293 1238 265 1224 l 488 1328 q 507 1332 497 1332 q 553 1306 533 1332 q 572 1251 572 1281 q 544 1204 572 1218 l 350 1114 q 329 1108 336 1108 q 284 1134 303 1108 q 265 1189 265 1160 z "},"ź":{"ha":622,"x_min":25,"x_max":603,"o":"m 25 75 q 63 164 25 115 l 308 488 l 96 488 q 53 513 71 488 q 35 575 35 539 q 51 636 35 611 q 96 661 68 661 l 511 661 q 558 643 539 661 q 578 590 578 625 q 543 497 578 543 l 296 174 l 542 174 q 585 148 567 174 q 603 86 603 122 q 586 25 603 50 q 542 0 569 0 l 96 0 q 42 22 60 0 q 25 75 25 44 m 224 857 q 251 906 224 892 l 446 996 q 465 1000 456 1000 q 511 974 492 1000 q 531 919 531 949 q 503 872 531 886 l 308 782 q 288 776 294 776 q 242 802 261 776 q 224 857 224 828 z "},"Ż":{"ha":744,"x_min":13,"x_max":732,"o":"m 13 57 q 36 133 13 93 l 428 826 l 106 826 q 58 854 75 826 q 40 921 40 882 q 57 988 40 960 q 106 1015 74 1015 l 642 1015 q 704 958 704 1015 q 681 882 704 925 l 289 189 l 667 189 q 714 160 696 189 q 732 94 732 131 q 714 29 732 58 q 667 0 696 0 l 75 0 q 13 57 13 0 m 338 1150 q 326 1163 338 1150 q 314 1207 314 1175 q 338 1263 314 1239 q 393 1288 361 1288 q 448 1263 425 1288 q 471 1207 471 1239 q 448 1149 471 1174 q 393 1125 425 1125 q 338 1150 361 1125 z "},"ż":{"ha":622,"x_min":25,"x_max":603,"o":"m 25 75 q 63 164 25 115 l 308 488 l 96 488 q 53 513 71 488 q 35 575 35 539 q 51 636 35 611 q 96 661 68 661 l 511 661 q 558 643 539 661 q 578 590 578 625 q 543 497 578 543 l 296 174 l 542 174 q 585 148 567 174 q 603 86 603 122 q 586 25 603 50 q 542 0 569 0 l 96 0 q 42 22 60 0 q 25 75 25 44 m 261 818 q 249 831 261 818 q 238 875 238 843 q 261 931 238 907 q 317 956 285 956 q 372 931 349 956 q 394 875 394 907 q 372 817 394 842 q 317 793 349 793 q 261 818 285 793 z "},"Ž":{"ha":744,"x_min":13,"x_max":732,"o":"m 13 57 q 36 133 13 93 l 428 826 l 106 826 q 58 854 75 826 q 40 921 40 882 q 57 988 40 960 q 106 1015 74 1015 l 642 1015 q 704 958 704 1015 q 681 882 704 925 l 289 189 l 667 189 q 714 160 696 189 q 732 94 732 131 q 714 29 732 58 q 667 0 696 0 l 75 0 q 13 57 13 0 m 178 1285 q 190 1329 178 1310 q 221 1349 203 1349 q 236 1344 228 1349 l 381 1267 l 525 1344 q 540 1349 533 1349 q 571 1329 558 1349 q 583 1285 583 1310 q 549 1224 583 1243 l 404 1146 q 381 1139 390 1139 q 357 1146 371 1139 l 213 1224 q 178 1285 178 1243 z "},"ž":{"ha":622,"x_min":25,"x_max":603,"o":"m 25 75 q 63 164 25 115 l 308 488 l 96 488 q 53 513 71 488 q 35 575 35 539 q 51 636 35 611 q 96 661 68 661 l 511 661 q 558 643 539 661 q 578 590 578 625 q 543 497 578 543 l 296 174 l 542 174 q 585 148 567 174 q 603 86 603 122 q 586 25 603 50 q 542 0 569 0 l 96 0 q 42 22 60 0 q 25 75 25 44 m 115 953 q 128 997 115 978 q 158 1017 140 1017 q 174 1013 165 1017 l 318 935 l 463 1013 q 478 1017 471 1017 q 508 997 496 1017 q 521 953 521 978 q 486 892 521 911 l 342 814 q 318 807 328 807 q 294 814 308 807 l 150 892 q 115 953 115 911 z "},"ƒ":{"ha":604,"x_min":-53,"x_max":658,"o":"m -53 -96 q -33 -21 -53 -51 q 18 10 -12 10 l 50 10 q 104 114 89 10 l 193 778 q 299 983 208 899 q 506 1067 390 1067 l 596 1067 q 641 1041 624 1067 q 658 976 658 1015 q 638 907 658 935 q 589 879 618 879 l 504 879 q 408 778 424 879 l 388 635 l 549 635 q 588 612 574 635 q 601 558 601 589 q 588 504 601 526 q 549 482 574 482 l 365 482 l 314 114 q 230 -105 296 -19 q 47 -190 164 -190 l 11 -190 q -35 -162 -18 -190 q -53 -96 -53 -135 z "},"Ǽ":{"ha":1135,"x_min":71,"x_max":1115,"o":"m 71 74 l 71 688 q 160 936 71 857 q 399 1015 250 1015 l 1050 1015 q 1099 988 1082 1015 q 1115 922 1115 960 q 1098 854 1115 882 q 1050 826 1081 826 l 736 826 l 736 592 l 886 592 q 934 567 917 592 q 951 507 951 542 q 935 450 951 475 q 886 425 918 425 l 736 425 l 736 189 l 1050 189 q 1098 161 1081 189 q 1115 93 1115 133 q 1099 28 1115 56 q 1050 0 1082 0 l 614 0 q 547 17 575 0 q 519 67 519 35 l 519 425 l 274 425 l 274 74 q 252 19 274 38 q 165 0 231 0 q 71 74 71 0 m 274 592 l 519 592 l 519 826 l 399 826 q 274 688 274 826 l 274 592 m 539 1183 q 567 1232 539 1218 l 761 1322 q 781 1326 772 1326 q 826 1301 807 1326 q 846 1246 846 1275 q 818 1199 846 1213 l 624 1108 q 603 1103 610 1103 q 558 1128 576 1103 q 539 1183 539 1154 z "},"ǽ":{"ha":1050,"x_min":24,"x_max":1017,"o":"m 24 171 q 108 333 24 286 q 349 381 192 381 l 399 381 l 399 394 q 374 467 399 436 q 294 497 349 497 q 185 474 228 497 q 132 451 142 451 q 79 484 99 451 q 60 558 60 517 q 137 637 60 604 q 297 669 214 669 q 517 569 438 669 q 718 669 606 669 q 929 595 842 669 q 1017 406 1017 521 q 1006 333 1017 361 q 972 294 994 306 q 931 280 950 283 q 882 276 913 276 l 614 276 l 614 268 q 653 185 614 217 q 756 154 692 154 q 858 180 804 154 q 929 206 911 206 q 986 173 964 206 q 1008 111 1008 140 q 934 27 1008 68 q 750 -14 860 -14 q 488 117 585 -14 q 243 -14 374 -14 q 86 33 149 -14 q 24 171 24 81 m 240 201 q 294 143 240 143 q 364 182 329 143 q 399 271 399 221 l 399 276 l 393 276 q 317 272 347 276 q 264 251 288 268 q 240 201 240 233 m 388 857 q 415 906 388 892 l 610 996 q 629 1000 619 1000 q 675 974 656 1000 q 694 919 694 949 q 667 872 694 886 l 472 782 q 451 776 458 776 q 406 802 425 776 q 388 857 388 828 m 614 397 l 786 397 q 815 431 815 397 q 785 492 815 469 q 714 514 756 514 q 644 492 674 514 q 614 431 614 469 l 614 397 z "},"Ǿ":{"ha":810,"x_min":64,"x_max":746,"o":"m 64 319 l 64 688 q 157 936 64 857 q 404 1015 250 1015 q 563 989 493 1015 l 586 1038 q 644 1072 603 1072 q 701 1051 675 1072 q 726 999 726 1031 q 721 972 726 983 l 685 900 q 746 688 746 819 l 746 319 q 653 71 746 150 q 404 -8 560 -8 q 253 14 319 -8 l 232 -29 q 169 -64 215 -64 q 114 -41 136 -64 q 92 10 92 -18 q 99 36 92 22 l 129 99 q 64 319 64 179 m 281 410 l 475 810 q 404 826 446 826 q 281 688 281 826 l 281 410 m 285 1189 q 313 1238 285 1224 l 507 1328 q 526 1332 517 1332 q 572 1306 553 1332 q 592 1251 592 1281 q 564 1204 592 1218 l 369 1114 q 349 1108 356 1108 q 303 1134 322 1108 q 285 1189 285 1160 m 340 193 q 404 181 367 181 q 529 319 529 181 l 529 579 l 340 193 z "},"ǿ":{"ha":707,"x_min":38,"x_max":669,"o":"m 38 281 l 38 378 q 131 583 38 496 q 353 669 224 669 q 521 624 442 669 l 571 690 q 601 708 583 708 q 633 695 619 708 q 647 664 647 682 q 636 635 647 650 l 588 571 q 669 378 669 486 l 669 281 q 574 75 669 164 q 353 -14 479 -14 q 178 38 261 -14 l 124 -33 q 100 -44 115 -44 q 70 -32 83 -44 q 57 -3 57 -19 q 67 22 57 10 l 117 89 q 38 281 38 175 m 253 269 l 403 467 q 353 482 379 482 q 283 450 313 482 q 253 378 253 418 l 253 269 m 265 857 q 293 906 265 892 l 488 996 q 507 1000 497 1000 q 553 974 533 1000 q 572 919 572 949 q 544 872 572 886 l 350 782 q 329 776 336 776 q 284 802 303 776 q 265 857 265 828 m 297 192 q 353 174 322 174 q 424 206 394 174 q 454 281 454 239 l 454 378 q 453 386 454 381 q 453 394 453 392 l 297 192 z "},"Ș":{"ha":740,"x_min":26,"x_max":708,"o":"m 26 167 q 55 244 26 206 q 121 283 83 283 q 167 267 142 283 q 215 232 193 251 q 275 197 236 213 q 357 181 314 181 q 451 203 411 181 q 492 272 492 226 q 447 353 492 318 q 337 416 401 388 q 207 480 272 444 q 97 581 142 515 q 51 736 51 646 q 156 952 51 881 q 407 1024 260 1024 q 483 1019 443 1024 q 572 1003 522 1015 q 652 965 621 992 q 683 901 683 939 q 660 826 683 865 q 597 788 638 788 q 526 814 581 788 q 407 840 472 840 q 303 816 338 840 q 268 757 268 792 q 301 699 268 725 q 382 653 333 672 q 488 605 431 635 q 594 540 546 575 q 676 440 643 504 q 708 294 708 376 q 613 67 708 149 q 361 -14 517 -14 q 126 42 226 -14 q 26 167 26 97 m 229 -210 q 257 -161 229 -175 l 451 -71 q 471 -67 461 -67 q 517 -92 497 -67 q 536 -147 536 -118 q 508 -194 536 -181 l 314 -285 q 293 -290 300 -290 q 248 -265 267 -290 q 229 -210 229 -239 z "},"ș":{"ha":596,"x_min":29,"x_max":561,"o":"m 29 114 q 50 176 29 143 q 100 208 71 208 q 141 193 117 208 q 202 162 165 178 q 288 146 239 146 q 374 192 374 146 q 340 233 374 217 q 259 260 307 249 q 163 289 211 271 q 82 349 115 307 q 49 456 49 390 q 111 607 49 544 q 310 669 174 669 q 474 641 403 669 q 546 569 546 613 q 524 505 546 542 q 468 468 501 468 q 404 489 454 468 q 313 510 354 510 q 253 497 274 510 q 233 465 233 483 q 267 432 233 444 q 349 408 301 419 q 445 377 397 396 q 527 313 493 358 q 561 200 561 268 q 491 43 561 100 q 293 -14 421 -14 q 107 24 185 -14 q 29 114 29 63 m 149 -210 q 176 -161 149 -175 l 371 -71 q 390 -67 381 -67 q 436 -92 417 -67 q 456 -147 456 -118 q 428 -194 456 -181 l 233 -285 q 213 -290 219 -290 q 167 -265 186 -290 q 149 -210 149 -239 z "},"ȷ":{"ha":340,"x_min":-56,"x_max":278,"o":"m -56 -214 q -33 -147 -56 -172 q 25 -121 -10 -121 q 56 -101 49 -121 q 63 -39 63 -81 l 63 596 q 92 643 63 625 q 168 661 122 661 q 247 643 215 661 q 278 596 278 625 l 278 -39 q 219 -229 278 -157 q 57 -301 161 -301 q -56 -214 -56 -301 z "},"ə":{"ha":689,"x_min":33,"x_max":651,"o":"m 33 250 q 44 322 33 294 q 78 361 56 350 q 119 376 100 372 q 168 379 138 379 l 436 379 l 436 388 q 397 470 436 439 q 294 501 358 501 q 192 476 246 501 q 121 450 139 450 q 64 483 86 450 q 42 544 42 515 q 116 628 42 588 q 300 669 190 669 q 553 588 456 669 q 651 375 651 507 l 651 274 q 558 71 651 156 q 332 -14 464 -14 q 121 60 208 -14 q 33 250 33 135 m 235 225 q 265 164 235 186 q 336 142 294 142 q 406 164 376 142 q 436 225 436 186 l 436 258 l 264 258 q 235 225 235 258 z "},"ˆ":{"ha":406,"x_min":0,"x_max":406,"o":"m 0 854 q 35 915 0 896 l 179 993 q 203 1000 193 1000 q 226 993 213 1000 l 371 915 q 406 854 406 896 q 393 810 406 829 q 363 790 381 790 q 347 794 356 790 l 203 872 l 58 794 q 43 790 50 790 q 13 810 25 790 q 0 854 0 829 z "},"ˇ":{"ha":406,"x_min":0,"x_max":406,"o":"m 0 953 q 13 997 0 978 q 43 1017 25 1017 q 58 1013 50 1017 l 203 935 l 347 1013 q 363 1017 356 1017 q 393 997 381 1017 q 406 953 406 978 q 371 892 406 911 l 226 814 q 203 807 213 807 q 179 814 193 807 l 35 892 q 0 953 0 911 z "},"˘":{"ha":388,"x_min":0,"x_max":388,"o":"m 0 1006 l 111 1006 q 137 933 111 963 q 194 904 163 904 q 251 933 225 904 q 276 1006 276 963 l 388 1006 q 328 871 388 929 q 194 813 269 813 q 60 871 119 813 q 0 1006 0 929 z "},"˙":{"ha":260,"x_min":56,"x_max":213,"o":"m 79 818 q 67 831 79 818 q 56 875 56 843 q 79 931 56 907 q 135 956 103 956 q 190 931 167 956 q 213 875 213 907 q 190 817 213 842 q 135 793 167 793 q 79 818 103 793 z "},"˚":{"ha":278,"x_min":0,"x_max":278,"o":"m 0 928 q 40 1026 0 983 q 138 1068 81 1068 q 235 1026 193 1068 q 278 928 278 983 q 235 828 278 871 q 138 785 193 785 q 41 828 82 785 q 0 928 0 871 m 82 926 q 99 886 82 904 q 139 868 115 868 q 177 886 161 868 q 193 926 193 904 q 177 964 193 947 q 139 981 161 981 q 99 964 115 981 q 82 926 82 947 z "},"˛":{"ha":217,"x_min":0,"x_max":217,"o":"m 0 -168 q 38 -53 0 -111 q 138 39 75 4 l 211 13 q 133 -60 165 -14 q 101 -149 101 -107 q 182 -215 101 -215 q 217 -262 217 -215 q 174 -303 217 -303 q 43 -265 86 -303 q 0 -168 0 -228 z "},"˜":{"ha":493,"x_min":0,"x_max":493,"o":"m 0 881 q 118 982 0 982 q 222 963 161 982 q 321 944 283 944 q 390 959 353 944 q 440 974 428 974 q 481 949 468 974 q 493 906 493 925 q 375 804 493 804 q 262 823 322 804 q 172 842 201 842 q 103 827 140 842 q 53 813 65 813 q 13 837 25 813 q 0 881 0 861 z "},"˝":{"ha":433,"x_min":0,"x_max":433,"o":"m 0 833 q 10 857 0 846 l 119 989 q 150 1003 131 1003 q 192 983 172 1003 q 211 943 211 964 q 203 919 211 931 l 93 788 q 64 772 82 772 q 20 792 40 772 q 0 833 0 813 m 222 833 q 232 857 222 846 l 342 989 q 372 1003 353 1003 q 414 983 394 1003 q 433 943 433 964 q 425 919 433 931 l 315 788 q 286 772 304 772 q 242 792 263 772 q 222 833 222 813 z "},"π":{"ha":779,"x_min":63,"x_max":717,"o":"m 63 65 l 63 594 q 90 644 63 626 q 157 661 118 661 l 622 661 q 689 644 661 661 q 717 594 717 626 l 717 65 q 685 17 717 33 q 608 0 653 0 q 532 17 564 0 q 500 65 500 33 l 500 472 l 279 472 l 279 65 q 247 17 279 33 q 171 0 215 0 q 94 17 126 0 q 63 65 63 33 z "},"Ẁ":{"ha":1278,"x_min":4,"x_max":1274,"o":"m 4 929 q 49 989 4 963 q 144 1015 94 1015 q 214 975 203 1015 l 425 263 l 535 732 q 571 774 540 758 q 639 789 601 789 q 707 774 676 789 q 743 732 738 758 l 853 263 l 1064 975 q 1133 1015 1075 1015 q 1228 989 1183 1015 q 1274 929 1274 963 q 1271 911 1274 919 l 994 64 q 942 10 982 29 q 851 -8 903 -8 q 760 10 800 -8 q 711 64 719 29 l 639 393 l 567 64 q 518 10 558 29 q 426 -8 478 -8 q 335 10 375 -8 q 283 64 294 29 l 7 911 q 4 929 4 919 m 458 1251 q 478 1306 458 1281 q 524 1332 497 1332 q 543 1328 533 1332 l 738 1238 q 765 1189 765 1224 q 747 1134 765 1160 q 701 1108 728 1108 q 681 1114 694 1108 l 486 1204 q 458 1251 458 1218 z "},"ẁ":{"ha":975,"x_min":3,"x_max":971,"o":"m 3 583 q 51 644 3 618 q 144 669 99 669 q 204 636 193 669 l 328 283 l 417 582 q 488 624 429 624 q 558 582 546 624 l 647 283 l 771 636 q 829 669 782 669 q 923 643 875 669 q 971 581 971 617 q 965 554 971 565 l 751 19 q 668 -18 736 -18 q 579 19 593 -18 l 488 261 l 396 19 q 306 -18 382 -18 q 224 19 239 -18 l 10 554 q 3 583 3 572 m 292 919 q 311 974 292 949 q 357 1000 331 1000 q 376 996 367 1000 l 571 906 q 599 857 599 892 q 580 802 599 828 q 535 776 561 776 q 514 782 528 776 l 319 872 q 292 919 292 886 z "},"Ẃ":{"ha":1278,"x_min":4,"x_max":1274,"o":"m 4 929 q 49 989 4 963 q 144 1015 94 1015 q 214 975 203 1015 l 425 263 l 535 732 q 571 774 540 758 q 639 789 601 789 q 707 774 676 789 q 743 732 738 758 l 853 263 l 1064 975 q 1133 1015 1075 1015 q 1228 989 1183 1015 q 1274 929 1274 963 q 1271 911 1274 919 l 994 64 q 942 10 982 29 q 851 -8 903 -8 q 760 10 800 -8 q 711 64 719 29 l 639 393 l 567 64 q 518 10 558 29 q 426 -8 478 -8 q 335 10 375 -8 q 283 64 294 29 l 7 911 q 4 929 4 919 m 514 1189 q 542 1238 514 1224 l 736 1328 q 756 1332 747 1332 q 801 1306 782 1332 q 821 1251 821 1281 q 793 1204 821 1218 l 599 1114 q 578 1108 585 1108 q 533 1134 551 1108 q 514 1189 514 1160 z "},"ẃ":{"ha":975,"x_min":3,"x_max":971,"o":"m 3 583 q 51 644 3 618 q 144 669 99 669 q 204 636 193 669 l 328 283 l 417 582 q 488 624 429 624 q 558 582 546 624 l 647 283 l 771 636 q 829 669 782 669 q 923 643 875 669 q 971 581 971 617 q 965 554 971 565 l 751 19 q 668 -18 736 -18 q 579 19 593 -18 l 488 261 l 396 19 q 306 -18 382 -18 q 224 19 239 -18 l 10 554 q 3 583 3 572 m 375 857 q 403 906 375 892 l 597 996 q 617 1000 608 1000 q 663 974 643 1000 q 682 919 682 949 q 654 872 682 886 l 460 782 q 439 776 446 776 q 394 802 413 776 q 375 857 375 828 z "},"Ẅ":{"ha":1278,"x_min":4,"x_max":1274,"o":"m 4 929 q 49 989 4 963 q 144 1015 94 1015 q 214 975 203 1015 l 425 263 l 535 732 q 571 774 540 758 q 639 789 601 789 q 707 774 676 789 q 743 732 738 758 l 853 263 l 1064 975 q 1133 1015 1075 1015 q 1228 989 1183 1015 q 1274 929 1274 963 q 1271 911 1274 919 l 994 64 q 942 10 982 29 q 851 -8 903 -8 q 760 10 800 -8 q 711 64 719 29 l 639 393 l 567 64 q 518 10 558 29 q 426 -8 478 -8 q 335 10 375 -8 q 283 64 294 29 l 7 911 q 4 929 4 919 m 474 1150 q 462 1163 474 1150 q 450 1207 450 1175 q 474 1263 450 1239 q 529 1288 497 1288 q 584 1263 561 1288 q 607 1207 607 1239 q 584 1149 607 1174 q 529 1125 561 1125 q 474 1150 497 1125 m 696 1150 q 684 1163 696 1150 q 672 1207 672 1175 q 696 1263 672 1239 q 751 1288 719 1288 q 806 1263 783 1288 q 829 1207 829 1239 q 806 1149 829 1174 q 751 1125 783 1125 q 696 1150 719 1125 z "},"ẅ":{"ha":975,"x_min":3,"x_max":971,"o":"m 3 583 q 51 644 3 618 q 144 669 99 669 q 204 636 193 669 l 328 283 l 417 582 q 488 624 429 624 q 558 582 546 624 l 647 283 l 771 636 q 829 669 782 669 q 923 643 875 669 q 971 581 971 617 q 965 554 971 565 l 751 19 q 668 -18 736 -18 q 579 19 593 -18 l 488 261 l 396 19 q 306 -18 382 -18 q 224 19 239 -18 l 10 554 q 3 583 3 572 m 322 818 q 310 831 322 818 q 299 875 299 843 q 322 931 299 907 q 378 956 346 956 q 433 931 410 956 q 456 875 456 907 q 433 817 456 842 q 378 793 410 793 q 322 818 346 793 m 544 818 q 533 831 544 818 q 521 875 521 843 q 544 931 521 907 q 600 956 568 956 q 655 931 632 956 q 678 875 678 907 q 655 817 678 842 q 600 793 632 793 q 544 818 568 793 z "},"Ỳ":{"ha":819,"x_min":6,"x_max":813,"o":"m 6 926 q 55 989 6 963 q 153 1015 104 1015 q 190 1006 178 1015 q 215 975 203 997 l 410 618 l 603 975 q 665 1015 624 1015 q 763 989 714 1015 q 813 926 813 963 q 810 911 813 917 l 524 435 q 518 415 518 426 l 518 67 q 486 17 518 35 q 410 0 454 0 q 333 17 365 0 q 301 67 301 35 l 301 415 q 296 435 301 426 l 8 911 q 6 926 6 917 m 228 1251 q 247 1306 228 1281 q 293 1332 267 1332 q 313 1328 303 1332 l 507 1238 q 535 1189 535 1224 q 516 1134 535 1160 q 471 1108 497 1108 q 450 1114 464 1108 l 256 1204 q 228 1251 228 1218 z "},"ỳ":{"ha":689,"x_min":1,"x_max":683,"o":"m 1 -210 q 54 -121 1 -121 q 251 57 251 -121 l 8 540 q 1 568 1 554 q 51 639 1 607 q 147 671 101 671 q 207 636 193 671 l 364 260 l 479 636 q 535 671 493 671 q 631 638 578 671 q 683 564 683 606 q 678 540 683 550 l 481 49 q 456 -17 474 29 l 431 -81 q 405 -138 424 -101 q 370 -193 386 -175 q 326 -236 354 -211 q 268 -272 299 -261 q 194 -292 238 -283 q 100 -301 151 -301 q 26 -283 51 -301 q 1 -210 1 -265 m 149 919 q 168 974 149 949 q 214 1000 188 1000 q 233 996 222 1000 l 428 906 q 456 857 456 892 q 437 802 456 828 q 392 776 418 776 q 371 782 385 776 l 176 872 q 149 919 149 886 z "},"–":{"ha":661,"x_min":43,"x_max":619,"o":"m 43 333 q 61 397 43 371 q 108 422 79 422 l 553 422 q 599 396 579 422 q 619 333 619 369 q 599 271 619 296 q 553 246 579 246 l 108 246 q 61 270 79 246 q 43 333 43 294 z "},"—":{"ha":1051,"x_min":43,"x_max":1010,"o":"m 43 333 q 61 397 43 371 q 108 422 79 422 l 943 422 q 990 396 969 422 q 1010 333 1010 369 q 990 271 1010 296 q 943 246 969 246 l 108 246 q 61 270 79 246 q 43 333 43 294 z "},"‘":{"ha":265,"x_min":22,"x_max":235,"o":"m 22 782 q 108 1004 22 804 q 150 1029 119 1029 q 197 1014 175 1029 q 219 975 219 999 q 214 953 219 964 l 179 878 q 235 783 235 846 q 203 708 235 739 q 129 676 172 676 q 54 708 86 676 q 22 782 22 739 z "},"’":{"ha":264,"x_min":32,"x_max":244,"o":"m 32 922 q 63 998 32 967 q 138 1029 94 1029 q 213 998 181 1029 q 244 924 244 967 q 158 701 244 901 q 117 676 147 676 q 69 692 92 676 q 47 731 47 707 q 53 753 47 742 l 88 828 q 32 922 32 860 z "},"‚":{"ha":276,"x_min":32,"x_max":244,"o":"m 32 99 q 63 174 32 143 q 138 206 94 206 q 213 174 181 206 q 244 100 244 143 q 158 -122 244 78 q 117 -147 147 -147 q 69 -132 92 -147 q 47 -93 47 -117 q 53 -71 47 -82 l 88 4 q 32 99 32 36 z "},"“":{"ha":543,"x_min":22,"x_max":513,"o":"m 22 782 q 108 1004 22 804 q 150 1029 119 1029 q 197 1014 175 1029 q 219 975 219 999 q 214 953 219 964 l 179 878 q 235 783 235 846 q 203 708 235 739 q 129 676 172 676 q 54 708 86 676 q 22 782 22 739 m 300 782 q 386 1004 300 804 q 428 1029 397 1029 q 475 1014 453 1029 q 497 975 497 999 q 492 953 497 964 l 457 878 q 513 783 513 846 q 481 708 513 739 q 407 676 450 676 q 332 708 364 676 q 300 782 300 739 z "},"”":{"ha":542,"x_min":32,"x_max":522,"o":"m 32 922 q 63 998 32 967 q 138 1029 94 1029 q 213 998 181 1029 q 244 924 244 967 q 158 701 244 901 q 117 676 147 676 q 69 692 92 676 q 47 731 47 707 q 53 753 47 742 l 88 828 q 32 922 32 860 m 310 922 q 341 998 310 967 q 415 1029 372 1029 q 490 998 458 1029 q 522 924 522 967 q 436 701 522 901 q 394 676 425 676 q 347 692 369 676 q 325 731 325 707 q 331 753 325 742 l 365 828 q 310 922 310 860 z "},"„":{"ha":554,"x_min":32,"x_max":522,"o":"m 32 99 q 63 174 32 143 q 138 206 94 206 q 213 174 181 206 q 244 100 244 143 q 158 -122 244 78 q 117 -147 147 -147 q 69 -132 92 -147 q 47 -93 47 -117 q 53 -71 47 -82 l 88 4 q 32 99 32 36 m 310 99 q 341 174 310 143 q 415 206 372 206 q 490 174 458 206 q 522 100 522 143 q 436 -122 522 78 q 394 -147 425 -147 q 347 -132 369 -147 q 325 -93 325 -117 q 331 -71 325 -82 l 365 4 q 310 99 310 36 z "},"†":{"ha":629,"x_min":26,"x_max":603,"o":"m 26 631 q 44 690 26 665 q 92 714 63 714 l 206 706 l 206 950 q 238 996 206 976 q 314 1015 269 1015 q 389 995 356 1015 q 422 950 422 975 l 422 706 l 536 714 q 582 689 561 714 q 603 631 603 664 q 583 572 603 596 q 536 549 563 549 l 422 557 l 422 50 q 389 -5 422 19 q 314 -29 356 -29 q 238 -6 269 -29 q 206 50 206 18 l 206 557 l 92 549 q 44 572 63 549 q 26 631 26 594 z "},"‡":{"ha":643,"x_min":33,"x_max":610,"o":"m 33 335 q 51 394 33 369 q 99 418 69 418 l 213 410 l 213 557 l 99 549 q 51 572 69 549 q 33 631 33 594 q 51 690 33 665 q 99 714 69 714 l 213 706 l 213 950 q 244 996 213 976 q 321 1015 276 1015 q 396 995 363 1015 q 429 950 429 975 l 429 706 l 543 714 q 589 689 568 714 q 610 631 610 664 q 590 572 610 596 q 543 549 569 549 l 429 557 l 429 410 l 543 418 q 589 393 568 418 q 610 335 610 368 q 590 276 610 300 q 543 253 569 253 l 429 261 l 429 50 q 396 -5 429 19 q 321 -29 363 -29 q 244 -6 276 -29 q 213 50 213 18 l 213 261 l 99 253 q 51 276 69 253 q 33 335 33 299 z "},"•":{"ha":465,"x_min":36,"x_max":429,"o":"m 36 417 q 95 548 36 492 q 233 604 154 604 q 370 548 311 604 q 429 417 429 492 q 370 284 429 340 q 233 228 311 228 q 95 284 154 228 q 36 417 36 340 z "},"…":{"ha":822,"x_min":32,"x_max":790,"o":"m 32 99 q 63 174 32 143 q 139 206 93 206 q 213 174 182 206 q 244 99 244 142 q 213 24 244 56 q 139 -8 182 -8 q 63 24 94 -8 q 32 99 32 56 m 306 99 q 336 174 306 143 q 413 206 367 206 q 487 174 456 206 q 518 99 518 142 q 487 24 518 56 q 413 -8 456 -8 q 337 24 368 -8 q 306 99 306 56 m 578 99 q 608 174 578 143 q 685 206 639 206 q 759 174 728 206 q 790 99 790 142 q 759 24 790 56 q 685 -8 728 -8 q 609 24 640 -8 q 578 99 578 56 z "},"‰":{"ha":1606,"x_min":33,"x_max":1572,"o":"m 33 631 l 33 828 q 90 970 33 925 q 242 1015 146 1015 q 393 970 336 1015 q 450 828 450 925 l 450 631 q 393 488 450 533 q 242 443 336 443 q 90 488 146 443 q 33 631 33 533 m 174 631 q 242 564 174 564 q 311 631 311 564 l 311 828 q 242 894 311 894 q 174 828 174 894 l 174 631 m 246 10 q 253 36 246 22 l 740 1038 q 799 1072 757 1072 q 855 1051 829 1072 q 881 999 881 1031 q 875 972 881 983 l 386 -29 q 324 -64 369 -64 q 268 -41 290 -64 q 246 10 246 -18 m 671 183 l 671 381 q 727 523 671 478 q 879 568 783 568 q 1031 523 974 568 q 1088 381 1088 478 l 1088 183 q 1031 41 1088 86 q 879 -4 974 -4 q 727 41 783 -4 q 671 183 671 86 m 811 183 q 879 117 811 117 q 949 183 949 117 l 949 381 q 879 447 949 447 q 811 381 811 447 l 811 183 m 1156 183 l 1156 381 q 1212 523 1156 478 q 1364 568 1268 568 q 1515 523 1458 568 q 1572 381 1572 478 l 1572 183 q 1515 41 1572 86 q 1364 -4 1458 -4 q 1212 41 1268 -4 q 1156 183 1156 86 m 1296 183 q 1364 117 1296 117 q 1433 183 1433 117 l 1433 381 q 1364 447 1433 447 q 1296 381 1296 447 l 1296 183 z "},"‹":{"ha":399,"x_min":29,"x_max":356,"o":"m 33 363 q 31 367 33 363 q 29 383 29 372 q 33 404 29 394 q 50 433 38 414 l 68 467 l 161 640 q 219 667 175 667 q 313 630 271 667 q 356 558 356 593 q 351 539 356 547 l 269 385 l 351 231 q 356 211 356 222 q 313 140 356 176 q 219 103 271 103 q 161 129 175 103 l 68 303 q 49 335 61 317 q 33 363 38 353 z "},"›":{"ha":399,"x_min":43,"x_max":369,"o":"m 43 211 q 47 231 43 222 l 129 385 l 47 539 q 43 558 43 547 q 85 630 43 593 q 179 667 128 667 q 238 640 225 667 l 331 467 l 346 439 l 358 418 q 366 401 363 411 q 369 383 369 392 q 365 363 369 372 q 349 335 361 353 q 331 303 338 317 l 238 129 q 179 103 225 103 q 85 140 128 103 q 43 211 43 176 z "},"⁄":{"ha":275,"x_min":-181,"x_max":454,"o":"m -181 10 q -174 36 -181 22 l 314 1038 q 372 1072 331 1072 q 428 1051 403 1072 q 454 999 454 1031 q 449 972 454 983 l -40 -29 q -103 -64 -57 -64 q -158 -41 -136 -64 q -181 10 -181 -18 z "},"⁰":{"ha":492,"x_min":38,"x_max":454,"o":"m 38 631 l 38 828 q 94 970 38 925 q 246 1015 150 1015 q 397 970 340 1015 q 454 828 454 925 l 454 631 q 397 488 454 533 q 246 443 340 443 q 94 488 150 443 q 38 631 38 533 m 178 631 q 246 564 178 564 q 315 631 315 564 l 315 828 q 246 894 315 894 q 178 828 178 894 l 178 631 z "},"⁴":{"ha":456,"x_min":-1,"x_max":454,"o":"m -1 611 q 6 636 -1 624 l 196 981 q 254 1015 215 1015 q 299 1001 275 1015 q 324 964 324 986 q 319 947 324 956 l 178 692 l 238 692 l 238 721 q 258 752 238 742 q 307 763 278 763 q 378 721 378 763 l 378 692 l 413 692 q 443 673 432 692 q 454 628 454 654 q 441 584 454 604 q 413 564 428 564 l 378 564 l 378 489 q 357 458 378 469 q 307 447 336 447 q 258 458 279 447 q 238 489 238 469 l 238 564 l 44 564 q 12 576 25 564 q -1 611 -1 589 z "},"⁵":{"ha":456,"x_min":18,"x_max":435,"o":"m 18 590 q 35 638 18 625 q 88 651 53 651 q 144 638 131 651 q 158 600 158 625 q 225 564 158 564 q 294 625 294 564 l 294 640 q 226 706 294 706 l 99 706 q 46 761 46 706 q 47 786 46 775 l 69 974 q 94 1015 74 1015 l 364 1015 q 404 956 404 1015 q 394 913 404 931 q 364 894 383 894 l 185 894 l 176 813 l 226 813 q 378 772 321 813 q 435 640 435 731 l 435 625 q 378 488 435 532 q 228 443 321 443 q 74 487 131 443 q 18 590 18 531 z "},"⁶":{"ha":488,"x_min":39,"x_max":456,"o":"m 39 621 l 39 828 q 98 970 39 925 q 256 1015 157 1015 q 406 969 356 1015 q 456 867 456 922 q 440 823 456 835 q 390 811 425 811 q 318 861 318 811 q 251 894 318 894 q 179 828 179 894 l 179 771 q 281 800 210 800 q 456 635 456 800 l 456 629 q 399 488 456 532 q 249 443 343 443 q 97 486 156 443 q 39 621 39 529 m 179 621 q 249 554 179 554 q 317 619 317 554 l 317 625 q 247 694 317 694 q 179 632 179 694 l 179 621 z "},"⁷":{"ha":443,"x_min":14,"x_max":431,"o":"m 14 853 l 14 974 q 33 1002 14 989 q 75 1015 53 1015 l 371 1015 q 411 1002 392 1015 q 431 974 431 989 l 431 868 q 403 782 431 831 l 214 460 q 175 442 204 442 q 113 463 140 442 q 86 513 86 483 q 92 535 86 525 l 292 838 l 292 894 l 154 894 l 154 853 q 133 824 154 836 q 83 811 111 811 q 35 823 56 811 q 14 853 14 835 z "},"⁸":{"ha":474,"x_min":28,"x_max":444,"o":"m 28 603 l 28 613 q 133 758 28 726 q 49 876 49 785 q 99 981 49 946 q 238 1015 150 1015 q 374 981 324 1015 q 425 876 425 946 q 340 758 425 785 q 444 613 444 726 l 444 603 q 388 482 444 521 q 238 443 332 443 q 85 482 143 443 q 28 603 28 521 m 168 621 q 236 553 168 553 q 306 621 306 553 l 306 639 q 238 701 306 701 q 168 639 168 701 l 168 621 m 183 858 q 238 813 183 813 q 290 858 290 813 q 238 906 290 906 q 183 858 183 906 z "},"⁹":{"ha":485,"x_min":31,"x_max":447,"o":"m 31 592 q 46 635 31 624 q 96 647 61 647 q 168 597 168 647 q 235 564 168 564 q 308 631 308 564 l 308 688 q 207 658 278 658 q 31 824 31 658 l 31 829 q 87 971 31 926 q 239 1015 143 1015 q 390 970 333 1015 q 447 828 447 925 l 447 631 q 388 488 447 533 q 231 443 329 443 q 81 490 132 443 q 31 592 31 536 m 171 832 q 240 764 171 764 q 308 826 308 764 l 308 838 q 239 904 308 904 q 171 838 171 904 l 171 832 z "},"₀":{"ha":492,"x_min":38,"x_max":454,"o":"m 38 183 l 38 381 q 94 523 38 478 q 246 568 150 568 q 397 523 340 568 q 454 381 454 478 l 454 183 q 397 41 454 86 q 246 -4 340 -4 q 94 41 150 -4 q 38 183 38 86 m 178 183 q 246 117 178 117 q 315 183 315 117 l 315 381 q 246 447 315 447 q 178 381 178 447 l 178 183 z "},"₁":{"ha":279,"x_min":1,"x_max":229,"o":"m 1 465 q 26 511 1 497 l 143 567 q 167 571 153 571 q 210 559 190 571 q 229 528 229 547 l 229 42 q 208 11 229 22 q 160 0 188 0 q 110 11 131 0 q 89 42 89 22 l 89 421 l 67 415 q 44 411 54 411 q 14 428 26 411 q 1 465 1 444 z "},"₂":{"ha":453,"x_min":26,"x_max":426,"o":"m 26 42 l 26 118 q 67 200 26 158 q 156 271 107 242 q 246 335 206 300 q 286 400 286 371 q 272 430 286 417 q 229 443 258 443 q 172 393 172 443 q 152 358 172 374 q 99 343 132 343 q 36 414 36 343 q 93 526 36 485 q 228 568 150 568 q 367 525 307 568 q 426 404 426 482 q 387 301 426 349 q 299 226 347 253 q 212 172 251 199 q 172 126 172 144 l 172 121 l 383 121 q 413 103 400 121 q 425 61 425 85 q 413 19 425 38 q 383 0 400 0 l 88 0 q 47 12 67 0 q 26 42 26 24 z "}}}
